<svg xmlns="http://www.w3.org/2000/svg" width="294.61" height="294.609" viewBox="0 0 294.61 294.609">
  <path id="W_DICS" data-name="W DICS" d="M147.305,98.2a49.1,49.1,0,1,0,49.1,49.1A49.1,49.1,0,0,0,147.305,98.2Zm0,73.653a24.551,24.551,0,1,1,24.551-24.551A24.576,24.576,0,0,1,147.305,171.856Zm0-147.305A122.754,122.754,0,1,1,24.551,147.305,122.894,122.894,0,0,1,147.305,24.551Zm0-24.551A147.305,147.305,0,1,0,294.61,147.305,147.312,147.312,0,0,0,147.305,0Zm57.326,53.042a111.052,111.052,0,0,1,36.937,36.937l-33.966,15.1a74.044,74.044,0,0,0-18.069-18.057ZM89.979,241.568a111.092,111.092,0,0,1-36.924-36.924l33.966-15.1A73.782,73.782,0,0,0,105.078,207.6l-15.1,33.966Z" fill="#fff"/>
</svg>
