<svg xmlns="http://www.w3.org/2000/svg" width="1315.299" height="465.623" viewBox="0 0 1315.299 465.623">
  <defs>
    <style>
      .cls-1, .cls-8 {
        fill: none;
      }

      .cls-1 {
        stroke: #707070;
        stroke-width: 2px;
        stroke-dasharray: 6;
      }

      .cls-2 {
        fill: #ffe48c;
      }

      .cls-2, .cls-4, .cls-5, .cls-6 {
        isolation: isolate;
      }

      .cls-3 {
        fill: #ccf;
      }

      .cls-4 {
        fill: #a4d3f9;
      }

      .cls-5 {
        fill: #ff917a;
      }

      .cls-6 {
        fill: #90c68c;
      }

      .cls-7 {
        stroke: none;
      }
    </style>
  </defs>
  <g id="Group_2136" data-name="Group 2136" transform="translate(-497.775 -2791.578)">
    <g id="Ellipse_48" data-name="Ellipse 48" class="cls-1" transform="translate(580.56 3061.078) rotate(-13)">
      <ellipse class="cls-7" cx="599.02" cy="100.641" rx="599.02" ry="100.641"/>
      <ellipse class="cls-8" cx="599.02" cy="100.641" rx="598.02" ry="99.641"/>
    </g>
    <g id="Ellipse_14" data-name="Ellipse 14" class="cls-1" transform="translate(905.944 2825.788) rotate(14)">
      <ellipse class="cls-7" cx="427.078" cy="98.198" rx="427.078" ry="98.198"/>
      <ellipse class="cls-8" cx="427.078" cy="98.198" rx="426.078" ry="97.198"/>
    </g>
    <g id="Group_2133" data-name="Group 2133" transform="translate(497.775 2858.707)">
      <g id="Group_2132" data-name="Group 2132" transform="translate(360.123 12)">
        <g id="Group_2098" data-name="Group 2098" transform="translate(0 31.398)">
          <path id="Path_1788" data-name="Path 1788" class="cls-2" d="M1210.67,2740.115l.175-1.11a2.474,2.474,0,0,1,4.918.386v1.124a2.474,2.474,0,0,0,4.827.766l.346-1.07a2.474,2.474,0,0,1,4.8,1.152l-.177,1.111a2.474,2.474,0,0,0,4.648,1.51l.51-1a2.474,2.474,0,0,1,4.558,1.889l-.348,1.069a2.474,2.474,0,0,0,4.354,2.218l.66-.91a2.474,2.474,0,0,1,4.206,2.577l-.51,1a2.474,2.474,0,0,0,3.954,2.872l.795-.795a2.474,2.474,0,0,1,3.75,3.2l-.661.909a2.474,2.474,0,0,0,3.455,3.457l.91-.662a2.474,2.474,0,0,1,3.2,3.751l-.8.794a2.474,2.474,0,0,0,2.872,3.954l1-.511A2.474,2.474,0,0,1,1264.7,2772l-.91.66a2.474,2.474,0,0,0,2.219,4.354l1.069-.347a2.474,2.474,0,0,1,1.887,4.557l-1,.509a2.474,2.474,0,0,0,1.51,4.648l1.111-.176a2.474,2.474,0,0,1,1.152,4.8l-1.069.347a2.473,2.473,0,0,0,.764,4.826h1.124a2.474,2.474,0,0,1,.387,4.917l-1.111.175a2.474,2.474,0,0,0,0,4.888l1.111.175a2.474,2.474,0,0,1-.387,4.917h-1.124a2.474,2.474,0,0,0-.764,4.828l1.069.348a2.474,2.474,0,0,1-1.152,4.8l-1.111-.176a2.474,2.474,0,0,0-1.51,4.648l1,.51a2.474,2.474,0,0,1-1.887,4.557l-1.069-.349a2.474,2.474,0,0,0-2.219,4.354l.91.661a2.474,2.474,0,0,1-2.577,4.206l-1-.512a2.474,2.474,0,0,0-2.872,3.954l.8.794a2.474,2.474,0,0,1-3.2,3.75l-.91-.661a2.473,2.473,0,0,0-3.455,3.455l.661.91a2.474,2.474,0,0,1-3.75,3.2l-.795-.8a2.474,2.474,0,0,0-3.954,2.873l.51,1a2.474,2.474,0,0,1-4.206,2.577l-.66-.91a2.474,2.474,0,0,0-4.354,2.219l.348,1.069a2.474,2.474,0,0,1-4.558,1.887l-.51-1a2.474,2.474,0,0,0-4.648,1.511l.177,1.111a2.474,2.474,0,0,1-4.8,1.151l-.346-1.07a2.474,2.474,0,0,0-4.827.765v1.125a2.474,2.474,0,0,1-4.918.387l-.175-1.11a2.474,2.474,0,0,0-4.888,0l-.175,1.11a2.474,2.474,0,0,1-4.918-.387v-1.125a2.474,2.474,0,0,0-4.827-.765l-.346,1.07a2.474,2.474,0,0,1-4.8-1.151l.177-1.111a2.474,2.474,0,0,0-4.648-1.511l-.51,1a2.474,2.474,0,0,1-4.557-1.887l.348-1.069a2.474,2.474,0,0,0-4.354-2.219l-.661.91a2.474,2.474,0,0,1-4.206-2.577l.512-1a2.474,2.474,0,0,0-3.954-2.873l-.795.8a2.474,2.474,0,0,1-3.75-3.2l.661-.91a2.473,2.473,0,0,0-3.455-3.455l-.91.661a2.474,2.474,0,0,1-3.2-3.75l.8-.794a2.474,2.474,0,0,0-2.872-3.954l-1,.512a2.474,2.474,0,0,1-2.577-4.206l.91-.661a2.474,2.474,0,0,0-2.219-4.354l-1.069.349a2.474,2.474,0,0,1-1.887-4.557l1-.51a2.474,2.474,0,0,0-1.51-4.648l-1.111.176a2.474,2.474,0,0,1-1.151-4.8l1.069-.348a2.474,2.474,0,0,0-.764-4.828H1143.9a2.474,2.474,0,0,1-.387-4.917l1.11-.175a2.474,2.474,0,0,0,0-4.888l-1.11-.175a2.474,2.474,0,0,1,.387-4.917h1.124a2.473,2.473,0,0,0,.764-4.826l-1.069-.347a2.474,2.474,0,0,1,1.151-4.8l1.111.176a2.474,2.474,0,0,0,1.51-4.648l-1-.509a2.474,2.474,0,0,1,1.887-4.557l1.069.347a2.474,2.474,0,0,0,2.219-4.354l-.91-.66a2.474,2.474,0,0,1,2.577-4.206l1,.511a2.474,2.474,0,0,0,2.872-3.954l-.8-.794a2.474,2.474,0,0,1,3.2-3.751l.91.662a2.474,2.474,0,0,0,3.455-3.457l-.661-.909a2.474,2.474,0,0,1,3.75-3.2l.795.795a2.474,2.474,0,0,0,3.954-2.872l-.512-1a2.474,2.474,0,0,1,4.206-2.577l.661.91a2.473,2.473,0,0,0,4.354-2.218l-.348-1.069a2.474,2.474,0,0,1,4.557-1.889l.51,1a2.474,2.474,0,0,0,4.648-1.51l-.177-1.111a2.474,2.474,0,0,1,4.8-1.152l.346,1.07a2.474,2.474,0,0,0,4.827-.766v-1.124a2.474,2.474,0,0,1,4.918-.386l.175,1.11A2.474,2.474,0,0,0,1210.67,2740.115Z" transform="translate(-1141.426 -2736.915)"/>
          <g id="Group_2076" data-name="Group 2076" transform="translate(72.735 38.44)">
            <ellipse id="Ellipse_12" data-name="Ellipse 12" cx="3.375" cy="3.375" rx="3.375" ry="3.375" transform="translate(13.501)"/>
            <ellipse id="Ellipse_13" data-name="Ellipse 13" cx="3.375" cy="3.375" rx="3.375" ry="3.375" transform="translate(0 3.375)"/>
            <path id="Path_1792" data-name="Path 1792" d="M928.419,2731.538c.516,1.522-2.731,4.842-6.414,5.4-3.277.5-7-1.178-7.087-2.7a1.693,1.693,0,0,1,.843-1.35c1.629-1.053,3.367,1.384,5.907.9,2.6-.5,3.3-3.539,5.345-3.207A1.783,1.783,0,0,1,928.419,2731.538Z" transform="translate(-911.542 -2717.362)"/>
          </g>
        </g>
        <g id="Group_2100" data-name="Group 2100" transform="translate(133.601)">
          <path id="Union_4" data-name="Union 4" class="cls-3" d="M25.463,41.26H15a15,15,0,0,1-15-15V15A15,15,0,0,1,15,0H130.125a15,15,0,0,1,15,15V26.259a15,15,0,0,1-15,15H41.73L25.463,54.712Z" transform="translate(0 0)"/>
        </g>
      </g>
      <g id="Group_2129" data-name="Group 2129" transform="translate(1054.191 21.273)">
        <g id="Group_2099" data-name="Group 2099" transform="translate(0 54.714)">
          <path id="Path_1791" data-name="Path 1791" class="cls-4" d="M1457.951,2703.506l2.93-18.555a2.845,2.845,0,0,1,5.655.445l-.009,18.785a2.845,2.845,0,0,0,5.551.879l5.8-17.869a2.845,2.845,0,0,1,5.516,1.324l-2.948,18.552a2.845,2.845,0,0,0,5.346,1.737l8.52-16.742a2.845,2.845,0,0,1,5.241,2.171l-5.813,17.864a2.845,2.845,0,0,0,5.008,2.551l11.034-15.2a2.845,2.845,0,0,1,4.837,2.964l-8.536,16.733a2.845,2.845,0,0,0,4.547,3.3l13.276-13.29a2.845,2.845,0,0,1,4.314,3.684l-11.049,15.193a2.845,2.845,0,0,0,3.974,3.974l15.192-11.049a2.845,2.845,0,0,1,3.684,4.313l-13.29,13.278a2.845,2.845,0,0,0,3.3,4.546l16.733-8.535a2.845,2.845,0,0,1,2.964,4.836l-15.2,11.035a2.845,2.845,0,0,0,2.552,5.007l17.863-5.814a2.845,2.845,0,0,1,2.171,5.242l-16.742,8.52a2.845,2.845,0,0,0,1.736,5.345l18.552-2.948a2.845,2.845,0,0,1,1.325,5.516l-17.869,5.8a2.845,2.845,0,0,0,.879,5.551l18.785-.01a2.845,2.845,0,0,1,.445,5.656l-18.556,2.93a2.845,2.845,0,0,0,0,5.621l18.556,2.929a2.845,2.845,0,0,1-.445,5.656l-18.785-.009a2.844,2.844,0,0,0-.879,5.55l17.869,5.8a2.845,2.845,0,0,1-1.325,5.516l-18.552-2.947a2.844,2.844,0,0,0-1.736,5.344l16.742,8.521a2.845,2.845,0,0,1-2.171,5.241l-17.863-5.814a2.845,2.845,0,0,0-2.552,5.008l15.2,11.034a2.845,2.845,0,0,1-2.964,4.837l-16.733-8.537a2.845,2.845,0,0,0-3.3,4.547l13.29,13.277a2.844,2.844,0,0,1-3.684,4.313l-15.192-11.049a2.846,2.846,0,0,0-3.974,3.976l11.049,15.191a2.845,2.845,0,0,1-4.314,3.684l-13.276-13.29a2.845,2.845,0,0,0-4.547,3.3l8.536,16.733a2.845,2.845,0,0,1-4.837,2.964l-11.034-15.2a2.845,2.845,0,0,0-5.008,2.551l5.813,17.863a2.845,2.845,0,0,1-5.241,2.17l-8.52-16.742a2.845,2.845,0,0,0-5.346,1.738l2.948,18.552a2.845,2.845,0,0,1-5.516,1.324l-5.8-17.868a2.845,2.845,0,0,0-5.551.879l.009,18.785a2.845,2.845,0,0,1-5.655.444l-2.93-18.555a2.845,2.845,0,0,0-5.621,0l-2.93,18.555a2.845,2.845,0,0,1-5.655-.444l.009-18.785a2.845,2.845,0,0,0-5.551-.879l-5.8,17.868a2.845,2.845,0,0,1-5.516-1.324l2.948-18.552a2.845,2.845,0,0,0-5.346-1.738l-8.52,16.742a2.845,2.845,0,0,1-5.241-2.17l5.813-17.863a2.845,2.845,0,0,0-5.007-2.551l-11.034,15.2a2.845,2.845,0,0,1-4.837-2.964l8.536-16.733a2.845,2.845,0,0,0-4.547-3.3l-13.277,13.29a2.845,2.845,0,0,1-4.314-3.684l11.049-15.191a2.845,2.845,0,0,0-3.974-3.976l-15.193,11.049a2.844,2.844,0,0,1-3.683-4.312l13.289-13.277a2.845,2.845,0,0,0-3.3-4.547l-16.733,8.537a2.846,2.846,0,0,1-2.965-4.837l15.2-11.034a2.846,2.846,0,0,0-2.553-5.008l-17.863,5.814a2.845,2.845,0,0,1-2.171-5.241l16.742-8.521a2.844,2.844,0,0,0-1.736-5.344l-18.552,2.947a2.845,2.845,0,0,1-1.325-5.516l17.869-5.8a2.844,2.844,0,0,0-.879-5.55l-18.785.009a2.845,2.845,0,0,1-.445-5.656l18.555-2.929a2.845,2.845,0,0,0,0-5.621l-18.555-2.93a2.845,2.845,0,0,1,.445-5.656l18.785.01a2.845,2.845,0,0,0,.879-5.551l-17.869-5.8a2.845,2.845,0,0,1,1.325-5.516l18.552,2.948a2.845,2.845,0,0,0,1.736-5.345l-16.742-8.52a2.845,2.845,0,0,1,2.171-5.242l17.863,5.814a2.845,2.845,0,0,0,2.553-5.007l-15.2-11.035a2.845,2.845,0,0,1,2.965-4.836l16.733,8.535a2.845,2.845,0,0,0,3.3-4.546l-13.289-13.278a2.844,2.844,0,0,1,3.683-4.312l15.193,11.049a2.845,2.845,0,0,0,3.974-3.974l-11.049-15.193a2.845,2.845,0,0,1,4.314-3.684l13.277,13.29a2.845,2.845,0,0,0,4.547-3.3l-8.536-16.733a2.845,2.845,0,0,1,4.837-2.964l11.034,15.2a2.844,2.844,0,0,0,5.007-2.551l-5.813-17.864a2.845,2.845,0,0,1,5.241-2.171l8.52,16.742a2.845,2.845,0,0,0,5.346-1.737l-2.948-18.552a2.845,2.845,0,0,1,5.516-1.324l5.8,17.869a2.845,2.845,0,0,0,5.551-.879l-.009-18.785a2.845,2.845,0,0,1,5.655-.445l2.93,18.555A2.845,2.845,0,0,0,1457.951,2703.506Z" transform="translate(-1343.655 -2682.549)"/>
          <g id="Group_2077" data-name="Group 2077" transform="translate(81.982 72.099) rotate(13)">
            <ellipse id="Ellipse_12-2" data-name="Ellipse 12" cx="3.375" cy="3.375" rx="3.375" ry="3.375" transform="translate(0 0)"/>
            <ellipse id="Ellipse_13-2" data-name="Ellipse 13" cx="3.375" cy="3.375" rx="3.375" ry="3.375" transform="translate(13.501 3.375)"/>
            <path id="Path_1792-2" data-name="Path 1792" d="M.054.983c-.515,1.522,2.731,4.842,6.414,5.4,3.277.5,7-1.178,7.087-2.7a1.692,1.692,0,0,0-.843-1.35c-1.629-1.054-3.367,1.384-5.906.9C4.2,2.736,3.5-.307,1.461.025A1.783,1.783,0,0,0,.054.983Z" transform="translate(3.321 13.193)"/>
          </g>
        </g>
        <g id="Group_2101" data-name="Group 2101" transform="translate(158.667)">
          <rect id="Rectangle_290" data-name="Rectangle 290" class="cls-3" width="102.441" height="41.261" rx="15" transform="translate(0)"/>
          <path id="Path_1798" data-name="Path 1798" class="cls-3" d="M20.2,16.121,19.919,0H0Z" transform="matrix(1, 0.017, -0.017, 1, 57.062, 38.243)"/>
        </g>
      </g>
      <g id="Group_2130" data-name="Group 2130" transform="translate(625.351 136.452)">
        <g id="Group_2097" data-name="Group 2097" transform="translate(125.239 0) rotate(17)">
          <path id="Path_1790" data-name="Path 1790" class="cls-5" d="M112.869,156.7H0V43.836L56.434,0l56.434,43.836Z" transform="translate(58.703 0) rotate(22)"/>
          <g id="Group_2075" data-name="Group 2075" transform="translate(51.915 76.636)">
            <circle id="Ellipse_12-3" data-name="Ellipse 12" cx="3.375" cy="3.375" r="3.375" transform="translate(0 0)"/>
            <circle id="Ellipse_13-3" data-name="Ellipse 13" cx="3.375" cy="3.375" r="3.375" transform="translate(13.501 3.375)"/>
            <path id="Path_1792-3" data-name="Path 1792" d="M.054.983c-.516,1.522,2.731,4.842,6.414,5.4,3.277.5,7-1.178,7.087-2.7a1.692,1.692,0,0,0-.843-1.35c-1.629-1.053-3.367,1.384-5.906.9C4.2,2.737,3.5-.306,1.461.025A1.782,1.782,0,0,0,.054.983Z" transform="translate(3.321 13.193)"/>
          </g>
        </g>
        <g id="Group_2102" data-name="Group 2102">
          <rect id="Rectangle_290-2" data-name="Rectangle 290" class="cls-3" width="102.441" height="41.261" rx="15"/>
          <path id="Path_1798-2" data-name="Path 1798" class="cls-3" d="M20.2,16.12,19.919,0H0Z" transform="matrix(1, 0.017, -0.017, 1, 59.61, 38.243)"/>
        </g>
      </g>
      <g id="Group_2131" data-name="Group 2131" transform="translate(0 82.5)">
        <g id="Group_2096" data-name="Group 2096" transform="matrix(0.883, -0.469, 0.469, 0.883, 0, 68.285)">
          <path id="Path_1789" data-name="Path 1789" class="cls-6" d="M145.451,215.973C81.375,234.832,15.127,194.33,2.23,132.6-10.109,73.532,29.971,12.169,92.637,0Z"/>
          <g id="Group_2078" data-name="Group 2078" transform="matrix(-0.951, -0.309, 0.309, -0.951, 101.244, 184.658)">
            <ellipse id="Ellipse_12-4" data-name="Ellipse 12" cx="3.375" cy="3.375" rx="3.375" ry="3.375" transform="translate(0 12.915)"/>
            <ellipse id="Ellipse_13-4" data-name="Ellipse 13" cx="3.375" cy="3.375" rx="3.375" ry="3.375" transform="translate(13.501 9.539)"/>
            <path id="Path_1792-4" data-name="Path 1792" d="M.054,5.489C-.461,3.967,2.785.647,6.468.089c3.277-.5,7,1.178,7.087,2.7a1.691,1.691,0,0,1-.843,1.35c-1.629,1.054-3.367-1.384-5.906-.9-2.6.5-3.3,3.539-5.345,3.207A1.783,1.783,0,0,1,.054,5.489Z" transform="translate(3.321 0)"/>
          </g>
        </g>
        <g id="Group_2128" data-name="Group 2128" transform="translate(218.14 93.012)">
          <rect id="Rectangle_290-3" data-name="Rectangle 290" class="cls-3" width="102.441" height="41.261" rx="15"/>
          <path id="Path_1798-3" data-name="Path 1798" class="cls-3" d="M20.2,0l-.281,16.12H0Z" transform="matrix(-1, 0.017, -0.017, -1, 43.113, 54.361)"/>
        </g>
      </g>
    </g>
  </g>
</svg>
