<svg xmlns="http://www.w3.org/2000/svg" width="70.821" height="70.803" viewBox="0 0 70.821 70.803">
  <g id="Group_2150" data-name="Group 2150" transform="translate(-6580.018 -2204.043)">
    <path id="Path_1821" data-name="Path 1821" d="M6618.883,2274.846a7.6,7.6,0,0,1-3.241-1.427,6.153,6.153,0,0,1,.53-9.943.851.851,0,0,0,.445-1c-.414-2.732-.79-5.471-1.18-8.208-.012-.087-.036-.172-.063-.306a14.651,14.651,0,0,1-12.31-6.977c-1.789.758-3.542,1.5-5.3,2.246-1.59.672-3.176,1.353-4.775,2a.769.769,0,0,0-.554.8,6.153,6.153,0,0,1-8.3,5.667,6.174,6.174,0,0,1-2.066-10.4,6.071,6.071,0,0,1,8.3-.025.984.984,0,0,0,.817.2c3.341-1.376,6.667-2.789,10-4.2a1.57,1.57,0,0,0,.231-.153c-1.385-5.652.2-10.411,4.325-14.475l-1.478-2.218c-1.188-1.783-2.387-3.559-3.556-5.355a.8.8,0,0,0-.95-.431,6.211,6.211,0,1,1,4.246-2.738c-.061.1-.118.2-.2.343q1.632,2.448,3.283,4.925c.588.882,1.2,1.748,1.75,2.654.278.461.533.479,1,.282a13.8,13.8,0,0,1,11.332.025,10.44,10.44,0,0,1,1.524.806c.42.273.63.115.906-.209q3.786-4.452,7.6-8.882c1.125-1.313,2.239-2.636,3.381-3.933a.738.738,0,0,0,.145-.956,6.223,6.223,0,0,1,1.164-6.983,6.047,6.047,0,0,1,6.722-1.488,6.394,6.394,0,0,1,3.563,8.012,6.211,6.211,0,0,1-7.481,3.841c-.329-.093-.592-.194-.9.172q-5.642,6.641-11.327,13.245a1.389,1.389,0,0,0-.1.168,14.354,14.354,0,0,1,2.583,14.8c.178.115.325.221.481.309q5.324,3.007,10.646,6.016a.718.718,0,0,0,.914.006,6.135,6.135,0,0,1,9.761,4.028,1.429,1.429,0,0,0,.1.256v1.383a6.82,6.82,0,0,1-2.523,4.295,6.245,6.245,0,0,1-6.832.367,6.143,6.143,0,0,1-3.037-5.859.764.764,0,0,0-.48-.908c-3.556-1.989-7.1-4-10.649-6-.155-.088-.322-.156-.53-.255a14.7,14.7,0,0,1-7.26,4.946c.04.36.064.656.1.95.349,2.486.716,4.968,1.038,7.457a1.063,1.063,0,0,0,.844,1.039,5.865,5.865,0,0,1,4.136,4.668,6,6,0,0,1-2.041,5.907,7.14,7.14,0,0,1-3.344,1.518Z"/>
  </g>
</svg>
