<svg xmlns="http://www.w3.org/2000/svg" width="1920" height="486" viewBox="0 0 1920 486">
  <defs>
    <style>
      .cls-1 {
        fill: #e6d4ff;
      }

      .cls-2, .cls-5 {
        fill: #d3c4eb;
      }

      .cls-2 {
        isolation: isolate;
      }

      .cls-3 {
        fill: #4a0970;
      }

      .cls-4 {
        fill: #3d0b56;
      }
    </style>
  </defs>
  <g id="Group_2158" data-name="Group 2158" transform="translate(0 -334)">
    <g id="Group_2157" data-name="Group 2157">
      <rect id="Rectangle_176" data-name="Rectangle 176" class="cls-1" width="1920" height="418" transform="translate(0 334)"/>
      <path id="Path_1780" data-name="Path 1780" class="cls-2" d="M206.447,1636.311c7.848-5.213,14.265-6.341,18.693-6.4,5.882-.076,8.687,1.733,17.493,1.28,4.648-.239,4.334-.767,10.933-1.28,8.053-.625,9.84.059,15.307-.64,5.194-.663,6.868-1.7,12.39-3.2,14.6-3.959,26.25-3.038,26.24-3.839-.01-.825-12.377-1.047-12.391-1.919-.012-.741,8.934-.137,20.409-3.2,8.437-2.252,9.459-4.142,16.764-5.119,4.359-.583,3.163.2,14.578,0,9.2-.162,12.284-.712,18.951,0,5.034.538,4.447.977,8.017,1.28,12.983,1.1,23.76-4.448,24.054-3.839.2.42-5.348,2.187-5.1,3.2.5,2.073,25-.343,45.191-3.839,4.553-.788,8.021-1.481,10.2-1.919,14.244-2.858,21.366-4.286,28.427-7.038,10.75-4.19,9.6-6.39,17.493-8.318,6.788-1.657,12.061-1.11,21.866,0,12.244,1.386,15.982,3.344,33.529,5.758a60.831,60.831,0,0,0,13.12.64c5.893-.391,6.328-1.354,13.849-2.559,12.148-1.947,15.17-.1,21.137-3.2,4.327-2.247,3.325-3.522,7.289-5.119,5.61-2.259,9.406-.426,18.222-.639a68.971,68.971,0,0,0,13.849-1.92c13.427-2.849,22.34-8.092,22.595-7.678.2.329-5.33,3.71-5.831,3.2-.6-.611,5.613-7.222,13.849-12.156a64.994,64.994,0,0,1,16.764-7.038c.028.056-6.6,2.467-6.56,2.559A48.119,48.119,0,0,0,696,1555.694c4.322-3.026,4.523-4.415,8.747-6.4,2.189-1.027,8.71-4.088,13.849-1.919,2.018.852,1.626,1.583,5.831,4.479,1.985,1.367,2.79,1.7,6.56,3.838,5.21,2.959,7.815,4.439,9.475,5.759,3.9,3.1,3.335,4.461,6.56,7.678,6.055,6.04,10.97,4.163,16.035,8.957,5.009,4.74,1.808,8.092,5.831,14.716,6.783,11.166,24.063,15.11,24.782,14.076.569-.817-8.079-6.333-8.017-6.4.109-.117,25.83,18.968,27.7,17.275.908-.824-5.136-5.367-3.644-7.678,2.271-3.518,21.426-.968,29.155,8.317.965,1.16,1.467,2.082,4.373,5.759,4.508,5.7,6.762,8.555,8.747,9.6,5.662,2.973,12.7,1.389,16.035.64,5.315-1.2,4.493-2.4,10.205-3.839,4.117-1.036,8.632-1.132,17.493-1.28,4.6-.077,6.9-.115,8.746,0a98.1,98.1,0,0,1,18.222,3.2c4.66,1.16,5.188,1.525,8.018,1.92,3.343.466,4.149.172,10.2.64,4.06.313,4.3.492,7.288.639a78.646,78.646,0,0,0,8.018,0c7.053-.413,9.941-2.755,18.222-5.118a109.253,109.253,0,0,1,13.12-2.559c7.562-1.217,13.725-1.761,26.24-2.56,21.313-1.359,18.467-.739,22.6-1.279,9.733-1.274,21.309-5.541,44.462-14.076,3.125-1.152,8.518-3.168,15.306-6.4,4.642-2.209,8-4.065,8.747-4.479,12.1-6.718,13.106-9.929,21.866-14.716a75.021,75.021,0,0,1,18.951-7.038c9.84-2.229,12.537-.758,22.6-3.839,5.439-1.666,8.867-2.715,13.119-5.118s4.876-3.644,7.289-3.839c4.849-.392,7.546,4.189,13.849,8.317,3.966,2.6,8.475,3.865,17.493,6.4,11.622,3.265,14.838,2.768,29.884,5.758,17.749,3.527,16.37,4.833,25.511,5.758,16.638,1.685,29.79-1.772,29.884-1.279.1.542-16.144,3.26-16.035,3.839.086.456,10.235-.947,24.782-1.28,8.273-.19,12.467-.266,15.307.64,10.232,3.263,9.207,10.506,18.222,12.8,6.821,1.733,9.132-1.977,19.679,0a47.814,47.814,0,0,1,10.2,3.2c7.984,3.392,9.2,6.179,13.848,8.318,6.475,2.977,13.4,1.6,26.969-1.28,2.391-.507,9.2-2,26.24-7.678,19.5-6.491,21.732-8.239,29.155-8.317a55.068,55.068,0,0,1,20.409,3.839c8.271,3.462,8.094,6.276,16.035,8.957,8.6,2.9,16.661,2.256,20.409,1.919,4.162-.373,7.877-1.315,15.306-3.2,10.136-2.569,12.064-3.842,16.765-3.839a29.471,29.471,0,0,1,14.107,3.839v254.647l-1370.3-3.2Z" transform="translate(4.553 -1046.005)"/>
      <g id="Group_2049" data-name="Group 2049" transform="translate(0.422 378)">
        <g id="Group_2046" data-name="Group 2046" transform="translate(0 71.119)">
          <path id="Path_1774" data-name="Path 1774" class="cls-3" d="M719.638,1792.489c-4.369.265-15.255,1.427-26.685-4.16-17.77-8.684-16.633-23.8-30-27.244-14.631-3.776-21.749,12.858-41.361,9.958-11.962-1.769-11.322-8.254-22.213-9.958-23.066-3.61-36.183,23.873-52.085,18.383-8.144-2.812-5.452-10.28-22.213-24.511-7.464-6.337-14.653-12.279-22.213-10.723-7.97,1.64-10.922,10.5-15.319,9.192-3.821-1.137-2.121-7.986-7.567-13.737-4.34-4.584-12.414-7.62-18.475-5.412-10.2,3.714-9.711,20.775-16.085,20.68-3.394-.05-4.218-4.519-14.554-12.255-3.44-2.575-5.21-3.877-7.659-4.6-6.17-1.81-9.972,1.1-16.085,1.532-4.211.3-10.158-.536-17.647-5.614-.51-.02-.98-.05-1.39-.08-8.54-.59-13.83-.96-17.59-4.97-4.83-5.15-6.54-15.65-6.63-20.07,0,0-.11-5.6-2.27-8.49-.04-.06-1.24-1.65-1.24-1.65s-.06-.29-.16-.85-.26-1.39-.46-2.47c.28.13.71.32,1.24.56a9.685,9.685,0,0,0,1.79.75c.99.24,2.04.09,2.07-.13.04-.26-1.35-.61-1.31-.76.04-.17,1.69.12,1.79.14,1.8.31,2.32.62,3.45.55.09-.01,1.34-.1,1.38-.42.03-.24-.68-.54-1.38-.82-.9-.38-1.01-.28-1.52-.56a3.37,3.37,0,0,1-.62-.43,4.548,4.548,0,0,0,1.94-.53,12.676,12.676,0,0,0,1.23-.69,8.367,8.367,0,0,0-1.65-1.04,18.007,18.007,0,0,0-2.34-.55c-2.66-.61-1.26-.36-2.69-.69a3.23,3.23,0,0,1-1.52-.55,2.6,2.6,0,0,1-.83-1.31,9.788,9.788,0,0,1-.07-1.52c-.03-.77-.07-.83,0-.89.33-.31,1.44.43,3.45.96.27.07.57.14.69,0,.14-.16.01-.57-.18-.93.77-.07,2.05-.71,2.11-1.41.07-.84-1.64-1.69-2.69-2.21a9.974,9.974,0,0,1-2-1.04c-.61-.45-1.26-.95-1.31-1.72-.03-.44.14-1.09.48-1.17.55-.14.85,1.3,2.42,2.48a14.342,14.342,0,0,0,2.41,1.17,6.376,6.376,0,0,0,2.9.76c.5-.02,1.01-.04,1.17-.34.37-.72-1.52-2.37-1.65-2.49-.79-.67-.98-.58-2.14-1.51a13.65,13.65,0,0,1-1.45-1.32c-.84-.88-.79-1.1-1.52-1.79-.67-.63-.83-.56-1.45-1.17-.11-.11-1.44-1.44-1.17-1.86.26-.4,1.79.14,2.55.41a21.823,21.823,0,0,1,2.28,1.03,31.6,31.6,0,0,0,2.9,1.32c1.7.63,2.27.57,2.69.41.11-.04.9-.34,1.03-.97.1-.47-.32-.96-1.17-1.93a7.811,7.811,0,0,0-1.73-1.65,8.746,8.746,0,0,0-2.07-.83,33.035,33.035,0,0,1-3.38-1.45,7.445,7.445,0,0,1-1.86-1.17,2.9,2.9,0,0,1-1.1-2.14,2.385,2.385,0,0,1,.83-1.59c.52-.42,1.15-.51,3.51-.34,2.6.18,3.65.42,3.94-.07.22-.39-.19-1-.21-1.04-.81-1.17-3.03-.74-3.1-1.24-.04-.21.36-.27.68-.83.06-.09.54-.89.28-1.38-.31-.59-1.42-.14-3.31-.75a4.077,4.077,0,0,1-1.45-.69,5.143,5.143,0,0,1-1.38-2.76,4.117,4.117,0,0,1-.34-2.07,2.526,2.526,0,0,1,2.2-1.93c.92.02,1.05.91,2.35,1.65,1.67.95,3.86.84,4.07.28.2-.51-1.22-1.5-1.45-1.66-1.16-.8-1.84-.71-3.66-1.72-.89-.5-1.15-.76-1.31-1.11-.3-.68.1-1.09.14-2.07.07-1.82-1.22-3.03-.89-3.31.21-.18.89.27,1.1.42,1.59,1.07,1.5,2.18,2.76,3.17.84.66,2.27,1.25,3.03.69a1.733,1.733,0,0,0,.49-1.79c-.35-1.17-1.71-.94-3.18-2.35-1.3-1.26-.7-1.91-2.14-3.24-1.07-1-1.83-1.03-2.2-2-.33-.85-.19-1.95.27-2.14.48-.2.94.72,2.21,1.38,1.7.89,3.82.79,4,.28.1-.26-.51-.78-1.72-1.8a18.742,18.742,0,0,1-2.42-2.07c-.74-.87-1.3-1.9-1.03-2.2.12-.15.35-.02.83-.21a1.386,1.386,0,0,0,.69-.48c.22-.46-.52-1.02-1.73-2.76a10.238,10.238,0,0,0-1.1-1.59c-.27-.26-.53-.46-.72-.64-.17,1.19-.29,2.12-.39,2.85-.07.57-.12,1.02-.48,1.31-.83.68-2.23-.37-2.69.14-.43.47.23,2.06.86,2.62a4.973,4.973,0,0,1-1.83,1.45c-.95.41-1.79.36-1.79.48a7.609,7.609,0,0,0,2.83.21c2.44-.1,3.81-.64,3.93-.35.1.23-.69.69-2.21,1.93-1.35,1.11-2.68,2.2-2.48,2.62.23.49,2.31-.4,2.55.07.25.5-1.54,2.48-3.79,2.76a16.365,16.365,0,0,1-2.42-.14c-.04.15.98.54,2.83,1.45,1.71.84,2,1.07,2.21,1.45a2.546,2.546,0,0,1-.14,2.62c-.5.68-1.3.85-2.83,1.17s-2.12.2-2.27.56c-.33.76,2.1,2.28,1.86,2.69-.26.44-3.16-1.15-3.52-.62-.24.35.6,1.69,1.8,2.07.8.25,1.09-.16,2.62,0,1.01.1,1.19.3,1.58.13,1.04-.45.99-2.41,1.18-2.41.16.02-.08,1.58.13,3.79.06.64.11.81,0,1.11a2.275,2.275,0,0,1-1.36,1.19,11.061,11.061,0,0,1-4.02.32c-2.23-.27-3.07-1.23-3.93-.69a2.039,2.039,0,0,0-.55,2.63c.63.62,2.14-.48,3.1.34.45.38.34.79.79,1.03a.142.142,0,0,0,.06.02c-1.56.49-3.68.97-5.26.4-.22-.08-.83-.32-.97-.14-.16.22.38,1.04,1.04,1.52.95.68,1.95.51,4.83.34,2.2-.12,3.31-.19,3.38,0,.18.52-2.44,1.82-4.82,2.49a4.073,4.073,0,0,1,1.37,1.17c.31.43.46.88.87.96-1.11.91-2.6,1.89-3.77,1.45a4.239,4.239,0,0,0-2.21-.48c-.25.03-.59.07-.62.21-.05.28,1.35.59,5.04,1.79.68.23,2.83.93,3.31.28a1.905,1.905,0,0,1,.55-.62c.16-.12.43-.3.61-.25.52.17.84,2.53-.33,3.77a3.719,3.719,0,0,1-2.14.89c-1.46.3-1.95-.02-3.86.14-1.23.1-2.4.2-2.49.62-.11.54,1.54,1.58,3.31,1.93,2.18.43,3.77-.34,3.94.07.14.34-.8,1.23-1.87,1.66-.97.39-1.54.19-3.52.62-.77.17-1.16.25-1.17.34-.01.42,4.33,1.58,7.73.14a6.087,6.087,0,0,1,.96-.41,10.086,10.086,0,0,1-4.47,2.53c1.36-.14,2.76-.1,3.09.57a.724.724,0,0,1,.07.41c-.04,1.1-1.73,2.04-3.59,2.57,1.84-.2,3.84-.28,4.01.26.13.41-.79,1.07-1.8,1.8a12.682,12.682,0,0,1-2.55,1.38,10.925,10.925,0,0,1-2.96.89,13.927,13.927,0,0,1-1.8.07c-2.83.09-3.1.72-4.55.48-1.1-.18-2.74-.84-3.04-2-.27-1.06.77-1.91.42-2.34-.5-.61-2.56,1.13-3.9.31-.54-.33-.3-.68-1.55-2.59-.5-.75-.72-.98-.62-1.24.19-.52,1.43-.71,2.53-.42-.74-.64-1.34-1.31-1.19-1.65.23-.5,2.06-.19,2.07-.31,0-.14-2.58-.01-3.21-1.24a1.707,1.707,0,0,1,.52-2.07,1.362,1.362,0,0,1,1.18.11,17.971,17.971,0,0,0-1.66-1.32c.6-.25,1.45-.62,2.65-1.17,1.66-.75,2.1-.97,2.07-1.24-.04-.46-1.33-.75-2.58-1.04a9.626,9.626,0,0,1-2.18-.51,2.94,2.94,0,0,1-1.65-1.45c-.1-.23-.38-.91-.1-1.24.65-.8,3.7,1.2,4.13.62.29-.38-.61-1.8-1.86-2.69-1.3-.93-2-.59-2.79-1.56a3.538,3.538,0,0,1-.83-2.38c.05-.68.34-.91.21-1.44s-.49-.65-1.24-1.35c-.87-.8-1.7-1.56-1.56-2.17.14-.58,1.03-.51,1.14-1.04.14-.64-1.14-.95-2.07-2.38-.7-1.08-.29-1.41-1.14-2.79-.43-.72-.56-.65-1.34-1.76a24.659,24.659,0,0,1-1.35-2.17c-.99-1.77-1.46-3-1.55-3-.11.04,1.72,2.74,1.35,5.89-.34,2.8-2.26,4.74-1.76,5.18.4.35,1.66-.87,2.07-.52.48.42-.49,2.89-2.38,4.66-1.17,1.09-2.24,1.5-2.18,1.65.17.39,7.11-2.89,7.66-1.96.39.65-2.11,3.79-5.28,4.86-.37.13-1.37.43-1.34.62.05.31,2.71-.28,3.1.52.51,1.02-3.26,3.42-2.69,4.65.29.63,1.43.43,1.55.94.24.94-3.56,2.5-3.41,2.89s4.2-.81,4.35-.41c.13.35-3.03,1.23-3.21,3-.1,1,.85,1.27,1.03,2.59.28,2.03-1.58,4.38-2.79,4.24-.38-.05-.84-.62-1.76-1.76-.62-.77-.75-1.04-1.34-1.76,0,0-.61-.73-1.45-1.55-1.7-1.65-4.1-2.79-6-4.24-1.43-1.1-4.55-3.49-4.87-6.83-.15-1.65.52-1.88.31-4.25a27.282,27.282,0,0,0-1.03-4.65c-.62-2.29-.91-2.86-.62-3.83a8.249,8.249,0,0,0,.72-2.17,4.659,4.659,0,0,0-.31-1.97,9.551,9.551,0,0,0-3.29-4.41,11.178,11.178,0,0,0-1.57-3.04c-.8-1.06-1.59-1.66-1.96-3.08-.01.68-.04,1.45-.11,2.25-.29,2.97-.87,2.77-.83,4.87.03,1.64.4,2.67-.1,4.34-.1.32-.29.88-.52,1.45-.7,1.77-1.25,2.47-1.03,2.69.32.33,2.02-.92,2.17-.72.17.22-1.98,1.87-1.66,2.48.21.4,1.26-.08,1.66.41.45.57-.09,2.19-1.23,3.01-1.31.95-2.4.08-3.53.93-1.37,1.02-1.61,3.69-.73,4.34,1.03.76,3.23-1.42,3.83-.83s-.51,3.56-2.69,4.47c-1.98.83-4.31-.26-4.34-.12-.05.17,3.68,1.08,3.62,1.86-.04.41-1.1.62-1.06.77.06.23,2.56-.69,3.13.06s-.72,3.24-2.28,3.41a2.557,2.557,0,0,1-1.55-.51c-1.34-.73-2.71-1.41-4.04-2.18-2.51-1.44-3.15-1.66-3.93-2.69a5.11,5.11,0,0,1-.83-1.44c-.68-1.97.51-3.08.11-4.76a5.172,5.172,0,0,0-2.38-2.8c-1.54-1.12-2.01-.64-6.11-2.07-1.53-.53-2-.78-2.58-.51-1.14.52-1.72,2.57-1.14,4.03.5,1.27,1.62,1.42,1.55,2.17-.08.9-1.77,1.87-3.1,1.45-1.4-.44-1.76-2.19-1.87-2.69a6.709,6.709,0,0,1,.11-2.48,11.072,11.072,0,0,0-.52-4.66c-.29-.82-.58-1.11-4.35-5.07-2.33-2.45-2.36-2.49-2.58-2.69a51.363,51.363,0,0,0-5.28-3.93c-2.68-1.91-4.02-2.88-4.35-3.52-.98-1.94-.54-4.17-.1-6.41.58-2.94,1.27-2.83,1.14-4.35-.23-2.59-2.28-3.06-2.48-6.1a7.1,7.1,0,0,1,.41-2.9,6.911,6.911,0,0,1,1.45-2.28c2.76-2.98,5.63-2.36,6.83-4.55.81-1.49.28-3.27-.31-5.28-.94-3.14-2.44-3.5-2.49-6-.03-1.54.52-2.66-.2-3.41-.35-.36-.82-.48-1.87-.52a23.07,23.07,0,0,0-7.03.93s-1.57-1.92-1.57-3.12a.906.906,0,0,1,.12-.5c.27-.44.82-.33.93-.72.14-.51-.71-.88-1.24-1.76-.59-.97-.14-1.45-.42-3.21-.27-1.71-.75-1.6-1.24-3.73-.33-1.44-.12-1.56-.51-3-.15-.55-.77-2.82-1.45-2.79-.24.01-.4.29-.52.52-1.01,1.92-.28,3.37-.93,4.86-.86,1.93-3.26,2.13-3.11,3.1.12.69,1.31.57,1.66,1.45.44,1.11-1.19,1.9-1.35,3.93-.09,1.24.48,1.37.63,3.21a5.64,5.64,0,0,1-.32,3.21c-1.33,2.15-6.77,1.02-16.14-.93a13.555,13.555,0,0,1-2.17-.62c-2.12-.82-2.98-1.81-4.97-3.21a29.5,29.5,0,0,0-5.07-2.9c-2.66-1.17-3.64-1.08-4.96-2.38-1.35-1.32-1.46-2.53-2.07-2.48-1.05.09-.7,3.67-3.31,6.1a3.684,3.684,0,0,1-2.59,1.25c-.97-.06-1.35-.73-1.86-.52-.97.39-.11,2.95-1.24,3.72-.84.58-2.56.03-3.42-1.03-.99-1.22-.2-2.31-.31-5.28-.15-4.03-1.73-5.66-.83-8.17a3.87,3.87,0,0,1,1.45-2.07c.87-.56,1.5-.29,1.76-.73.57-.94-2.05-2.58-1.65-4.34.25-1.15,1.49-1.04,2.17-2.59a4.833,4.833,0,0,0,.1-3.21c-.72-2.49-2.95-3.03-2.69-4.55a5.613,5.613,0,0,1,1.04-1.96s-.05-2.69-.14-7.86-.22-12.83-.38-22.77q-.885,10.905-1.76,21.83a7.566,7.566,0,0,1-2.07,2.69c-1.97,1.59-3.59,1.09-4.04,2.17-.27.68.22,1.22,3.21,6,.08.14,1.17,1.87,1.24,1.87a15.55,15.55,0,0,1-1.24-2.8,6.314,6.314,0,0,1-.31-3.31c.32-1.38,1.38-3.04,2.07-2.9,1.41.3,2.39,8.14-.83,10.66a31.586,31.586,0,0,0-3.31,2.28c-1.29,1.1-2.06,1.77-1.96,2.48.19,1.47,3.82,1.69,3.82,2.69,0,1.06-4.03,1.41-4.03,2.49,0,.69,1.7,1.63,3.21,1.24a3,3,0,0,0,1.55-1.04q.105,10.875.21,21.73c-6.1-2.68-7.91-4.38-8.28-5.48a24.947,24.947,0,0,0-1.04-2.59,6.937,6.937,0,0,0-.82-1.55c-1.14-1.1-2.64-.08-4.14-1.14-.74-.52-1.38-1.46-1.14-1.97.34-.74,2.51-.45,3.86-.27,1.57.21,2.84.59,2.96.59-.28-.19-6.65-1.89-6.51-2.9.09-.72,3.43-.64,3.52-1.45.08-.76-2.81-.96-3.52-2.9-.43-1.17.4-1.73-.1-3.21-.51-1.45-1.62-1.78-1.45-2.48.24-1.03,2.86-.97,2.89-1.55.05-.77-4.48-1.29-4.55-2.48-.05-.86,2.27-1.09,2.48-2.38.2-1.22-1.57-2.79-2.74-3.31a2.9,2.9,0,0,0,.16-2.28c-.89-1.74-5.37-1.15-5.38-1.45,0-.28,4.09-.08,4.86-1.86a3.906,3.906,0,0,0,0-1.66,9.6,9.6,0,0,0-.83-3.41c-.6-1.28-.93-1.03-1.55-2.28-.86-1.71-.31-2.31-1.03-3.21-1.16-1.43-3.45-1.01-3.52-1.65-.07-.59,1.88-.8,2.07-1.76.22-1.13-2.3-1.75-4.04-4.04-2.22-2.93-1.53-6.49-2.17-6.52-.77-.03-1.5,5.11-1.76,5.07-.33-.04,1.16-8.14.31-8.38-.99-.27-5.53,9.93-3.1,11.9.83.68,1.89-.09,2.58.62,1.77,1.83-3.48,8.64-2.07,9.94.86.79,3.55-1.06,3.83-.62.46.69-6.35,5.54-5.79,6.51.46.81,5.64-1.52,6-.82.31.61-3.78,2.28-5.59,6.52-.7,1.64-1.29,4.23-.21,5.17,1.1.95,3.31-.28,3.63.31.46.86-4.15,3.52-3.63,5.07.43,1.26,3.94.84,4.04,1.55.14,1-6.73,2.62-6.62,3.11.08.36,3.88-.59,4.14.1.3.8-4.01,4.07-6.31,2.9-.92-.47-1.01-1.37-1.56-2.49-2.22-4.53-8.69-5.85-10.96-6.31-4.06-.82-3.78.45-9.01-.41-4.01-.67-4.52-1.48-8.17-1.66a35.055,35.055,0,0,0-6.93.42c-1.84.29-1.57.4-2.59.51-4.91.54-7.4-2.37-9.62-1.03-.51.3-.86.96-1.56,2.28-1.47,2.76-.79,3.7-2.06,6.51-.97,2.14-2.08,3.17-1.66,3.73.46.62,1.98-.45,3,.31.21.15.75.64.62,4.34-.09,2.62-.13,3.93-.62,4.66-1.25,1.87-3.64,1.87-3.72,3.21-.05.73.64.95.51,1.45-.36,1.44-6.37.04-7.55,2.17-.91,1.64,1.83,3.99.93,5.38-.7,1.09-2.82.3-5.9.21-6.26-.2-11.69,2.62-16.04,4.86-1.2.63-1.7.95-4.24,2.28a54.956,54.956,0,0,1-7.24,3.31s-.95.34-1.86.62c-12.9,3.96-22.15-1.04-22.15-1.04-1.5-.81-.53-.53-6.83-4.96-7.15-5.04-8.48-5.46-9.31-4.97-1.69,1,.28,4.85-1.24,10.56a19.307,19.307,0,0,1-3.58,7.03v194.99h389.06l582.155.58C866.574,1814.55,753.854,1790.421,719.638,1792.489Z" transform="translate(-0.421 -1523.973)"/>
          <path id="Path_1775" data-name="Path 1775" class="cls-3" d="M1459.553,1824.66l-487.917-.486C1069.109,1833.1,1241.062,1836.973,1459.553,1824.66Z" transform="translate(-0.421 -1523.973)"/>
          <path id="Path_1776" data-name="Path 1776" class="cls-3" d="M971.636,1824.174h0Z" transform="translate(-0.421 -1523.973)"/>
          <path id="Path_1777" data-name="Path 1777" class="cls-3" d="M1913.366,1576.372a6.106,6.106,0,0,0-1.856,4.43.6.6,0,0,0-.3-.5c-.844-.38-2.622,2.08-4.829,1.87a4.53,4.53,0,0,1-2.713-1.69c-1.259-1.36-1.324-2.66-1.584-2.66-.441.03.766,3.6-1.61,6-1.077,1.08-3,2.03-4.3,1.66-1.1-.32-.869-1.3-1.882-1.66-2.233-.78-6.153,3-6.984,2.48-.415-.25.259-1.32.259-1.43-.155-.06-4.452,6.84-3.219,7.44a1.419,1.419,0,0,0,.987-.17c-1.234,1.05-2.661,2.37-3.947,3.68-1.687,1.75-2.129,2.47-1.869,2.69a.909.909,0,0,0,.662.04,10.269,10.269,0,0,0-4.154,2.65,6.363,6.363,0,0,0-1.363,5,13.622,13.622,0,0,1-2.675,2.45c-1.259.87-2.206,1.54-3.414,1.45-1.467-.1-1.467-1.2-3.842-2.07-1.428-.52-2.012-.33-3.22-1.03-.584-.34-1.454-.84-1.609-1.66-.195-.98.778-1.81,1.077-2.07.961-.82,1.662-.63,2.687-1.44a4.756,4.756,0,0,0,1.337-1.87,6.548,6.548,0,0,0,.8-3.31c-.312-2.36-3.687-4.17-5.193-4.77h-.012a23.019,23.019,0,0,0-3.921-2.47,15.749,15.749,0,0,0-6.452-1.86,20.151,20.151,0,0,0-4.037.41c-1.584.24-4.362.69-6.322,1.02a3.228,3.228,0,0,0,.96-.61c.364-.35.87-1.07.533-1.44-.481-.53-2.22.12-8.062,1.24a16.015,16.015,0,0,0-2.687.62,12.2,12.2,0,0,0-4.025,2.27c-1.687,1.49-1.427,2.29-2.414,2.49-1.234.24-1.753-.97-4.57-1.87-2.167-.68-2.8-.27-4.037-1.03-1.35-.84-.935-1.58-2.142-2.48-1.3-.97-2.557-.71-5.375-1.24-1.44-.28-1.012-.33-6.451-2.07-5.089-1.64-6.167-1.83-7.257-1.45-1.48.51-1.13,1.42-2.674,2.07-2.3.95-5.751.09-7.8-1.25-1.039-.67-.714-.82-3.492-3.72a12.868,12.868,0,0,0-2.947-2.69c-2.142-.95-3.362.02-6.452-.83-1.947-.54-1.6-.96-3.765-1.65-1.856-.6-3.505-.68-6.711-.83a28.811,28.811,0,0,0-5.648,0c-3.31.57-3.414,1.86-6.438,2.69-3.272.9-6.4.28-9.944-.41-3.389-.67-3.012-1.11-7.517-2.07-3.245-.69-4.18-.62-5.919-1.45-1.805-.87-1.623-1.34-4.3-3.11-2.48-1.65-3.726-2.47-5.375-2.69-2.687-.35-3.842.94-6.179.21-1.142-.36-1.091-.74-2.687-1.66-2.116-1.22-3.168-1.07-5.907-2.07a20.565,20.565,0,0,1-6.179-3.31c-1.337-1.08-2.83-2.3-3.219-4.14-.286-1.31.259-1.68-.273-2.48-.546-.83-1.6-1.15-5.907-2.07-3.791-.81-5.686-1.21-7.257-1.45-3.414-.5-3.79-.32-5.374-.82-2.661-.85-2.493-1.64-4.83-2.49-3.946-1.43-7.763-.38-8.061-1.24-.13-.35.519-.56,1.61-1.86.818-.97,1.544-2.17,1.35-2.28-.377-.21-2.817,3.97-7.53,4.76a45.371,45.371,0,0,1-4.829.21c-1.181.02-2.233.01-4.31,0-5.634-.04-6.114-.13-6.711-.42-1.688-.81-1.026-1.68-2.947-2.89-1.155-.72-1.947-.77-5.647-1.66-2.7-.65-1.584-.45-4.842-1.24-12.5-3.02-18.746-4.53-24.977-5.38-11.541-1.57-12.281.02-18.265-2.07-3.973-1.38-5.933-2.87-11.295-3.93-2.219-.44-4.322-.67-8.593-1.66-2.636-.61-2.7-.72-5.1-1.24-2.3-.49-2.843-.52-8.322-1.45-5.088-.86-5.218-.94-5.919-.83-4.622.74-6.595,5.5-6.712,5.8-.1.26-1.376,3.6.273,6a19.715,19.715,0,0,0,1.61,2.07c.922,1.01,1.324,1.19,1.609,1.86a3.878,3.878,0,0,1,0,2.28,27.842,27.842,0,0,1-.532,2.9,26.494,26.494,0,0,0-.779,4.6,11.025,11.025,0,0,0-2.985,7.81,10.574,10.574,0,0,0,1.337,4.56c1.492,2.67,3.92,4.44,3.764,4.55-.142.09-1.843-1.27-1.882-1.24,0,.06,2.856,2.31,5.647,4.76,3.038,2.68,4.556,4.02,5.634,5.58.857,1.24,1.467,3.24,2.687,7.25a87.983,87.983,0,0,1,2.428,8.48c.1,1.63-.026,3.03,1.064,3.52,1.208.54,2.467-.66,4.57-.83,4.063-.33,8.178,3.42,9.944,6.42,1.519,2.6,2.6,6.9.259,8.27-1.869,1.11-4.932-.29-6.166,1.04-.311.33-.156.45-.545,2.9a11.4,11.4,0,0,1-.532,2.48,7.193,7.193,0,0,1-2.688,2.69c-3.79,2.76-5.335,5.93-5.647,5.79-.246-.11,1.467-1.93.8-2.48-1.012-.85-8.009,1.05-9.931,4.76-.506.96-.61,1.95-1.882,2.9-1.22.91-1.921.59-3.765,1.45a13.554,13.554,0,0,0-4.829,3.93c-.013,0-1.636.3-4.154.68s-5.959.84-9.555,1.18a55.72,55.72,0,0,1-6.179.41c-3.855-.09-5.647-.82-6.711,0-1.156.91.441,2.2-.545,3.94-1.351,2.41-5.531,1.9-6.44,3.93-.9,1.97,2.7,3.27,1.883,5.17-.857,1.99-5.167,1.52-9.412,4.97-.727.6-1.856,1.63-1.61,1.86.065.06.234.06.468.01a18.351,18.351,0,0,0-3.155,2.47,15.167,15.167,0,0,0-2.947,4.56c-2.96,5.98-.908,7.38-3.764,10.55-1.247,1.38-2.623,2.21-4.038,4.55a16.767,16.767,0,0,0-1.337,2.9c-1.571,4.48-1.623,10.38-1.61,12.21a95.874,95.874,0,0,1-32.506,14.9,107.021,107.021,0,0,1-10.8,2.15v90.6H1920v-226.02C1917.7,1574.952,1914.989,1575.052,1913.366,1576.372Z" transform="translate(-0.421 -1523.973)"/>
        </g>
        <g id="Group_2048" data-name="Group 2048" transform="translate(383.507 226.296)">
          <g id="Group_2047" data-name="Group 2047">
            <path id="Path_1779" data-name="Path 1779" class="cls-3" d="M383.928,1693.314c.031-.223.057-.447.093-.669a4.282,4.282,0,0,1,2.1-3.158c2.055-1.215,4.123-2.408,6.184-3.613q5.322-3.114,10.647-6.225a7.557,7.557,0,0,1,1.076-.452.846.846,0,0,1,.306-.041c.781,0,1.563.006,2.344-.006a1.857,1.857,0,0,1,.927.264c.7.385,1.392.788,2.082,1.193q6.378,3.744,12.755,7.492c.556.326,1.114.647,1.664.983a4.982,4.982,0,0,1,2.445,3.5,5.081,5.081,0,0,1,.059.873c0,2.2,0,4.4.005,6.6a.338.338,0,0,1-.192.34q-3.644,2.1-7.281,4.212c-.05.029-.1.053-.194.1v-.252c0-2.116.012-4.232,0-6.347a4.84,4.84,0,0,0-2.444-4.345q-4.324-2.636-8.668-5.241a4.979,4.979,0,0,0-2.323-.657,5.227,5.227,0,0,0-3.006.787c-2.757,1.624-5.534,3.216-8.294,4.836a5.01,5.01,0,0,0-2.549,3.814,5.782,5.782,0,0,0-.035.779q0,4.893,0,9.784a4.968,4.968,0,0,0,1.7,3.9,7.765,7.765,0,0,0,1.12.775q4.146,2.519,8.3,5.016a5.026,5.026,0,0,0,2.3.662,5.275,5.275,0,0,0,3.14-.852q5.342-3.239,10.712-6.425c1.449-.858,2.937-1.652,4.419-2.452,3.03-1.635,5.981-3.405,8.946-5.152,1.911-1.126,3.818-2.259,5.735-3.374a5.148,5.148,0,0,1,1.979-.616,5.4,5.4,0,0,1,3.48.875c3.781,2.22,7.58,4.409,11.372,6.61,1.48.858,2.966,1.706,4.438,2.579a4.938,4.938,0,0,1,2.47,3.481,5.229,5.229,0,0,1,.068.912q0,9.6,0,19.2a4.867,4.867,0,0,1-2.648,4.44q-6.184,3.576-12.357,7.169c-1.238.718-2.471,1.444-3.717,2.148a8.412,8.412,0,0,1-1.072.462,1.09,1.09,0,0,1-.383.056c-.663.005-1.329-.025-1.991.01a2.766,2.766,0,0,1-1.573-.427q-4.128-2.391-8.255-4.788c-2.706-1.57-5.417-3.132-8.115-4.716a4.942,4.942,0,0,1-2.5-3.737,5.174,5.174,0,0,1-.025-.683q0-3.172,0-6.347a.343.343,0,0,1,.189-.344q3.635-2.1,7.264-4.2c.054-.031.111-.059.206-.11v.261c0,1.966,0,3.932,0,5.9a5.647,5.647,0,0,0,.239,1.788,4.972,4.972,0,0,0,2.286,2.834q4.3,2.5,8.607,5a5.286,5.286,0,0,0,5.345-.153c2.678-1.617,5.377-3.2,8.062-4.808a5.045,5.045,0,0,0,2.48-3.393,4.425,4.425,0,0,0,.1-.888c.007-3.463.034-6.927-.008-10.389a4.63,4.63,0,0,0-2.309-4.083c-2.274-1.381-4.592-2.688-6.892-4.026-.573-.334-1.148-.665-1.72-1a5.478,5.478,0,0,0-2.785-.768,4.705,4.705,0,0,0-2.442.638q-6,3.495-12.01,6.988-5.407,3.142-10.821,6.275c-2.358,1.368-4.709,2.747-7.068,4.112a5.365,5.365,0,0,1-2.18.678,5.3,5.3,0,0,1-3.281-.829q-7.641-4.462-15.306-8.889a7.123,7.123,0,0,1-1.9-1.412,4.807,4.807,0,0,1-1.235-2.966,2,2,0,0,0-.049-.263Z" transform="translate(-383.928 -1679.15)"/>
          </g>
        </g>
        <g id="Group_2109" data-name="Group 2109" transform="translate(-3.926 -1455.656)">
          <path id="Path_1802" data-name="Path 1802" class="cls-3" d="M1590.259,1522.615c-18.68,5.5-37.992-6.309-41.752-24.3-3.6-17.218,8.088-35.106,26.355-38.654Z"/>
          <g id="Group_2108" data-name="Group 2108">
            <circle id="Ellipse_42" data-name="Ellipse 42" class="cls-1" cx="1.677" cy="1.677" r="1.677" transform="translate(1558.676 1478.414)"/>
            <circle id="Ellipse_43" data-name="Ellipse 43" class="cls-1" cx="1.677" cy="1.677" r="1.677" transform="translate(1565.383 1480.091)"/>
            <path id="Path_1803" data-name="Path 1803" class="cls-1" d="M1560.353,1485.456c-.257.757,1.356,2.406,3.186,2.683,1.628.247,3.479-.585,3.521-1.341a.842.842,0,0,0-.419-.671c-.81-.523-1.673.687-2.935.447-1.294-.246-1.639-1.758-2.655-1.593A.886.886,0,0,0,1560.353,1485.456Z"/>
          </g>
          <path id="Path_1804" data-name="Path 1804" class="cls-3" d="M1568.167,1511.128c-.571-.26-3.453,3.667-4.868,8.68-.184.651-.289,1.129-.322,1.28-1.276,5.91.384,11.788,1.088,11.742.538-.035.067-3.514,1.276-10.213C1566.677,1515.219,1568.711,1511.376,1568.167,1511.128Z"/>
          <path id="Path_1805" data-name="Path 1805" class="cls-3" d="M1571.285,1513.653c-.622.079-1.006,4.935.427,9.943.186.65.349,1.112.4,1.257,2.025,5.7,6.529,9.823,7.1,9.413.44-.313-1.792-3.023-4.288-9.356C1572.17,1517.916,1571.878,1513.577,1571.285,1513.653Z"/>
          <path id="Path_1806" data-name="Path 1806" class="cls-3" d="M1541.508,1499.63c-.153,1.844,5.386,3.938,8.681,4.868.65.184,1.128.289,1.279.322,6.217,1.342,11.8-.752,11.742-1.087-.037-.229-2.682.434-7.631-.052a20.543,20.543,0,0,1-3.49-.511c-1.454-.388-5.361-1.431-8.085-3.7-.344-.287-1.178-1.017-1.829-.766A1.155,1.155,0,0,0,1541.508,1499.63Z"/>
        </g>
      </g>
      <g id="Group_2052" data-name="Group 2052" transform="translate(0.422 559.1)">
        <g id="Group_2045" data-name="Group 2045">
          <g id="Group_2039" data-name="Group 2039">
            <path id="Path_1755" data-name="Path 1755" class="cls-4" d="M593.095,1703.882c-.088-.29-1.009-.431-1.264-.1-.178.229.072.575.411,1.054C592.764,1704.552,593.163,1704.108,593.095,1703.882Z" transform="translate(-0.421 -1646.25)"/>
            <path id="Path_1756" data-name="Path 1756" class="cls-4" d="M596.991,1720.309a4.387,4.387,0,0,0,.316-1.58c.1-.872.032-.932,0-.947-.209-.1-.9.732-1.264,1.474a4.686,4.686,0,0,0-.439,1.586A1.8,1.8,0,0,0,596.991,1720.309Z" transform="translate(-0.421 -1646.25)"/>
            <path id="Path_1757" data-name="Path 1757" class="cls-4" d="M560.453,1757.9c.08.2.722.1,1.022.055,2-.3,3.471-2.007,3.3-2.266-.105-.156-.787.23-1.478.555C561.694,1757.17,560.333,1757.606,560.453,1757.9Z" transform="translate(-0.421 -1646.25)"/>
            <path id="Path_1758" data-name="Path 1758" class="cls-4" d="M576.774,1684.718c.075.1.933-.182,1.369-.842a1.471,1.471,0,0,0,.231-.939C577.508,1683.561,576.683,1684.591,576.774,1684.718Z" transform="translate(-0.421 -1646.25)"/>
            <path id="Path_1759" data-name="Path 1759" class="cls-4" d="M634.793,1740.842c.071.005,0-.743.144-1.781-.013,0-.027-.012-.039-.009C634.548,1739.143,634.686,1740.834,634.793,1740.842Z" transform="translate(-0.421 -1646.25)"/>
            <path id="Path_1760" data-name="Path 1760" class="cls-4" d="M609.837,1754c.133-.184-.563-1.055-.842-.948-.13.05-.11.309-.041.7C609.427,1753.993,609.763,1754.107,609.837,1754Z" transform="translate(-0.421 -1646.25)"/>
            <path id="Path_1761" data-name="Path 1761" class="cls-4" d="M647.955,1677.137a9.577,9.577,0,0,1,.028-1.485c-.049-1.513-.108-2.622-.133-2.622C647.8,1673.031,647.937,1677.137,647.955,1677.137Z" transform="translate(-0.421 -1646.25)"/>
            <path id="Path_1762" data-name="Path 1762" class="cls-4" d="M645.849,1694.616c-.186-.009-.85,7.538-.526,7.582a8.528,8.528,0,0,0,.674-2.518A26.505,26.505,0,0,0,645.849,1694.616Z" transform="translate(-0.421 -1646.25)"/>
            <path id="Path_1763" data-name="Path 1763" class="cls-4" d="M1914.192,1678.362a21.394,21.394,0,0,0-4.426,2.042c-2.222,1.543-2.22,2.755-4.426,5.447-3.483,4.252-5.116,3.216-6.468,6.128-1.444,3.111-.137,5.5-2.042,7.149a4.979,4.979,0,0,1-3.4,1.021,17.69,17.69,0,0,1-4.228,7.724c-1.557,1.634-3.053,3.206-5.3,3.51-2.829.381-4.05-1.617-7.83-2.383a14.438,14.438,0,0,0-6.809.34c-5.362-.9-8.752.158-10.893,1.362-2.868,1.613-3.225,3.331-6.809,5.106-2.261,1.121-2.492.622-8.17,2.043-7.148,1.789-7.95,2.872-10.894,2.383-2.992-.5-3.414-1.824-5.446-1.362-2.824.643-4.535,3.777-6.293,3.048-.171-.071-.183-.149-.423-.264-.851-.407-2.268-.368-7.857-.156-3.72.14-5.6.22-6.18.28a46.248,46.248,0,0,0-8.71,1.97c-10.5,3.12-12.82,4.64-14.18,3.37-.172-.161-.115-.188-.237-.292-2.391-2.041-12.629,11.306-18.078,9.406-6.967-2.429-2.661-28.579-9.008-30.088-1.243-.3-1.269.814-5.387,1.314-3.13.38-5.77.19-8.14,2.25-.034.029-.073.062-.116.1a10.917,10.917,0,0,0-2.834,4.807c-.956,2.752-4.319,5.12-6.855,5.614-3.91.761-5-3.1-9.447-3.064-4.351.034-4.666,3.744-10.724,5.617-1.846.571-5.17.559-11.744.511-8.028-.059-10.37-.443-11.234,1.021-1.04,1.761,1.482,3.777,1.787,8.426a15.359,15.359,0,0,1-1.483,7.425,5.6,5.6,0,0,0-2.25,2.11c-.64,1.15-.37,1.79-.98,2.39-.86.84-2.03.15-4.35.28-.65.03-4.01.22-5.62,2.24-.86,1.09-.58,1.9-.98,3.51-1.14,4.6-5.73,7.35-6.8,8.27a35.979,35.979,0,0,1-4.57,1.14c-1.84.32-2.27.21-4.21.42-3.26.35-3.77.84-9.55,2.11a37.289,37.289,0,0,1-6.32,1.12c-2.35.02-3.06-.42-7.02-.56a20.026,20.026,0,0,0-4.49.14,16.108,16.108,0,0,0-5.2,1.96c-2.41,1.37-3.62,2.05-4.35,3.51-.87,1.76.16,2.2-.7,5.9-.28,1.23-.63,2.19-.14,2.67.59.57,1.73-.19,2.53.42.722.551,1.029,1.934.56,2.39-1.012.983-4.541-3.415-8.375-2.509-2.59.612-3.157,3.133-4.851,2.808-1.9-.363-1.627-3.607-4.085-4.595-1.765-.71-2.608.679-5.106.255-2.03-.345-4.738-1.816-5.107-3.83-.528-2.88,4.187-4.369,3.83-7.659-.238-2.2-2.407-2.18-3.411-5.363-.857-2.722.355-3.917-.674-5.616-1.226-2.024-3.966-2.009-5.873-2.553-3.052-.872-6.784-3.978-9.718-13.828a7.149,7.149,0,0,1-3.15-.07,1.231,1.231,0,0,0-1.05,0c-.27.17-.23.43-.56.77a2.015,2.015,0,0,1-.85.49,2.06,2.06,0,0,1-1.47,0c0-.06.68-.02.7-.14.04-.22-2-.73-2.28-.71a1.3,1.3,0,0,0-.95-.13c-.39.13-.43.51-.84.56-.23.03-.33-.08-.7-.21a2.424,2.424,0,0,0-1.27-.21c-.46.12-.45.63-1.05,1.68a7.363,7.363,0,0,1-1.61,1.97,2.751,2.751,0,0,1-1.34.7,3.291,3.291,0,0,1-.77,0,7.909,7.909,0,0,1-1.13-.19.01.01,0,0,0-.01-.01,4.114,4.114,0,0,0-1.11-.36,2.549,2.549,0,0,0-1.26,0c-.62.17-.68.51-1.33.63a2.316,2.316,0,0,1-.84,0,7.141,7.141,0,0,1-1.27-.42c-.49-.15-.41-.07-1.26-.28a3.142,3.142,0,0,0-1.06-.21,2.06,2.06,0,0,0-.91.28,19.345,19.345,0,0,1-2.97,1.11h-.01a2.494,2.494,0,0,0-1.23.15c-.36.15-.37.28-.91.56a4.454,4.454,0,0,1-1.13.42c-1.07.17-1.52-1.55-3.29-2.52a4.738,4.738,0,0,0-3.74-.42,4.53,4.53,0,0,0-2.16,1.82c-1.13,1.48-6.65.97-25.56-7.51-5.94.66-9.41-.76-11.5-2.24-2.51-1.78-3.02-3.63-7.31-6.82-2.4-1.78-4.98-3.65-6.74-2.8-1.93.93-1.71,4.63-2.52,4.63-.85,0-.41-4.07-2.81-5.9-.9-.68-1.69-.67-8.28-.42-3.72.14-5.6.22-6.18.28a46.247,46.247,0,0,0-8.71,1.97c-10.5,3.12-12.82,4.64-14.18,3.37-.76-.72-.21-1.38-.84-7.44a34,34,0,0,0-.7-4.92,20.241,20.241,0,0,0-2.81-6.74,17.5,17.5,0,0,0-1.54-1.96c-3.49-3.72-9.29-4.04-10.11-4.07-7.21-.31-7.34,4.33-16.71,5.47-3.13.38-5.77.19-8.14,2.25-.33.28-1.02.93-2.95,4.91-2.49,5.14-3.73,7.77-3.51,10.67a9.884,9.884,0,0,0,1.4,4.78c1.3,2.03,2.77,2.34,4.64,5.05,1.09,1.58,1.65,2.39,1.4,3.23-.61,2.1-5.66,2.49-8,2.67-4.27.32-5.53-.51-7.02.7-1.79,1.44-1.15,3.55-2.95,4.35-1.75.78-4.01-.5-4.35-.7-1.88-1.1-2.01-2.54-3.37-2.67-1.02-.1-1.24.67-2.81,1.26-1.26.48-1.93.3-5.47.14s-3.04.02-5.06-.14a45.769,45.769,0,0,1-5.9-.84,461.946,461.946,0,0,1-4.35-72.3q.24-12.69,1.13-24.57a134.684,134.684,0,0,0-4.64,19.23c-2.18,13.28-1.55,21.93-1.12,46.9.11,6.15.24,15.78.28,27.79a5.6,5.6,0,0,0-2.25,2.11c-.64,1.15-.37,1.79-.98,2.39-.86.84-2.03.15-4.35.28-.65.03-4.01.22-5.62,2.24-.86,1.09-.58,1.9-.98,3.51-1.14,4.6-5.73,7.35-6.8,8.27a35.968,35.968,0,0,1-4.57,1.14c-1.84.32-2.27.21-4.21.42-3.26.35-3.77.84-9.55,2.11a37.29,37.29,0,0,1-6.32,1.12c-2.35.02-3.06-.42-7.02-.56a20.026,20.026,0,0,0-4.49.14,16.109,16.109,0,0,0-5.2,1.96c-2.41,1.37-3.62,2.05-4.35,3.51-.87,1.76.16,2.2-.7,5.9-.28,1.23-.63,2.19-.14,2.67.59.57,1.73-.19,2.53.42.25.2.59.63.56,2.39a17.951,17.951,0,0,1-1.41,6.17,14.712,14.712,0,0,1-1.26,2.95,13.9,13.9,0,0,1-3.51,3.37c-1.49,1.16-1.54,1.03-2.95,2.11a48.435,48.435,0,0,0-3.65,3.23c-.93.85-2.32,2.12-4.07,3.65q1.41-41.07,2.81-82.13c.84-1.27,1.68-2.53,2.53-3.8a2.623,2.623,0,0,1-3.37.85,2.549,2.549,0,0,1-.99-1.97c-.6.56-1.21,1.12-1.82,1.69-.47-.38-.94-.75-1.41-1.13l-.42,3.09c-.52.12-2.99.68-2.95,1.13s2.74.54,3.23.56q-1.26,40.215-2.52,80.44a4.794,4.794,0,0,0-3.65.14c-.58.32-.51.51-1.27,1.13-1.28,1.04-2.13,1.05-4.35,2.1-1.1.53-1.68.9-2.11,1.13-4.55,2.44-14.42.75-14.46.98a21.6,21.6,0,0,0,3.23.7c1.31.25,4.09-.62,3.93.7-.01.1-6.04.81-9.26-2.52-1.86-1.93-2.33-4.72-1.83-5.06.39-.25,1.3.91,2.39.56a1.792,1.792,0,0,0,.98-.84,2.376,2.376,0,0,0,.14-1.68,25.534,25.534,0,0,0-.84-3.23,9.751,9.751,0,0,1,0-4.78c.5-2.53,1.51-3.01,1.12-3.79-.58-1.16-2.87-.06-8.14-.7a53,53,0,0,0-6.74-.7c-.23-.01-.94-.02-1.82,0a31.73,31.73,0,0,0-11.94,2.11c-2.1.87-3.58,1.5-4.49,3.08a7.783,7.783,0,0,0-.84,3.79c-.06,2.75,1,3.64.42,5.48a4.948,4.948,0,0,1-1.69,2.39c-2.3,1.71-4.41-.32-7.16,1.26-1.05.61-.92,1.01-3.08,2.53-1.83,1.28-2.48,1.38-2.81,1.4-1.42.11-1.84-.84-3.51-1.4-2.07-.7-2.53.37-6.04.28a39.8,39.8,0,0,1-5.33-.84,36.032,36.032,0,0,1-4.36-.99,38.861,38.861,0,0,1-4.49-1.82,10.466,10.466,0,0,0-2.11-.98c-1.58-.4-2.45.19-4.35.56-.6.11-5.61,1.02-7.3-1.13-.13-.16-.41-.67-.98-1.68-.59-1.05-.88-1.57-1.12-2.11-.76-1.66-.56-2.1-1.27-3.37a4.27,4.27,0,0,0-1.12-1.54c-1.23-.85-2.48-.02-5.76-.14-.39-.02-.55-.03-1.68-.14-5.51-.52-8.27-.79-9.41-.84-6.85-.36-7.04,3.13-14.6,2.94-2.38-.06-3.94-.44-6.74.14a14.456,14.456,0,0,0-6.04,2.53c-2.57,1.97-2.49,3.66-5.33,7.86a31.572,31.572,0,0,1-5.34,6.32,25.661,25.661,0,0,1-6.61,4.14.1.1,0,0,0,.02-.07c-.16-1.05-11.49,1.7-14.89-3.09-.71-1-1.15-2.44-2.95-3.93a11.751,11.751,0,0,0-3.51-1.96c-2.19-.83-2.66-.36-4.63-.99a14.24,14.24,0,0,1-4.72-2.72,12.241,12.241,0,0,0-1.88-2.47,5.928,5.928,0,0,0-2.8-1.82,8.255,8.255,0,0,0-2.39,0c-3.04-.02-3.63-1.53-5.34-.99-1.03.33-1,.94-2.8,1.69a11.735,11.735,0,0,1-1.83.56c-1.95.42-3.05.1-5.9,0a22.58,22.58,0,0,0-3.23,0c-3.18.32-4.92,1.52-5.54.81-.33-.38.12-.75-.11-1.9-.25-1.26-.91-1.36-1.26-2.53-.5-1.64.27-3.22.11-3.26a.065.065,0,0,0-.05.02,4.342,4.342,0,0,0,.28-1.02H966.22c-2.31,3.31-3.48,4.97-3.86,5.63-1.54,2.62-1.29,2.92-2.64,4.95-1.66,2.5-2.9,4.36-4.74,4.42-2.17.08-3.83-2.42-4.1-2.84-.76-1.19-.5-1.62-1.16-3.47-1.1-3.11-2.33-3.28-3.37-6.01a8.761,8.761,0,0,1-.47-2.68h-8.33c.07,1.47.06,2.27.27,3.95.21,1.62.36,1.95.63,3.58a44.885,44.885,0,0,1,.63,7.37,26.081,26.081,0,0,0-3.15-.21c-4.67-.05-6.39,1.07-7.59,0-1.18-1.07.18-2.48-1.26-4.85-.87-1.42-1.71-1.48-2.74-3.37-.77-1.41-.46-1.69-1.05-2.52-1.67-2.37-5.79-2.45-5.9-2.11-.09.33,3.25,1.45,3.16,1.69s-3.08-1.21-7.58-1.69a29.876,29.876,0,0,1-4.42-.63,14.714,14.714,0,0,1-3.16-1.05,11.1,11.1,0,0,1-3.16-2.32,8.794,8.794,0,0,1-1.47-2.11,11.107,11.107,0,0,1-.85-4.21c-.21-1.83-.49-4.28-1.89-6.1-1.24-1.62-2.01-1.01-4.84-3.16-2.27-1.73-2.01-2.3-4.43-4.22a27.419,27.419,0,0,0-4.91-3.08c.37.2,1.33.74,1.33.77a20.5,20.5,0,0,1-5.89-3.58,26.4,26.4,0,0,1-2.53-2.53c-1.16-1.33-1.2-1.66-2.32-2.95a26.172,26.172,0,0,0-2.46-2.48,6.6,6.6,0,0,0-3.01-3.2c-.86-.38-2.34-.26-5.27,0-2.61.22-2.54.36-4,.42a40.244,40.244,0,0,1-5.9-.42c-4.04-.45-3.65-.51-5.47-.64-2.65-.18-5.69-.21-5.69-.21a5.853,5.853,0,0,1-2.1.85c-1.19.11-1.5-.82-2.74-1.06-1.35-.25-2.55.56-3.58,1.27a11.034,11.034,0,0,0-3.65,4.42c-1.87,3.81-1.23,6.64-2.25,6.74-.91.09-1.47-1.83-4.63-4.42a5.476,5.476,0,0,0-2.87-1.5c-1.2-.15-2.89.17-3.3,1.15-.45,1.07.94,2.24.48,2.87-.36.51-1.7.35-2.6-.06-2.61-1.22-2.69-5.22-4.87-17.21-.61-3.34-.72-3.67-.95-4.1-2.645-5.051-11.029-5.919-18.36-5.719-7.313-.189-15.632.688-18.267,5.718-.229.436-.338.757-.948,4.106-2.184,11.987-2.266,15.985-4.874,17.2-.9.418-2.235.576-2.6.067-.455-.63.932-1.8.481-2.877-.409-.975-2.095-1.3-3.3-1.145a5.485,5.485,0,0,0-2.868,1.495c-3.16,2.6-3.718,4.514-4.633,4.422-1.022-.1-.382-2.928-2.252-6.739a10.991,10.991,0,0,0-3.645-4.422c-1.029-.7-2.226-1.521-3.58-1.264-1.237.236-1.555,1.17-2.738,1.053a5.843,5.843,0,0,1-2.106-.842s-3.034.024-5.686.211c-1.819.128-1.433.19-5.475.631a39.086,39.086,0,0,1-5.9.422c-1.462-.061-1.391-.194-4-.422-2.927-.255-4.408-.375-5.265,0a6.573,6.573,0,0,0-3.007,3.209,24.572,24.572,0,0,0-2.468,2.477c-1.119,1.291-1.163,1.621-2.317,2.949a26.49,26.49,0,0,1-2.527,2.527,20.361,20.361,0,0,1-5.9,3.58c-.015-.027,1.473-.845,1.474-.842a27.182,27.182,0,0,0-5.054,3.158c-2.412,1.919-2.153,2.487-4.422,4.212-2.836,2.156-3.607,1.548-4.844,3.159-1.4,1.828-1.684,4.271-1.895,6.108a10.957,10.957,0,0,1-.843,4.211,8.78,8.78,0,0,1-1.474,2.106,10.954,10.954,0,0,1-3.159,2.317,14.343,14.343,0,0,1-3.159,1.053,29.873,29.873,0,0,1-4.422.632c-4.5.478-7.5,1.915-7.582,1.684s3.255-1.359,3.159-1.684c-.1-.346-4.229-.264-5.9,2.106-.586.832-.28,1.11-1.053,2.527-1.028,1.881-1.87,1.94-2.738,3.369-1.438,2.368-.082,3.778-1.264,4.844s-2.917-.052-7.581,0a28.53,28.53,0,0,0-3.159.21,46.207,46.207,0,0,1,.632-7.37c.274-1.624.425-1.959.632-3.58.3-2.341.152-2.969.421-6.108.214-2.5.318-2.232.421-4,.1-1.745.032-2.539,0-5.475-.024-2.249-.037-3.411,0-4.633.165-5.442,1.164-7.077,1.264-13.057.008-.49.005-1.029,0-2.106-.014-2.65-.028-5.519-.211-8.635-.307-5.23-.751-5.4-.211-6.739.936-2.314,2.54-2.469,2.738-4.422.2-2.015-1.451-2.36-1.685-5.054-.164-1.9.651-1.855.843-5.055.088-1.477-.08-1.576,0-4.212.035-1.159.064-2.108.21-3.369.27-2.319.542-2.277.632-3.791.151-2.53-.582-3.08,0-4.212.749-1.454,2.835-2.249,3.58-1.684.594.449-.12,1.416.211,3.58.229,1.5.674,1.7,1.263,3.79a16.407,16.407,0,0,1,.632,3.37c.2,2.881-.764,3.38-.632,6.318.084,1.852.475,1.827.422,3.58a34.446,34.446,0,0,1-.632,4c-.3,1.753-.25,1.474-.593,3.462-.294,1.7-.441,2.546-.46,2.645-.758,3.875-2.049,5.891-1.685,6.108.287.17,1.4-.9,2-2.106a9.427,9.427,0,0,0,.737-2.949c.14-.912.082-.942.21-1.79.1-.638.479-3.157.948-3.159.43,0,.8,2.112.948,2.949.107.612.113.833.21,1.579.314,2.411.536,2.291.632,3.58.14,1.868-.3,2.492.211,4,.132.392.4,1.185.632,1.158.56-.065.605-4.851.105-8.529a24.238,24.238,0,0,0-.737-3.9,18.07,18.07,0,0,1-.632-2.317,15.214,15.214,0,0,1-.211-2.738c0-.306.013-.452.211-2.737.029-.331.193-2.219.211-2.422.131-1.509.2-2.269.21-2.527.056-1.095.034-1.878,0-3.054a27.168,27.168,0,0,0-.21-3.369c-.145-.967-.232-.992-.632-2.843-.406-1.879-.3-1.756-.632-3.265-.072-.321-.436-1.942-1.053-4-.261-.871-.353-1.106-.526-1.79a22.183,22.183,0,0,1-.527-2.738c-.271-2.5.826-3.245.948-6.107a30.066,30.066,0,0,0-.316-3.264c-.672-6.23-.506-5.18-.737-7.055a45.126,45.126,0,0,1-.527-5.475c-.04-2.507.231-3.2.527-3.686.8-1.32,1.95-1.472,2.106-2.632.1-.754-.365-.832-.632-2.212a12.969,12.969,0,0,1,0-3.053c.043-1.4-.027-1.21,0-2.843.04-2.374.19-2.828.211-4.739.017-1.584-.087-1.277-.106-3.264a40.3,40.3,0,0,0-.21-6.844c-.117-.716-.258-1.584-.422-1.58-.369.01-.688,4.481-.631,7.371.017.878-.034,1.756,0,2.633a7.506,7.506,0,0,1-.106,2.316c-.034.139-.4,1.594-.842,1.58s-.745-1.467-.948-2.422c-.207-.978-.134-1.121-.316-2-.22-1.065-.725-2.776-1.053-2.737-.3.035-.457,1.528-.315,2.843a19.913,19.913,0,0,0,.631,2.632,15.641,15.641,0,0,1,.527,2.843c.125,2.114-.636,2.131-.527,4.317a15.848,15.848,0,0,1,0,2.843c-.111,1.116-.269,1.326-.421,1.369-.57.161-1.385-1.937-1.9-1.79-.16.046-.243.305-.288.621.041,1.261.075,2.8.077,4.223,0,.226,0,.491,0,3.159,0,2.182,0,2.157,0,2.211-.015,1.789-.153,3.339-.267,4.386-.452,2.6-1.22,7.193-1.8,10.049-.043,1.631-.148,3.519-.359,5.466a56.5,56.5,0,0,0-.526,6.844c-.007,1.477.062,1.734,0,3.054-.111,2.327-.389,2.81-.632,5.791-.132,1.621-.054,1.522-.21,3.37a16.6,16.6,0,0,0-.211,3.159c.079.787.221,1.142,0,1.579-.372.734-1.318.808-2.106,1.053a7.424,7.424,0,0,0-4.188,4.1,6.989,6.989,0,0,0-2.828,4.964c.334.012.944,1.258,1.182,2.375.114.536.315,1.475-.168,1.933-.291.276-.534.094-.842.316-.446.32-.446,1.06-.106,3.9.123,1.023.21,1.646.316,2.316.257,1.613.385,2.42.527,2.422.282,0,.649-2.266.632-4.528-.005-.627-.034-.532-.106-1.9-.231-4.409.055-5.708.421-6.528a13.564,13.564,0,0,1,.738-1.369,5.311,5.311,0,0,1,.842-1.159,2.392,2.392,0,0,1,4.212,1.159c.222.692-.085.988-.421,2.527a11.324,11.324,0,0,0-.316,4.422c.354,2.016,1.351,2.37,1.053,3.58s-1.375,1.115-1.79,2.422c-.37,1.161.386,1.533.526,3.791a22.427,22.427,0,0,1-.21,3.159c-.043.419-.2,1.918-.422,3.369-.834,5.343-2.08,6.207-2.106,9.793-.014,2.047.39,2.032.316,4.422a32.029,32.029,0,0,1-.842,5.476c-.8,4.165-1.2,6.248-1.369,7.265-.685,4.208-.4,4.006-.842,5.16-1.044,2.724-2.269,2.9-3.37,6-.658,1.853-.4,2.286-1.158,3.475-.27.421-1.936,2.917-4.107,2.843-1.833-.062-3.074-1.925-4.738-4.423-1.352-2.028-1.1-2.33-2.633-4.949-.388-.663-1.563-2.346-3.9-5.686-2.138-3.06-2.557-3.633-2.843-4.843a26.281,26.281,0,0,0-.631-3.58,33.681,33.681,0,0,0-1.58-3.265,26.6,26.6,0,0,1-1.21-3.252c.02.031.03.062.052.093a2.183,2.183,0,0,0,2.211.843c.1-.024,1.107-.284,1.264-.948.336-1.426-3.814-2.351-4.317-5.265-.2-1.166.436-1.17.421-2.948-.022-2.537-1.325-3-1.369-5.265-.036-1.831.811-1.739,1.053-4.107a14.268,14.268,0,0,0-.357-4.35c-.979-.482-2.552-1.482-3.644-2.178-1.181-.751-1.487-1.018-1.685-1.474-.362-.835.116-1.208.316-3.264a21.49,21.49,0,0,0,.105-3.475c-.061-.738-.176-1.442.1-1.58.327-.159.781.648,1.159.527.6-.192.905-2.67-.316-4.212-.606-.765-.991-.546-2.212-1.474a9.637,9.637,0,0,1-2.737-3.37c-.675-1.323-.415-1.586-1.053-3.685-.9-2.954-2.369-5.573-2.633-5.476-.155.058.144,1.045.106,1.053a8.134,8.134,0,0,1-.861-4.31c-.982.032-2.122-.35-2.4-1.06-.206-.519.078-1.134.527-2.106.347-.751.5-.782.842-1.474.4-.807,1.021-2.44.527-2.843-.377-.307-1.027.406-1.685.1-.721-.329-.807-1.583-.842-2.1-.146-2.133.9-2.512.737-4.107a4.988,4.988,0,0,0-1.064-2.421,1.624,1.624,0,0,1-1.148.21c-.868-.233-1.145-1.548-1.263-2.106-.446-2.115.636-3.072.316-5.581a3.419,3.419,0,0,0-.737-1.9c-.482-.558-.777-.433-1.053-.843-.67-.992.764-2.163.316-3.685-.263-.892-.812-.685-1.685-2.106a9.9,9.9,0,0,1-1.053-2.738,7.187,7.187,0,0,1-.527-2.948c.313-1.716,1.954-2.76,1.79-2.948-.142-.164-1.312.71-1.474.526s.941-.89.948-1.9c.007-.908-.877-1.183-1.579-2.527a11.294,11.294,0,0,1-.632-2.422c-.517-2.491-.843-4.844-.843-4.844s-.594-1.493-1.053-1.474c-.428.017-.715,1.355-1.263,4a19.374,19.374,0,0,1-.421,2,13.767,13.767,0,0,1-1.9,3.475c-.877,1.309-1.511,2.064-1.369,2.211.192.2,1.513-.99,1.79-.737.249.227-.833,1.16-1.052,2.843a7.586,7.586,0,0,0,.02,1.588,1.588,1.588,0,0,1,1.348-.43c1.091.446,1.361,4.541-.526,6.634-.508.563-.986.775-1.053,1.369-.148,1.322,2.04,1.9,2.106,3.369.012.28-.044.756-2.106,2.843-2.171,2.2-3.448,3.025-3.264,3.37.061.116.282.159.538.154a6.308,6.308,0,0,1-.328,1.741,6.192,6.192,0,0,1-1.474,2c-1.6,1.763-2.048,2.055-2.738,2.843-1.576,1.8-2.68,4.216-2.211,4.633.56.5,3.094-2.094,3.9-1.474.763.589-.823,3.479-.421,3.685.3.156,1.6-1.307,2.211-3.159.074-.225.129-.433.173-.619-.249,1.371-.814,4.231-1.647,7.358a8.4,8.4,0,0,1-.948,2.527c-.95,1.535-1.78,1.481-2.948,3.265a6.8,6.8,0,0,0-1.158,2.527c-.223,1.113.063,1.429-.316,2-.537.809-1.377.581-2.211,1.58-.077.092-.755.916-.527,1.263.261.4,1.627.062,2.633-.421a10.142,10.142,0,0,0,4-4c.436-.8.622-1.386.948-1.369.482.024.876,1.355.947,2.422a8.349,8.349,0,0,1-1.053,4.106,23.309,23.309,0,0,1-1.474,2.738c-1.991,3.246-3.69,6.381-3.475,6.529.19.129,1.73-2.159,4.739-3.686.757-.384,1.145-.485,1.369-.316.639.485-.288,3-1.475,4.844a23.98,23.98,0,0,1-2,2.422c-1.773,2.089-2.659,3.134-3.475,4.317-.832,1.206-.586,1.059-2.317,4-1.847,3.14-2.637,4.174-2.316,4.528.224.248.851.005,1.47-.287a10.046,10.046,0,0,0,3.689-3.4,32.37,32.37,0,0,1,2.106-3.054c1.034-1.334,1.363-1.547,1.58-1.474.461.156.417,1.612.251,2.6a9.46,9.46,0,0,1-2.041,4.24c-4.051,5.381-5.224,6.06-4.949,7.371s1.717,1.931,1.579,3.685a3.724,3.724,0,0,1-.316,1.159c-1.366,3.571-.655,5.227-2.211,8.213-.146.28-.378.678-.842,1.474a13.957,13.957,0,0,1-1.79,2.738c-.913.8-1.54.683-1.79,1.369a2.1,2.1,0,0,0,.421,1.79,2.5,2.5,0,0,0,2.3.991,9.137,9.137,0,0,1-1.138,2.168c-.3.411-.684.879-1.264,1.79a6.145,6.145,0,0,0-.947,1.79,3.6,3.6,0,0,0,.263,2.029c-.02-.02-.038-.032-.053-.029-.16.042.607,1.622.106,3.264-.355,1.163-1.012,1.263-1.264,2.528-.228,1.146.22,1.52-.105,1.9-.617.713-2.364-.485-5.546-.807a23.338,23.338,0,0,0-3.229,0c-2.845.1-3.95.419-5.9,0a10.747,10.747,0,0,1-1.825-.562c-1.8-.749-1.774-1.359-2.808-1.685-1.707-.537-2.3.965-5.335.983a8.514,8.514,0,0,0-2.386,0,5.986,5.986,0,0,0-2.808,1.825,12.157,12.157,0,0,0-1.879,2.469,14.3,14.3,0,0,1-4.72,2.726c-1.969.624-2.433.158-4.633.983a11.944,11.944,0,0,0-3.51,1.965c-1.794,1.491-2.237,2.931-2.948,3.931-3.4,4.784-14.731,2.034-14.882,3.089a.182.182,0,0,0,.016.07,25.537,25.537,0,0,1-6.615-4.141,31.641,31.641,0,0,1-5.335-6.318c-2.838-4.207-2.766-5.9-5.335-7.863a14.415,14.415,0,0,0-6.037-2.527c-2.8-.584-4.361-.2-6.739-.14-7.559.188-7.746-3.3-14.6-2.948-1.141.058-3.9.32-9.407.842-1.131.107-1.291.126-1.685.14-3.274.122-4.53-.7-5.756.141a4.24,4.24,0,0,0-1.123,1.544c-.713,1.27-.512,1.708-1.264,3.37-.242.536-.536,1.059-1.123,2.106-.567,1.011-.851,1.517-.983,1.684-1.687,2.151-6.7,1.239-7.3,1.124-1.9-.365-2.767-.953-4.352-.562a11.015,11.015,0,0,0-2.106.983,38.717,38.717,0,0,1-4.493,1.825,35.643,35.643,0,0,1-4.352.983,39.39,39.39,0,0,1-5.335.842c-3.512.094-3.975-.975-6.037-.281-1.673.563-2.089,1.509-3.51,1.4-.333-.024-.982-.126-2.808-1.4-2.17-1.518-2.033-1.919-3.089-2.527-2.746-1.579-4.856.452-7.16-1.263a4.964,4.964,0,0,1-1.685-2.387c-.58-1.839.475-2.731.421-5.476a7.681,7.681,0,0,0-.842-3.79c-.911-1.58-2.387-2.216-4.493-3.089a31.819,31.819,0,0,0-11.933-2.106c-.887-.019-1.594-.005-1.826,0a52.847,52.847,0,0,0-6.739.7c-5.265.635-7.559-.462-8.143.7-.387.772.623,1.255,1.124,3.791a9.736,9.736,0,0,1,0,4.773,26.261,26.261,0,0,0-.843,3.229,2.409,2.409,0,0,0,.141,1.685,1.842,1.842,0,0,0,.982.842c1.1.348,2-.816,2.387-.561.507.338.036,3.133-1.825,5.054-3.226,3.331-9.255,2.62-9.266,2.527-.161-1.321,2.623-.454,3.931-.7a20.264,20.264,0,0,0,3.229-.7c-.031-.231-9.9,1.461-14.461-.983-.429-.23-1-.6-2.106-1.123-2.221-1.053-3.071-1.06-4.352-2.106-.761-.62-.691-.806-1.264-1.123a4.762,4.762,0,0,0-3.65-.14q-1.263-40.224-2.527-80.447c.493-.015,3.187-.1,3.229-.562.041-.443-2.424-1.006-2.948-1.123q-.211-1.545-.421-3.089l-1.4,1.123-1.826-1.684a2.519,2.519,0,0,1-.982,1.965,2.614,2.614,0,0,1-3.37-.842l2.527,3.791,2.808,82.131c-1.753-1.531-3.141-2.793-4.071-3.65-1.765-1.626-2.362-2.235-3.651-3.229-1.4-1.082-1.46-.95-2.948-2.106a13.859,13.859,0,0,1-3.51-3.37,15.024,15.024,0,0,1-1.263-2.948,18.089,18.089,0,0,1-1.4-6.177c-.031-1.761.3-2.19.561-2.387.794-.609,1.938.154,2.527-.421.49-.478.144-1.439-.14-2.668-.856-3.7.166-4.142-.7-5.9-.725-1.466-1.934-2.147-4.352-3.51a15.925,15.925,0,0,0-5.2-1.966,19.763,19.763,0,0,0-4.493-.14c-3.955.137-4.667.581-7.019.561a37.241,37.241,0,0,1-6.318-1.123c-5.777-1.264-6.3-1.754-9.547-2.106-1.943-.21-2.371-.1-4.212-.421a35.451,35.451,0,0,1-4.563-1.135c-1.047-.906-5.657-3.661-6.809-8.271-.4-1.617-.123-2.426-.983-3.51-1.6-2.024-4.966-2.211-5.616-2.247-2.32-.128-3.489.568-4.352-.281-.606-.595-.335-1.239-.983-2.386a5.517,5.517,0,0,0-2.246-2.106c.038-12.011.175-21.646.281-27.8.43-24.965,1.061-33.614-1.124-46.892a134.8,134.8,0,0,0-4.633-19.234c.575,7.912.964,16.108,1.123,24.569a460.242,460.242,0,0,1-4.352,72.3,46.776,46.776,0,0,1-5.9.843c-2.014.156-1.505-.018-5.055.14s-4.218.338-5.475-.14c-1.569-.6-1.791-1.363-2.808-1.264-1.366.133-1.488,1.564-3.37,2.668-.342.2-2.6,1.479-4.352.7-1.795-.8-1.162-2.914-2.948-4.353-1.495-1.2-2.746-.374-7.02-.7-2.336-.179-7.394-.567-8-2.667-.244-.842.316-1.652,1.4-3.229,1.87-2.71,3.336-3.024,4.633-5.055a9.8,9.8,0,0,0,1.4-4.773c.225-2.9-1.017-5.53-3.51-10.67-1.931-3.984-2.62-4.629-2.948-4.914-2.375-2.062-5.014-1.866-8.143-2.246-9.367-1.138-9.493-5.779-16.707-5.476-.821.035-6.622.352-10.109,4.072a17.581,17.581,0,0,0-1.544,1.965,20.225,20.225,0,0,0-2.808,6.739,35.525,35.525,0,0,0-.7,4.914c-.623,6.067-.081,6.727-.842,7.441-1.354,1.271-3.679-.246-14.18-3.369a46.544,46.544,0,0,0-8.7-1.966c-.584-.066-2.456-.138-6.177-.281-6.6-.252-7.389-.261-8.284.421-2.4,1.833-1.957,5.9-2.807,5.9-.811,0-.589-3.695-2.528-4.633-1.755-.85-4.332,1.021-6.739,2.808-4.291,3.187-4.8,5.035-7.305,6.811-2.1,1.487-5.566,2.908-11.5,2.247-18.911,8.474-24.43,8.992-25.561,7.509a4.525,4.525,0,0,0-2.157-1.826,4.781,4.781,0,0,0-3.74.422c-1.77.978-2.224,2.693-3.3,2.527a4.536,4.536,0,0,1-1.123-.421c-.545-.282-.553-.413-.913-.562a2.479,2.479,0,0,0-1.226-.144,18.732,18.732,0,0,1-2.985-1.12,2.085,2.085,0,0,0-.913-.28,3.449,3.449,0,0,0-1.053.21c-.851.216-.769.128-1.264.281a7.445,7.445,0,0,1-1.263.421,2.458,2.458,0,0,1-.843,0c-.648-.123-.716-.456-1.333-.632a2.677,2.677,0,0,0-1.264,0,4.129,4.129,0,0,0-1.115.368,6.535,6.535,0,0,1-1.131.194,3.012,3.012,0,0,1-.772,0,2.668,2.668,0,0,1-1.334-.7,7.462,7.462,0,0,1-1.615-1.965c-.594-1.05-.587-1.562-1.053-1.685a2.5,2.5,0,0,0-1.263.21c-.377.135-.474.238-.7.211-.409-.049-.449-.426-.843-.562a1.275,1.275,0,0,0-.945.138c-.192-.05-2.317.481-2.284.7.019.124.7.084.7.14a2.1,2.1,0,0,1-1.474,0,1.953,1.953,0,0,1-.842-.491c-.33-.342-.291-.6-.562-.772a1.283,1.283,0,0,0-1.053,0,7.115,7.115,0,0,1-3.15.07V1907.15H1920V1676.319C1918.627,1676.748,1916.608,1677.417,1914.192,1678.362ZM574.661,1709.1c0-.036.006-.06.007-.06A.585.585,0,0,1,574.661,1709.1Z" transform="translate(-0.421 -1646.25)"/>
          </g>
          <g id="Group_2041" data-name="Group 2041" transform="translate(883.933 78.772)">
            <g id="Group_2040" data-name="Group 2040">
              <path id="Path_1764" data-name="Path 1764" class="cls-4" d="M905.981,1795.014l-.311-.15c-.412-.681-.795-1.381-1.24-2.039q-9.741-14.4-19.514-28.771a2.242,2.242,0,0,1-.253-2.615q7.911-16.092,15.666-32.259a2.232,2.232,0,0,1,2.212-1.418c4.866-.3,9.73-.66,14.592-1.024q11.229-.84,22.454-1.716l.31.151c.412.68.8,1.38,1.241,2.038q9.741,14.4,19.513,28.772a2.242,2.242,0,0,1,.254,2.614q-7.911,16.092-15.667,32.26a2.233,2.233,0,0,1-2.211,1.418c-4.81.3-9.615.663-14.421,1.022Q917.293,1794.143,905.981,1795.014Zm50.633-39.322-.121-1.106a7.03,7.03,0,0,0-.568-1.441q-7.209-10.71-14.489-21.37a2.408,2.408,0,0,0-1.626-.868,6.628,6.628,0,0,1-4.554-2.11,3.074,3.074,0,0,0-2.124-.874c-8.361.523-16.715,1.139-25.071,1.734-2.214.158-2.51.791-1.24,2.667q7.043,10.406,14.078,20.816a2.148,2.148,0,0,0,2.048,1.125,5.752,5.752,0,0,1,4.467,2.248,1.976,1.976,0,0,0,1.354.713c8.758-.582,17.512-1.231,26.269-1.835A6.264,6.264,0,0,1,956.614,1755.692Zm-44.393,20.876c1.833-3.774,3.642-7.559,5.515-11.313a2.923,2.923,0,0,0,.045-2.515,10.214,10.214,0,0,1-.343-4.621,3,3,0,0,0-.38-2.488q-7.134-10.445-14.214-20.926c-1.1-1.619-1.765-1.589-2.612.149-3.724,7.646-7.453,15.29-11.112,22.968a2.846,2.846,0,0,0,.017,2.14,5.873,5.873,0,0,1,.328,4.834,2.305,2.305,0,0,0,.386,2.485q7.083,10.375,14.112,20.788c1.12,1.651,1.884,1.6,2.758-.182Q909.484,1782.234,912.221,1776.568Zm38.756-2.995c1.882-3.875,3.773-7.745,5.641-11.627.725-1.505.285-2.187-1.334-2.067-8.633.644-17.267,1.288-25.9,1.994a2.362,2.362,0,0,0-1.559.965,6.5,6.5,0,0,1-4.255,2.939,2.617,2.617,0,0,0-1.6,1.18c-3.765,7.622-7.464,15.275-11.166,22.928-.774,1.6-.333,2.258,1.423,2.134,8.521-.6,17.043-1.194,25.559-1.87a3.007,3.007,0,0,0,1.807-1.135c1.075-1.351,2.275-2.5,4.038-2.663a2.085,2.085,0,0,0,1.857-1.457C947.3,1781.109,949.146,1777.345,950.977,1773.573Z" transform="translate(-884.354 -1725.022)"/>
            </g>
          </g>
          <g id="Group_2042" data-name="Group 2042" transform="translate(1752.32 21.353)">
            <path id="Path_1765" data-name="Path 1765" class="cls-4" d="M1771.776,1713.161l-7.994,1.212,3.016,19.876-7,2.132-7.061-46.541a34.835,34.835,0,0,1,5.821-.091c.669.092,1.511,1.412,1.672,2.283.764,4.118,1.489,8.258,1.891,12.423.269,2.778,1.383,3.641,4.018,2.967,1.363-.348,2.788-.447,4.612-.724l-2.548-16.8a11.707,11.707,0,0,1,1.609-.436c5.649-.509,5.65-.5,6.509,5.153q2.285,15.047,4.567,30.094c.954,6.294.954,6.3-6.315,6.913Z" transform="translate(-1752.741 -1667.603)"/>
            <path id="Path_1766" data-name="Path 1766" class="cls-4" d="M1808.527,1705.494c-.791-5.221-1.672-10.432-2.292-15.673-.109-.925.764-2.764,1.37-2.849a101.364,101.364,0,0,1,14.078-1.3c4.29.006,6.934,2.534,7.69,6.789q1.7,9.583,2.923,19.25c.589,4.668-1.673,8.106-6.444,9.409a90.8,90.8,0,0,1-12.652,2.255c-.663.083-2.046-1.339-2.212-2.23C1810.021,1715.953,1809.318,1710.715,1808.527,1705.494Zm7.363-1.177c.528,3.484.995,6.98,1.63,10.445.157.854.68,2.056,1.349,2.329,2.968,1.212,6.37-1.558,5.99-4.821-.369-3.171-.921-6.321-1.4-9.478-.466-3.048-.885-6.1-1.434-9.138-.627-3.467-3.3-2.919-5.717-2.741-2.886.212-2.077,2.256-1.844,3.93C1814.9,1698.006,1815.407,1701.16,1815.89,1704.317Z" transform="translate(-1752.741 -1667.603)"/>
            <path id="Path_1767" data-name="Path 1767" class="cls-4" d="M1834.57,1701.553c-.776-5.113-1.479-10.24-2.363-15.334-.361-2.079.149-3.017,2.343-3.283,3.711-.451,7.373-1.31,11.086-1.725,5.546-.619,8.837,1.955,9.712,7.427q1.51,9.453,2.865,18.932c.788,5.566-1.473,8.889-7.029,10.017-3.874.787-7.84,1.114-11.742,1.78-2.158.368-2.325-.984-2.548-2.473Q1835.748,1709.222,1834.57,1701.553Zm9.371,11.651c6.822-.2,7.574-1.072,6.674-7.037q-.712-4.727-1.435-9.45c-.385-2.5-.665-5.018-1.215-7.479-.595-2.659-2.644-2.923-4.911-2.5-1.347.249-3.1.1-2.77,2.326C1841.485,1697.078,1842.71,1705.091,1843.941,1713.2Z" transform="translate(-1752.741 -1667.603)"/>
            <path id="Path_1768" data-name="Path 1768" class="cls-4" d="M1779.7,1689.056l7.077-.341c.233,1.159.507,2.286.682,3.428q1.98,12.908,3.915,25.822c.358,2.419,1.1,4.328,4.078,4.053,2.778-.257,4.041-1.831,3.584-5.145-1.161-8.405-2.495-16.786-3.757-25.176-.276-1.839-.985-3.765,2.132-3.958,2.388-.147,4.38-.844,4.814,2.842.991,8.422,2.479,16.786,3.72,25.179.765,5.174-1,8.576-5.852,10.491a24.247,24.247,0,0,1-7.37,1.558c-3.987.237-7.291-2.059-7.976-6.012C1782.893,1711.073,1781.409,1700.284,1779.7,1689.056Z" transform="translate(-1752.741 -1667.603)"/>
            <path id="Path_1769" data-name="Path 1769" class="cls-4" d="M1887.227,1677.4c.511,3.367.873,6.526,1.559,9.614.136.614,1.541,1.388,2.313,1.338,2.491-.161,4.96-.672,7.615-1.074l.943,6.219-9.723,1.475c.65,4.283,1.137,8.19,1.937,12.032.123.592,1.674,1.223,2.58,1.248a36.314,36.314,0,0,0,6.588-.417c2.983-.471,4.311.7,4.292,3.639-.005.759.1,1.518.191,2.738-6.361.154-12.579.358-18.8.362-.533,0-1.423-1.275-1.546-2.052q-2.916-18.458-5.6-36.952c-.122-.844.455-2.443,1.046-2.632,5.845-1.871,11.761-3.519,18.035-5.339.232,1.529.325,2.729.609,3.882.47,1.91-.268,2.875-2.12,3.323C1893.955,1675.583,1890.783,1676.467,1887.227,1677.4Z" transform="translate(-1752.741 -1667.603)"/>
            <path id="Path_1770" data-name="Path 1770" class="cls-4" d="M1882.57,1714.87l-18.913,1.494c-.265-1.284-.554-2.423-.731-3.579q-2.2-14.381-4.37-28.766c-.924-6.1-.672-6.389,6.373-6.779.383,2.531.775,5.113,1.167,7.7,1.124,7.41,2.345,14.807,3.32,22.236.339,2.579,1.358,3.448,3.864,2.916a43.831,43.831,0,0,1,4.6-.531C1882.724,1709.053,1883.058,1709.406,1882.57,1714.87Z" transform="translate(-1752.741 -1667.603)"/>
          </g>
          <g id="Group_2044" data-name="Group 2044" transform="translate(1152.417 98.307)">
            <g id="Group_2043" data-name="Group 2043">
              <path id="Path_1771" data-name="Path 1771" class="cls-4" d="M1200.595,1751.3c-1.793-5.309-6.41-7.9-11.75-6.242q-14.9,4.629-29.658,9.7c-5.192,1.8-7.466,6.443-5.823,11.723q4.638,14.9,9.695,29.661c1.763,5.148,6.174,7.524,11.318,5.949q15.08-4.616,29.987-9.784c5.39-1.866,7.442-6.544,5.718-11.992-1.5-4.742-3.081-9.461-4.629-14.188C1203.835,1761.182,1202.259,1756.225,1200.595,1751.3Zm-14.926,31.305a7.736,7.736,0,0,1-8.777,9.764,6.392,6.392,0,0,1-5.763-4.537q-1.531-4.672-3.055-9.349c-1.019-3.116-2.114-6.21-3.034-9.355-1.1-3.749.2-6.481,3.793-8.412a7.559,7.559,0,0,1,9.306,1.333,8.877,8.877,0,0,1,1.864,2.809C1181.995,1770.739,1184.232,1776.577,1185.669,1782.6Zm14.459-.863c.694,2.052.39,3.432-1.912,4.162-2.251.715-3.336-.091-4-2.216-1.722-5.486-3.587-10.926-5.327-16.406-.6-1.888-1.182-3.352-3.733-2.594a2.828,2.828,0,0,1-2.49-1.262,4.481,4.481,0,0,1,.934-3.017,26.521,26.521,0,0,1,3.335-3.969c.809-.807,1.84-1.776,2.845-1.866.646-.058,1.76,1.226,2.083,2.118,1.5,4.133,2.789,8.338,4.154,12.518S1198.718,1777.575,1200.128,1781.739Z" transform="translate(-1152.838 -1744.557)"/>
              <path id="Path_1772" data-name="Path 1772" class="cls-4" d="M1226.776,1758.995l-.017.006c-1.225-3.751-2.348-7.539-3.707-11.241-1.139-3.1-4.045-3.761-6.394-1.443-1.917,1.893-3.488,4.133-5.359,6.079-2.327,2.421-2.525,5.157-1.559,8.138,3.9,12.021,2.823,11.794,14.989,14.259.11.023.217.059.327.085,4.416,1.027,6.412-1.132,5.066-5.59C1229.079,1765.835,1227.9,1762.425,1226.776,1758.995Z" transform="translate(-1152.838 -1744.557)"/>
              <path id="Path_1773" data-name="Path 1773" class="cls-4" d="M1173.914,1767.341c-.249-.65-1.243-1.013-1.895-1.508-.374.811-1.238,1.768-1.046,2.409q2.477,8.273,5.344,16.422c.251.713,1.412,1.107,2.152,1.648.291-.859.989-1.822.8-2.559-.694-2.73-1.68-5.384-2.56-8.066C1175.8,1772.9,1174.967,1770.077,1173.914,1767.341Z" transform="translate(-1152.838 -1744.557)"/>
            </g>
          </g>
        </g>
      </g>
      <g id="Group_2053" data-name="Group 2053" transform="matrix(0.999, 0.052, -0.052, 0.999, 204.229, 472.583)">
        <g id="Group_2050" data-name="Group 2050" transform="translate(0 0)">
          <path id="Path_1781" data-name="Path 1781" class="cls-3" d="M0,24.3,22.142,0,33.366,31c-1.262.448-2.447.87-3.633,1.288-4.8,1.695-9.607,3.4-14.421,5.06a1.222,1.222,0,0,1-1.026-.147Q7.311,31,.388,24.742A5.649,5.649,0,0,1,0,24.3Z" transform="translate(0.544)"/>
          <path id="Path_1782" data-name="Path 1782" class="cls-3" d="M11.941,26.915C7.932,17.919,3.966,9.018,0,.117L.153,0c.935.83,1.874,1.656,2.8,2.491Q8.487,7.452,14,12.43a1.334,1.334,0,0,0,1.561.3c5.664-2.049,11.34-4.064,17.014-6.088a.962.962,0,0,1,.647-.03Z" transform="translate(0 27.444)"/>
        </g>
      </g>
      <g id="Group_2070" data-name="Group 2070" transform="translate(1.355 -1074.034)">
        <g id="Group_2068" data-name="Group 2068">
          <g id="Group_2067" data-name="Group 2067">
            <path id="Path_1783" data-name="Path 1783" class="cls-3" d="M71.17,1610.6a2.2,2.2,0,0,0-.559-2.973,3.957,3.957,0,0,1-.852-2.707,3.872,3.872,0,0,1,.8-2.066L84.635,1590.2a19.431,19.431,0,0,0,3.418-12.742,18.012,18.012,0,0,0-1.744-6.046,4.617,4.617,0,0,0-6.136-6.608,17.682,17.682,0,0,0-19.434.563l-13.988,12.8a3.492,3.492,0,0,1-1.942.515,3.957,3.957,0,0,1-2.994-1.921,1.962,1.962,0,0,0-2.906.141,1.923,1.923,0,0,0,.4,2.4l27.254,29.857,1.315,1.35A2.215,2.215,0,0,0,71.17,1610.6Z"/>
            <path id="Path_1784" data-name="Path 1784" class="cls-3" d="M45.47,1602.889a8.4,8.4,0,0,0,10.255,1.661L44.8,1592.429A8.407,8.407,0,0,0,45.47,1602.889Z"/>
          </g>
        </g>
        <g id="Group_2069" data-name="Group 2069">
          <path id="Path_1785" data-name="Path 1785" class="cls-3" d="M78,1555.779a14.765,14.765,0,0,0-3.467-1.5,12.836,12.836,0,0,0-5.1-.521,13.412,13.412,0,0,0-4.425,1.344,13.93,13.93,0,0,0-3.685,2.674,1.256,1.256,0,0,0,.225,1.58,1.224,1.224,0,0,0,1.238.173,12.43,12.43,0,0,1,2.357-1.934,10.851,10.851,0,0,1,4.449-1.719,10.278,10.278,0,0,1,4.609.4,9.921,9.921,0,0,1,2.433,1.2,1.092,1.092,0,0,0,1.363-1.7Z"/>
          <path id="Path_1786" data-name="Path 1786" class="cls-3" d="M80.714,1551.475a1.312,1.312,0,0,0,1.608-1.985,21.8,21.8,0,0,0-26.6,3.865,1.306,1.306,0,0,0,2.05,1.071,20.167,20.167,0,0,1,9.065-4.782A20.665,20.665,0,0,1,80.714,1551.475Z"/>
        </g>
      </g>
      <g id="Group_2112" data-name="Group 2112" transform="translate(2.5 47.675)">
        <g id="Group_2111" data-name="Group 2111" transform="translate(1010 591)">
          <path id="Path_1807" data-name="Path 1807" class="cls-4" d="M1060.935,1768.756l-43.433-10.4,10.4-43.432,25.755-11.669,17.677,22.067Z" transform="translate(-1017.502 -1703.256)"/>
          <g id="Group_2110" data-name="Group 2110" transform="translate(37.109 20.479)">
            <circle id="Ellipse_44" data-name="Ellipse 44" class="cls-1" cx="1.33" cy="1.33" r="1.33" transform="translate(0 0.944)"/>
            <circle id="Ellipse_45" data-name="Ellipse 45" class="cls-1" cx="1.33" cy="1.33" r="1.33" transform="translate(5.4)"/>
            <path id="Path_1808" data-name="Path 1808" class="cls-1" d="M1068.155,1736.449c.057.63,1.756,1.307,3.172.919,1.259-.346,2.333-1.544,2.12-2.106a.668.668,0,0,0-.52-.351c-.754-.119-.99,1.036-1.982,1.268-1.017.238-1.754-.746-2.437-.3A.7.7,0,0,0,1068.155,1736.449Z" transform="translate(-1065.098 -1730.287)"/>
          </g>
          <path id="Path_1809" data-name="Path 1809" class="cls-4" d="M1040.835,1775.01c.453-.206,2.737,2.908,3.86,6.883.146.516.229.9.255,1.015,1.013,4.687-.3,9.347-.862,9.311-.427-.028-.053-2.787-1.012-8.1C1042.017,1778.255,1040.4,1775.207,1040.835,1775.01Z" transform="translate(-1022.318 -1718.11)"/>
          <path id="Path_1810" data-name="Path 1810" class="cls-4" d="M1034.264,1770.856c.493.063.8,3.913-.339,7.885-.147.515-.276.881-.317,1-1.6,4.518-5.177,7.789-5.632,7.464-.349-.249,1.421-2.4,3.4-7.42C1033.562,1774.237,1033.793,1770.8,1034.264,1770.856Z" transform="translate(-1019.661 -1717.252)"/>
          <path id="Path_1811" data-name="Path 1811" class="cls-4" d="M1089.23,1752.969c.121,1.461-4.271,3.122-6.884,3.86-.515.145-.894.229-1.014.254-4.93,1.064-9.354-.6-9.311-.862a52.625,52.625,0,0,0,6.051-.041,16.411,16.411,0,0,0,2.767-.4,17.406,17.406,0,0,0,6.411-2.936c.273-.228.933-.807,1.45-.607A.915.915,0,0,1,1089.23,1752.969Z" transform="translate(-1028.789 -1713.388)"/>
        </g>
      </g>
      <g id="Group_2114" data-name="Group 2114" transform="translate(-0.467 -1069.794)">
        <path id="Path_1812" data-name="Path 1812" class="cls-3" d="M499.536,1679.663l.634-4.016a.616.616,0,0,1,1.224.1l0,4.065a.616.616,0,0,0,1.2.191l1.254-3.867a.616.616,0,0,1,1.194.286l-.638,4.016a.616.616,0,0,0,1.157.376l1.844-3.623a.616.616,0,0,1,1.134.47l-1.258,3.866a.616.616,0,0,0,1.083.553l2.388-3.29a.616.616,0,0,1,1.047.641l-1.847,3.622a.616.616,0,0,0,.984.716l2.873-2.876a.616.616,0,0,1,.933.8l-2.391,3.288a.616.616,0,0,0,.86.86l3.288-2.391a.615.615,0,0,1,.8.933l-2.876,2.874a.616.616,0,0,0,.715.983l3.622-1.847a.616.616,0,0,1,.642,1.047l-3.291,2.388a.616.616,0,0,0,.553,1.083l3.866-1.258a.616.616,0,0,1,.47,1.134l-3.623,1.844a.616.616,0,0,0,.376,1.157l4.015-.637a.616.616,0,0,1,.287,1.194l-3.867,1.255a.616.616,0,0,0,.191,1.2l4.066,0a.616.616,0,0,1,.1,1.224l-4.016.634a.616.616,0,0,0,0,1.217l4.016.634a.616.616,0,0,1-.1,1.224l-4.066,0a.616.616,0,0,0-.191,1.2l3.867,1.254a.616.616,0,0,1-.287,1.195l-4.015-.638a.616.616,0,0,0-.376,1.157l3.623,1.844a.616.616,0,0,1-.47,1.134l-3.866-1.258a.616.616,0,0,0-.553,1.083l3.291,2.388a.616.616,0,0,1-.642,1.047l-3.622-1.847a.616.616,0,0,0-.715.984l2.876,2.873a.615.615,0,0,1-.8.933l-3.288-2.391a.615.615,0,0,0-.86.859l2.391,3.288a.616.616,0,0,1-.933.8l-2.873-2.876a.616.616,0,0,0-.984.715l1.847,3.622a.616.616,0,0,1-1.047.642l-2.388-3.291a.616.616,0,0,0-1.083.553l1.258,3.866a.616.616,0,0,1-1.134.47l-1.844-3.623a.616.616,0,0,0-1.157.376l.638,4.015a.616.616,0,0,1-1.194.286l-1.254-3.867a.616.616,0,0,0-1.2.191l0,4.066a.616.616,0,0,1-1.224.1l-.634-4.016a.616.616,0,0,0-1.217,0l-.634,4.016a.616.616,0,0,1-1.224-.1l0-4.066a.616.616,0,0,0-1.2-.191l-1.254,3.867a.616.616,0,0,1-1.194-.286l.638-4.015a.616.616,0,0,0-1.157-.376l-1.844,3.623a.616.616,0,0,1-1.134-.47l1.258-3.866a.616.616,0,0,0-1.083-.553l-2.388,3.291a.616.616,0,0,1-1.047-.642l1.847-3.622a.616.616,0,0,0-.984-.715l-2.873,2.876a.615.615,0,0,1-.933-.8l2.391-3.288a.615.615,0,0,0-.86-.859l-3.288,2.391a.615.615,0,0,1-.8-.933l2.876-2.873a.616.616,0,0,0-.715-.984l-3.622,1.847a.616.616,0,0,1-.642-1.047l3.291-2.388a.616.616,0,0,0-.553-1.083l-3.866,1.258a.616.616,0,0,1-.47-1.134l3.623-1.844a.616.616,0,0,0-.376-1.157l-4.015.638a.616.616,0,0,1-.287-1.195l3.867-1.254a.616.616,0,0,0-.191-1.2l-4.066,0a.616.616,0,0,1-.1-1.224l4.016-.634a.616.616,0,0,0,0-1.217l-4.016-.634a.616.616,0,0,1,.1-1.224l4.066,0a.616.616,0,0,0,.191-1.2l-3.867-1.255a.616.616,0,0,1,.287-1.194l4.015.637a.616.616,0,0,0,.376-1.157l-3.623-1.844a.616.616,0,0,1,.47-1.134l3.866,1.258a.616.616,0,0,0,.553-1.083l-3.291-2.388a.616.616,0,0,1,.642-1.047l3.622,1.847a.616.616,0,0,0,.715-.983l-2.876-2.874a.615.615,0,0,1,.8-.933l3.288,2.391a.616.616,0,0,0,.86-.86l-2.391-3.288a.615.615,0,0,1,.933-.8l2.873,2.876a.616.616,0,0,0,.984-.716l-1.847-3.622a.616.616,0,0,1,1.047-.641l2.388,3.29a.616.616,0,0,0,1.083-.553l-1.258-3.866a.616.616,0,0,1,1.134-.47l1.844,3.623a.616.616,0,0,0,1.157-.376l-.638-4.016a.616.616,0,0,1,1.194-.286l1.254,3.867a.616.616,0,0,0,1.2-.191l0-4.065a.616.616,0,0,1,1.224-.1l.634,4.016A.616.616,0,0,0,499.536,1679.663Z" transform="translate(0 0)"/>
        <g id="Group_2113" data-name="Group 2113" transform="translate(500.196 1692.106)">
          <circle id="Ellipse_46" data-name="Ellipse 46" class="cls-1" cx="1.421" cy="1.421" r="1.421" transform="translate(0 1.009)"/>
          <circle id="Ellipse_47" data-name="Ellipse 47" class="cls-1" cx="1.421" cy="1.421" r="1.421" transform="translate(5.773)"/>
          <path id="Path_1813" data-name="Path 1813" class="cls-1" d="M508.612,1702.628c.062.675,1.879,1.4,3.392.983,1.346-.369,2.494-1.651,2.266-2.251a.711.711,0,0,0-.555-.375c-.807-.127-1.06,1.108-2.119,1.356-1.088.254-1.875-.8-2.605-.32A.748.748,0,0,0,508.612,1702.628Z" transform="translate(-505.344 -1696.041)"/>
        </g>
      </g>
      <path id="Path_1814" data-name="Path 1814" class="cls-5" d="M1008.793,1549.49h5.439v23.323h-5.439Z" transform="translate(-505.051 -1027.738)"/>
      <path id="Path_1815" data-name="Path 1815" class="cls-5" d="M0,.288H5.119V2.144A8.71,8.71,0,0,1,11.357,0c4.127,0,6.367,2.271,6.367,6.079V17.564H12.605V7.1c0-1.823-1.056-2.656-3.3-2.656C6.751,4.447,5.119,5.6,5.119,7.39V17.564H0Z" transform="translate(514.084 527.725) rotate(9)"/>
      <path id="Path_1816" data-name="Path 1816" class="cls-5" d="M0,.288H5.119V2.143A8.71,8.71,0,0,1,11.357,0c4.127,0,6.367,2.271,6.367,6.079V17.564H12.605V7.1c0-1.823-1.056-2.655-3.3-2.655C6.75,4.447,5.119,5.6,5.119,7.39V17.564H0Z" transform="translate(534.941 530.961) rotate(11)"/>
      <path id="Path_1817" data-name="Path 1817" class="cls-5" d="M9.758,0c6.495,0,9.822,3.263,9.822,9.054,0,5.5-3.455,8.8-9.79,8.8-6.4,0-9.79-3.3-9.79-8.926C0,3.327,3.423,0,9.758,0ZM9.79,13.6A4.291,4.291,0,0,0,14.365,8.99c0-3.072-1.856-4.735-4.575-4.735A4.293,4.293,0,0,0,5.215,8.926,4.293,4.293,0,0,0,9.79,13.6Z" transform="matrix(0.978, -0.208, 0.208, 0.978, 548.854, 538.379)"/>
      <path id="Path_1818" data-name="Path 1818" class="cls-5" d="M1912.335,1628.272l3.935,11.806,4.543-11.806h5.663l-7.454,17.276h-5.631l-6.719-17.276Z" transform="translate(-1339.828 -1093.964)"/>
      <path id="Path_1819" data-name="Path 1819" class="cls-5" d="M60.179,0V9.214H49.525V0H0V23.323H18.876V18.684H5.535V13.6h12.7V8.958H5.535V4.718H27.9l.446,18.605h5.47L33.626,4.718H44.087V23.323h5.438v-9.47H60.179v9.47h5.438V0Z" transform="translate(583.693 526.993) rotate(-11)"/>
    </g>
  </g>
</svg>
