<svg xmlns="http://www.w3.org/2000/svg" width="479.299" height="364.884" viewBox="0 0 479.299 364.884">
  <defs>
    <style>
      .cls-1, .cls-7 {
        fill: none;
      }

      .cls-1 {
        stroke: #707070;
        stroke-dasharray: 6;
      }

      .cls-2 {
        fill: #ffe48c;
      }

      .cls-2, .cls-3, .cls-4, .cls-5 {
        isolation: isolate;
      }

      .cls-3 {
        fill: #90c68c;
      }

      .cls-4 {
        fill: #ff917a;
      }

      .cls-5 {
        fill: #a4d3f9;
      }

      .cls-6 {
        stroke: none;
      }
    </style>
  </defs>
  <g id="Group_2080" data-name="Group 2080" transform="translate(-1106.705 -848.754)">
    <g id="Ellipse_15" data-name="Ellipse 15" class="cls-1" transform="translate(1147.149 873.662) rotate(18)">
      <ellipse class="cls-6" cx="162.435" cy="65.439" rx="162.435" ry="65.439"/>
      <ellipse class="cls-7" cx="162.435" cy="65.439" rx="161.935" ry="64.939"/>
    </g>
    <g id="Ellipse_14" data-name="Ellipse 14" class="cls-1" transform="translate(1143.162 1059.127) rotate(-21)">
      <ellipse class="cls-6" cx="205.409" cy="82.752" rx="205.409" ry="82.752"/>
      <ellipse class="cls-7" cx="205.409" cy="82.752" rx="204.909" ry="82.252"/>
    </g>
    <g id="Group_2074" data-name="Group 2074" transform="translate(1194.307 848.754)">
      <path id="Path_1788" data-name="Path 1788" class="cls-2" d="M1185.432,2738.949l.111-.706a1.572,1.572,0,0,1,3.125.246v.714a1.572,1.572,0,0,0,3.068.486l.22-.68a1.573,1.573,0,0,1,3.049.732l-.113.706a1.573,1.573,0,0,0,2.954.96l.324-.637a1.573,1.573,0,0,1,2.9,1.2l-.221.679a1.572,1.572,0,0,0,2.767,1.41l.419-.578a1.572,1.572,0,0,1,2.673,1.637l-.324.637a1.572,1.572,0,0,0,2.513,1.825l.5-.5a1.572,1.572,0,0,1,2.384,2.036l-.42.578a1.572,1.572,0,0,0,2.2,2.2l.578-.42a1.572,1.572,0,0,1,2.036,2.384l-.506.505a1.572,1.572,0,0,0,1.825,2.512l.637-.324a1.572,1.572,0,0,1,1.638,2.673l-.578.419a1.572,1.572,0,0,0,1.41,2.767l.679-.221a1.572,1.572,0,0,1,1.2,2.9l-.637.324a1.573,1.573,0,0,0,.959,2.955l.706-.112a1.572,1.572,0,0,1,.732,3.048l-.68.221a1.572,1.572,0,0,0,.486,3.067h.715a1.572,1.572,0,0,1,.246,3.125l-.706.111a1.572,1.572,0,0,0,0,3.106l.706.111a1.572,1.572,0,0,1-.246,3.125h-.715a1.573,1.573,0,0,0-.486,3.068l.68.221a1.572,1.572,0,0,1-.732,3.048l-.706-.112a1.572,1.572,0,0,0-.959,2.954l.637.324a1.572,1.572,0,0,1-1.2,2.9l-.679-.221a1.572,1.572,0,0,0-1.41,2.767l.578.42a1.572,1.572,0,0,1-1.638,2.673l-.637-.325a1.572,1.572,0,0,0-1.825,2.513l.506.505a1.572,1.572,0,0,1-2.036,2.383l-.578-.42a1.572,1.572,0,0,0-2.2,2.2l.42.578a1.572,1.572,0,0,1-2.384,2.036l-.5-.505a1.573,1.573,0,0,0-2.513,1.826l.324.636a1.572,1.572,0,0,1-2.673,1.638l-.419-.578a1.572,1.572,0,0,0-2.767,1.41l.221.679a1.572,1.572,0,0,1-2.9,1.2l-.324-.637a1.572,1.572,0,0,0-2.954.96l.113.706a1.572,1.572,0,0,1-3.049.731l-.22-.68a1.572,1.572,0,0,0-3.068.486v.715a1.572,1.572,0,0,1-3.125.246l-.111-.706a1.572,1.572,0,0,0-3.106,0l-.111.706a1.572,1.572,0,0,1-3.125-.246v-.715a1.572,1.572,0,0,0-3.068-.486l-.22.68a1.572,1.572,0,0,1-3.049-.731l.113-.706a1.572,1.572,0,0,0-2.954-.96l-.324.637a1.572,1.572,0,0,1-2.9-1.2l.221-.679a1.572,1.572,0,0,0-2.767-1.41l-.42.578a1.572,1.572,0,0,1-2.673-1.638l.325-.636a1.572,1.572,0,0,0-2.513-1.826l-.505.505a1.572,1.572,0,0,1-2.384-2.036l.42-.578a1.572,1.572,0,0,0-2.2-2.2l-.578.42a1.572,1.572,0,0,1-2.036-2.383l.506-.505a1.572,1.572,0,0,0-1.825-2.513l-.637.325a1.572,1.572,0,0,1-1.638-2.673l.578-.42a1.572,1.572,0,0,0-1.41-2.767l-.679.221a1.572,1.572,0,0,1-1.2-2.9l.637-.324a1.572,1.572,0,0,0-.959-2.954l-.707.112a1.572,1.572,0,0,1-.731-3.048l.68-.221a1.573,1.573,0,0,0-.486-3.068H1143a1.572,1.572,0,0,1-.246-3.125l.706-.111a1.572,1.572,0,0,0,0-3.106l-.706-.111a1.572,1.572,0,0,1,.246-3.125h.715a1.572,1.572,0,0,0,.486-3.067l-.68-.221a1.572,1.572,0,0,1,.731-3.048l.707.112a1.572,1.572,0,0,0,.959-2.955l-.637-.324a1.572,1.572,0,0,1,1.2-2.9l.679.221a1.572,1.572,0,0,0,1.41-2.767l-.578-.419a1.572,1.572,0,0,1,1.638-2.673l.637.324a1.572,1.572,0,0,0,1.825-2.512l-.506-.505a1.572,1.572,0,0,1,2.036-2.384l.578.42a1.572,1.572,0,0,0,2.2-2.2l-.42-.578a1.572,1.572,0,0,1,2.384-2.036l.505.5a1.572,1.572,0,0,0,2.513-1.825l-.325-.637a1.572,1.572,0,0,1,2.673-1.637l.42.578a1.572,1.572,0,0,0,2.767-1.41l-.221-.679a1.572,1.572,0,0,1,2.9-1.2l.324.637a1.572,1.572,0,0,0,2.954-.96l-.113-.706a1.572,1.572,0,0,1,3.049-.732l.22.68a1.572,1.572,0,0,0,3.068-.486v-.714a1.572,1.572,0,0,1,3.125-.246l.111.706A1.572,1.572,0,0,0,1185.432,2738.949Z" transform="translate(-1141.425 -2569.487)"/>
      <path id="Path_1789" data-name="Path 1789" class="cls-3" d="M1262.234,2527.445c-40.721,11.985-82.824-13.754-91.02-52.986-7.842-37.537,17.63-76.534,57.455-84.268Z" transform="translate(-1160.489 -2390.191)"/>
      <path id="Path_1790" data-name="Path 1790" class="cls-4" d="M71.73,99.589H0V27.858L35.865,0,71.73,27.858Z" transform="translate(208.48 48.221) rotate(22)"/>
      <path id="Path_1791" data-name="Path 1791" class="cls-5" d="M1416.292,2695.868l1.862-11.792a1.808,1.808,0,0,1,3.594.282l-.005,11.939a1.808,1.808,0,0,0,3.528.559l3.684-11.356a1.808,1.808,0,0,1,3.506.841l-1.873,11.791a1.808,1.808,0,0,0,3.4,1.1l5.414-10.64a1.808,1.808,0,0,1,3.33,1.379l-3.694,11.353a1.808,1.808,0,0,0,3.182,1.621l7.012-9.661a1.808,1.808,0,0,1,3.074,1.883l-5.425,10.635a1.808,1.808,0,0,0,2.89,2.1l8.437-8.446a1.808,1.808,0,0,1,2.742,2.342l-7.022,9.655a1.808,1.808,0,0,0,2.526,2.526l9.655-7.022a1.808,1.808,0,0,1,2.341,2.741l-8.446,8.438a1.808,1.808,0,0,0,2.1,2.889l10.634-5.424a1.808,1.808,0,0,1,1.884,3.073l-9.662,7.013a1.808,1.808,0,0,0,1.622,3.182l11.353-3.695a1.808,1.808,0,0,1,1.379,3.331l-10.64,5.415a1.808,1.808,0,0,0,1.1,3.4l11.79-1.874a1.808,1.808,0,0,1,.842,3.506l-11.356,3.684a1.808,1.808,0,0,0,.559,3.528l11.938-.006a1.808,1.808,0,0,1,.283,3.594l-11.792,1.862a1.808,1.808,0,0,0,0,3.572l11.792,1.861a1.808,1.808,0,0,1-.283,3.594l-11.938-.005a1.807,1.807,0,0,0-.559,3.527l11.356,3.684a1.808,1.808,0,0,1-.842,3.505l-11.79-1.873a1.808,1.808,0,0,0-1.1,3.4l10.64,5.415a1.808,1.808,0,0,1-1.379,3.331l-11.353-3.695a1.808,1.808,0,0,0-1.622,3.183l9.662,7.012a1.808,1.808,0,0,1-1.884,3.074l-10.634-5.425a1.808,1.808,0,0,0-2.1,2.89l8.446,8.438a1.808,1.808,0,0,1-2.341,2.741l-9.655-7.022a1.808,1.808,0,0,0-2.526,2.526l7.022,9.655a1.808,1.808,0,0,1-2.742,2.341l-8.437-8.446a1.808,1.808,0,0,0-2.89,2.1l5.425,10.635a1.808,1.808,0,0,1-3.074,1.884l-7.012-9.662a1.808,1.808,0,0,0-3.182,1.621l3.694,11.353a1.808,1.808,0,0,1-3.33,1.379l-5.414-10.64a1.808,1.808,0,0,0-3.4,1.1l1.873,11.791a1.808,1.808,0,0,1-3.506.841l-3.684-11.355a1.808,1.808,0,0,0-3.528.558l.005,11.938a1.808,1.808,0,0,1-3.594.283l-1.862-11.792a1.808,1.808,0,0,0-3.572,0l-1.862,11.792a1.808,1.808,0,0,1-3.594-.283l.006-11.938a1.808,1.808,0,0,0-3.528-.558l-3.684,11.355a1.808,1.808,0,0,1-3.505-.841l1.874-11.791a1.808,1.808,0,0,0-3.4-1.1l-5.415,10.64a1.808,1.808,0,0,1-3.331-1.379l3.694-11.353a1.808,1.808,0,0,0-3.182-1.621l-7.012,9.662a1.808,1.808,0,0,1-3.074-1.884l5.425-10.635a1.808,1.808,0,0,0-2.89-2.1l-8.437,8.446a1.808,1.808,0,0,1-2.742-2.341l7.022-9.655a1.808,1.808,0,0,0-2.525-2.526l-9.655,7.022a1.808,1.808,0,0,1-2.341-2.741l8.445-8.438a1.808,1.808,0,0,0-2.1-2.89l-10.634,5.425a1.808,1.808,0,0,1-1.884-3.074l9.662-7.012a1.809,1.809,0,0,0-1.622-3.183l-11.352,3.695a1.808,1.808,0,0,1-1.38-3.331l10.64-5.415a1.808,1.808,0,0,0-1.1-3.4l-11.791,1.873a1.808,1.808,0,0,1-.842-3.505l11.356-3.684a1.807,1.807,0,0,0-.559-3.527l-11.938.005a1.808,1.808,0,0,1-.283-3.594l11.792-1.861a1.808,1.808,0,0,0,0-3.572l-11.792-1.862a1.808,1.808,0,0,1,.283-3.594l11.938.006a1.808,1.808,0,0,0,.559-3.528l-11.356-3.684a1.808,1.808,0,0,1,.842-3.506l11.791,1.874a1.808,1.808,0,0,0,1.1-3.4l-10.64-5.415a1.808,1.808,0,0,1,1.38-3.331l11.352,3.695a1.808,1.808,0,0,0,1.622-3.182l-9.662-7.013a1.808,1.808,0,0,1,1.884-3.073l10.634,5.424a1.808,1.808,0,0,0,2.1-2.889l-8.445-8.438a1.808,1.808,0,0,1,2.341-2.741l9.655,7.022a1.808,1.808,0,0,0,2.525-2.526l-7.022-9.655a1.808,1.808,0,0,1,2.742-2.342l8.438,8.446a1.808,1.808,0,0,0,2.89-2.1l-5.425-10.635a1.808,1.808,0,0,1,3.074-1.883l7.012,9.661a1.808,1.808,0,0,0,3.182-1.621l-3.694-11.353a1.808,1.808,0,0,1,3.331-1.379l5.415,10.64a1.808,1.808,0,0,0,3.4-1.1l-1.874-11.791a1.808,1.808,0,0,1,3.505-.841l3.684,11.356a1.808,1.808,0,0,0,3.528-.559l-.006-11.939a1.808,1.808,0,0,1,3.594-.282l1.862,11.792A1.808,1.808,0,0,0,1416.292,2695.868Z" transform="translate(-1222.669 -2493.67)"/>
    </g>
    <g id="Group_2075" data-name="Group 2075" transform="translate(1398.473 945.679)">
      <circle id="Ellipse_12" data-name="Ellipse 12" cx="2.145" cy="2.145" r="2.145" transform="translate(0 0)"/>
      <circle id="Ellipse_13" data-name="Ellipse 13" cx="2.145" cy="2.145" r="2.145" transform="translate(8.58 2.145)"/>
      <path id="Path_1792" data-name="Path 1792" d="M914.95,2731.179c-.328.968,1.736,3.077,4.076,3.432,2.083.316,4.45-.749,4.5-1.716a1.075,1.075,0,0,0-.536-.858c-1.035-.669-2.14.88-3.754.573-1.655-.315-2.1-2.249-3.4-2.038A1.133,1.133,0,0,0,914.95,2731.179Z" transform="translate(-912.806 -2722.17)"/>
    </g>
    <g id="Group_2076" data-name="Group 2076" transform="translate(1240.531 1040.612)">
      <ellipse id="Ellipse_12-2" data-name="Ellipse 12" cx="2.145" cy="2.145" rx="2.145" ry="2.145" transform="translate(8.58)"/>
      <ellipse id="Ellipse_13-2" data-name="Ellipse 13" cx="2.145" cy="2.145" rx="2.145" ry="2.145" transform="translate(0 2.145)"/>
      <path id="Path_1792-2" data-name="Path 1792" d="M923.5,2731.179c.328.968-1.736,3.077-4.076,3.432-2.083.316-4.45-.749-4.5-1.716a1.076,1.076,0,0,1,.536-.858c1.035-.669,2.14.88,3.754.573,1.655-.315,2.1-2.249,3.4-2.038A1.133,1.133,0,0,1,923.5,2731.179Z" transform="translate(-912.772 -2722.17)"/>
    </g>
    <g id="Group_2077" data-name="Group 2077" transform="translate(1367.395 1083.453) rotate(13)">
      <ellipse id="Ellipse_12-3" data-name="Ellipse 12" cx="2.145" cy="2.145" rx="2.145" ry="2.145" transform="translate(0 0)"/>
      <ellipse id="Ellipse_13-3" data-name="Ellipse 13" cx="2.145" cy="2.145" rx="2.145" ry="2.145" transform="translate(8.58 2.145)"/>
      <path id="Path_1792-3" data-name="Path 1792" d="M.034.624C-.293,1.592,1.77,3.7,4.111,4.056c2.083.316,4.45-.749,4.5-1.716a1.075,1.075,0,0,0-.536-.858c-1.035-.67-2.14.879-3.754.572C2.67,1.739,2.227-.195.928.016A1.133,1.133,0,0,0,.034.624Z" transform="translate(2.11 8.385)"/>
    </g>
    <g id="Group_2078" data-name="Group 2078" transform="matrix(-0.951, -0.309, 0.309, -0.951, 1267.958, 966.107)">
      <ellipse id="Ellipse_12-4" data-name="Ellipse 12" cx="2.145" cy="2.145" rx="2.145" ry="2.145" transform="translate(0 8.208)"/>
      <ellipse id="Ellipse_13-4" data-name="Ellipse 13" cx="2.145" cy="2.145" rx="2.145" ry="2.145" transform="translate(8.58 6.062)"/>
      <path id="Path_1792-4" data-name="Path 1792" d="M.034,3.488C-.293,2.521,1.77.411,4.111.057c2.083-.316,4.45.749,4.5,1.716a1.075,1.075,0,0,1-.536.858c-1.035.67-2.14-.879-3.754-.572C2.67,2.374,2.227,4.308.928,4.1A1.133,1.133,0,0,1,.034,3.488Z" transform="translate(2.11 0)"/>
    </g>
  </g>
</svg>
