<svg xmlns="http://www.w3.org/2000/svg" width="300.922" height="45.405" viewBox="0 0 300.922 45.405">
  <defs>
    <style>
      .cls-1 {
        fill: #303030;
      }

      .cls-2 {
        fill: #4a0970;
      }
    </style>
  </defs>
  <g id="Group_2154" data-name="Group 2154" transform="translate(-1008.793 -1549.49)">
    <path id="Path_1814" data-name="Path 1814" class="cls-1" d="M1008.793,1549.49h10.459v44.852h-10.459Z" transform="translate(0 0)"/>
    <path id="Path_1815" data-name="Path 1815" class="cls-1" d="M1112.588,1625.075h9.844v3.568c3.138-2.83,6.891-4.122,12-4.122,7.937,0,12.244,4.368,12.244,11.689V1658.3h-9.844v-20.119c0-3.507-2.03-5.106-6.337-5.106-4.922,0-8.06,2.215-8.06,5.66V1658.3h-9.844Z" transform="translate(-88.475 -63.957)"/>
    <path id="Path_1816" data-name="Path 1816" class="cls-1" d="M1376.031,1625.075h9.844v3.568c3.138-2.83,6.891-4.122,12-4.122,7.937,0,12.244,4.368,12.244,11.689V1658.3h-9.844v-20.119c0-3.507-2.03-5.106-6.337-5.106-4.922,0-8.06,2.215-8.06,5.66V1658.3h-9.844Z" transform="translate(-313.034 -63.957)"/>
    <path id="Path_1817" data-name="Path 1817" class="cls-1" d="M1655.32,1624.521c12.49,0,18.888,6.275,18.888,17.412,0,10.582-6.645,16.919-18.827,16.919-12.3,0-18.827-6.337-18.827-17.165C1636.555,1630.919,1643.138,1624.521,1655.32,1624.521Zm.061,26.148c5.107,0,8.8-3.2,8.8-8.86,0-5.906-3.569-9.105-8.8-9.105-5.168,0-8.8,3.2-8.8,8.983S1650.213,1650.669,1655.381,1650.669Z" transform="translate(-535.104 -63.957)"/>
    <path id="Path_1818" data-name="Path 1818" class="cls-1" d="M1917.562,1628.272l7.567,22.7,8.737-22.7h10.89l-14.335,33.224h-10.829l-12.92-33.224Z" transform="translate(-765.352 -67.154)"/>
    <path id="Path_1819" data-name="Path 1819" class="cls-2" d="M2308.354,1549.49v17.719h-20.488V1549.49h-95.242v44.852h36.3v-8.921h-25.656v-9.783h24.425v-8.921h-24.425v-8.155h43.011l.858,35.78h10.521l-.367-35.78h20.117v35.78h10.459V1576.13h20.488v18.212h10.458V1549.49Z" transform="translate(-1009.098)"/>
  </g>
</svg>
