<svg id="MXV_WHITE" data-name="MXV WHITE" xmlns="http://www.w3.org/2000/svg" width="255.176" height="53.333" viewBox="0 0 255.176 53.333">
  <defs>
    <style>
      .cls-1 {
        fill: #fff;
      }
    </style>
  </defs>
  <g id="Layer_1" data-name="Layer 1">
    <circle id="Ellipse_1" data-name="Ellipse 1" class="cls-1" cx="6.884" cy="6.884" r="6.884" transform="translate(4.571 38.352)"/>
    <path id="Path_1" data-name="Path 1" class="cls-1" d="M418.626,53.325,389.634,53.2,379.02,38.752,365.586,53.2H335.6l2.643-2.844L384.833,0H415.4l-.016,3.846c-.69.026-1.25.024-1.639.019a4.811,4.811,0,0,0-1.213.05,3.09,3.09,0,0,0-1.163.529L409.556,6.2c-2.474,2.4-4.325,4.378-7.761,8.126-1.85,2.012-3.926,4.28-6.191,6.773l19.145,26.639a7.736,7.736,0,0,0,1.821,1.116,7.9,7.9,0,0,0,2.062.579Z" transform="translate(-246.883 0.008)"/>
    <path id="Path_2" data-name="Path 2" class="cls-1" d="M667.87,0h26.414l26.7,53.2H696.056c-1.6-3.281-22.335-45.567-24.035-47.753a4.8,4.8,0,0,0-1.451-1.235,4.637,4.637,0,0,0-2.7-.407Z" transform="translate(-491.316 0.008)"/>
    <path id="Path_3" data-name="Path 3" class="cls-1" d="M214.05,49.468l.032,3.7h-30q.034-1.938.069-3.881a2.926,2.926,0,0,0,1.687-.708,3.2,3.2,0,0,0,.965-2.63q.333-20.662.093-41.749-.024-2.115-.055-4.23h28.978l-.093,3.86a11.2,11.2,0,0,0-1.417,0,3.2,3.2,0,0,0-2.255.7,2.735,2.735,0,0,0-.587,2.234l-.056,39.124a3.373,3.373,0,0,0,.513,2.128A3.436,3.436,0,0,0,214.05,49.468Z" transform="translate(-135.418 0.03)"/>
    <path id="Path_4" data-name="Path 4" class="cls-1" d="M28.093.045c2.141,4.264,4.013,8.3,6.154,12.187,4.2,7.629,8.52,15.2,12.887,22.734a2.113,2.113,0,0,1-.341,2.762L36.817,50.492c-.3.389-.627.759-.907,1.161-1.467,2.115-2.644,2.062-3.939-.1-4.523-7.6-9.012-15.222-13.614-22.774C13.437,20.712,8.4,12.71,3.408,4.687A3.13,3.13,0,0,0,2.572,3.8,3.865,3.865,0,0,0,.016,3.207L0,0Z" transform="translate(0 0.008)"/>
    <path id="Path_5" data-name="Path 5" class="cls-1" d="M329.91,0H359.7l5.988,7.666q-6.971,7.175-13.836,14.949-.793.894-1.562,1.782a1.166,1.166,0,0,1-.767.346,1.232,1.232,0,0,1-.986-.529c-7.587-10.045-13.094-17.336-13.958-18.568a3.839,3.839,0,0,0-1.372-1.25,3.727,3.727,0,0,0-1.821-.423L330,3.992Q329.955,2,329.91,0Z" transform="translate(-242.697 0.008)"/>
    <path id="Path_6" data-name="Path 6" class="cls-1" d="M841.9,0h32.616V3.762a6.2,6.2,0,0,0-3.437.857,5.861,5.861,0,0,0-1.887,1.932c-.891,1.422-4.632,8.586-9.517,18.5L858,28.265a1.321,1.321,0,0,1-.809.428,1.494,1.494,0,0,1-1.446-.989Z" transform="translate(-619.34 0.008)"/>
  </g>
</svg>
