<svg xmlns="http://www.w3.org/2000/svg" width="45.478" height="45.478" viewBox="0 0 45.478 45.478">
  <path id="B_collector" data-name="B collector" d="M22.739,15.159a7.58,7.58,0,1,0,7.58,7.58A7.58,7.58,0,0,0,22.739,15.159Zm0,11.369a3.79,3.79,0,1,1,3.79-3.79A3.794,3.794,0,0,1,22.739,26.528Zm0-22.739A18.949,18.949,0,1,1,3.79,22.739,18.97,18.97,0,0,1,22.739,3.79Zm0-3.79A22.739,22.739,0,1,0,45.477,22.739,22.74,22.74,0,0,0,22.739,0Zm8.849,8.188a17.142,17.142,0,0,1,5.7,5.7L32.046,16.22a11.43,11.43,0,0,0-2.789-2.787Zm-17.7,29.1a17.149,17.149,0,0,1-5.7-5.7l5.243-2.331a11.389,11.389,0,0,0,2.787,2.787L13.89,37.289Z" fill="#1e1e1e"/>
</svg>
