<svg xmlns="http://www.w3.org/2000/svg" width="48.636" height="52.42" viewBox="0 0 48.636 52.42">
  <defs>
    <style>
      .cls-1 {
        fill: #3d0b56;
      }
    </style>
  </defs>
  <path id="Path_3398" data-name="Path 3398" class="cls-1" d="M643.528,147.079a1.649,1.649,0,0,0-1.6-.074l-14.385,7.089L613.3,147.079l-.14-.074a.781.781,0,0,0-.173-.074,1.539,1.539,0,0,0-.181-.058l-.148-.025c-.082-.008-.157-.016-.231-.016s-.148.008-.231.016a1.063,1.063,0,0,0-.157.033.737.737,0,0,0-.165.049,1.208,1.208,0,0,0-.313.148l-14.97,7.378a1.649,1.649,0,0,0-.923,1.484V197.6a1.649,1.649,0,0,0,2.382,1.476l14.385-7.089L626.67,199l.14.074a1.219,1.219,0,0,0,.289.107,1,1,0,0,0,.214.049c.082.008.157.016.231.016a2.023,2.023,0,0,0,.223-.017,1.08,1.08,0,0,0,.223-.049,1.355,1.355,0,0,0,.42-.181l14.978-7.378a1.661,1.661,0,0,0,.915-1.484V148.481a1.668,1.668,0,0,0-.775-1.4ZM625.9,183.037a5.912,5.912,0,0,1-4.262-5.671v-9a9.214,9.214,0,0,0-7.559-9.051v-6.384a1.115,1.115,0,0,1,1.608-1l9.15,4.512a1.9,1.9,0,0,1,1.063,1.708Zm-25.84-26.612,9.15-4.513a1.091,1.091,0,0,1,1.574.978v6.422a9.214,9.214,0,0,0-7.551,9.051v4.583a1.712,1.712,0,0,0,1.363,1.715,1.649,1.649,0,0,0,1.935-1.625v-4.674a5.9,5.9,0,0,1,4.254-5.663v25.24a1.907,1.907,0,0,1-1.063,1.709l-9.142,4.51a1.115,1.115,0,0,1-1.608-1V158.181A1.957,1.957,0,0,1,600.055,156.425Zm14.022,6.276a5.892,5.892,0,0,1,4.262,5.663v9a9.215,9.215,0,0,0,7.559,9.059v6.73a1.116,1.116,0,0,1-1.609,1l-9.15-4.512a1.9,1.9,0,0,1-1.062-1.7Zm25.868,26.944-9.142,4.51a1.115,1.115,0,0,1-1.608-1v-6.73a9.216,9.216,0,0,0,7.551-9.059v-4.227a1.72,1.72,0,0,0-1.368-1.725,1.649,1.649,0,0,0-1.93,1.625v4.328a5.9,5.9,0,0,1-4.254,5.671V158.148a1.906,1.906,0,0,1,1.062-1.709l9.142-4.51a1.115,1.115,0,0,1,1.609,1V187.94a1.907,1.907,0,0,1-1.065,1.7Z" transform="translate(-595.667 -146.832)"/>
</svg>
