<svg id="W_ARTIST" data-name="W ARTIST" xmlns="http://www.w3.org/2000/svg" width="45.478" height="45.514" viewBox="0 0 45.478 45.514">
  <g id="Group_982" data-name="Group 982" transform="translate(0 0)">
    <g id="Group_981" data-name="Group 981" transform="translate(0 0)">
      <path id="Path_1113" data-name="Path 1113" d="M32.794,3.035a10.377,10.377,0,0,0-17.715,7.51L4.383,24.58l-.007.009a4.931,4.931,0,0,0-.428,5.195L.637,33.095a1.483,1.483,0,0,0,2.1,2.1l3.311-3.311a4.929,4.929,0,0,0,5.195-.428l.009-.007,14.035-10.7a10.367,10.367,0,0,0,7.509-3.034h0A10.392,10.392,0,0,0,32.794,3.035ZM9.457,29.083a1.937,1.937,0,0,1-2.711-2.71l9.989-13.107,5.829,5.829Zm15.99-11.3-7.4-7.4A7.421,7.421,0,0,1,19.27,6.288l10.27,10.27A7.424,7.424,0,0,1,25.446,17.783Zm6.194-3.319L21.365,4.189A7.415,7.415,0,0,1,31.64,14.464Z" transform="translate(-0.203 0.001)" fill="#fff"/>
    </g>
  </g>
  <g id="Group_984" data-name="Group 984" transform="translate(13.282 17.281)">
    <g id="Group_983" data-name="Group 983">
      <path id="Path_1114" data-name="Path 1114" d="M154.25,194.84a1.483,1.483,0,0,0-2.1,0l-2.1,2.1a1.483,1.483,0,1,0,2.1,2.1l2.1-2.1A1.483,1.483,0,0,0,154.25,194.84Z" transform="translate(-149.622 -194.406)" fill="#fff"/>
    </g>
  </g>
  <g id="Group_986" data-name="Group 986" transform="translate(19.773 17.832)">
    <g id="Group_985" data-name="Group 985">
      <path id="Path_1115" data-name="Path 1115" d="M247.687,200.849a1.483,1.483,0,0,0-1.382-.149l-14.829,5.932a1.483,1.483,0,0,0-.932,1.377v11.848a6.488,6.488,0,0,0-2.472-.479c-3.112,0-5.438,2.047-5.438,4.449s2.327,4.449,5.438,4.449,5.438-2.05,5.438-4.449v-8.882l11.864-4.745v6.692a6.489,6.489,0,0,0-2.472-.479c-3.114,0-5.438,2.05-5.438,4.449,0,2.416,2.345,4.449,5.438,4.449,3.114,0,5.437-2.05,5.437-4.449V202.077A1.483,1.483,0,0,0,247.687,200.849ZM228.071,225.31c-1.415,0-2.472-.783-2.472-1.483s1.057-1.483,2.472-1.483,2.472.783,2.472,1.483S229.486,225.31,228.071,225.31ZM245.373,207l-11.864,4.745v-2.737l11.864-4.745ZM242.9,222.344c-1.415,0-2.472-.783-2.472-1.483s1.057-1.483,2.472-1.483,2.472.783,2.472,1.483S244.316,222.344,242.9,222.344Z" transform="translate(-222.634 -200.594)" fill="#fff"/>
    </g>
  </g>
</svg>
