<svg xmlns="http://www.w3.org/2000/svg" width="366.999" height="160" viewBox="0 0 366.999 160">
  <g id="WHITE_MXV" data-name="WHITE MXV" transform="translate(6361.399 9209.779)">
    <g id="Layer_2" data-name="Layer 2" transform="translate(-6074.871 -9130.7)">
      <g id="Layer_1" data-name="Layer 1" transform="translate(0 0)">
        <path id="Path_1623" data-name="Path 1623" d="M.082,10.52a5.239,5.239,0,0,0,.667-.94C1.519,7.563,3.087,7.06,5.1,6.838,17.527,5.459,29.939,3.974,42.355,2.5,49.264,1.692,56.173.9,63.074.04a2.223,2.223,0,0,1,2.69,1.512q5.943,14.665,11.912,29.317c.9,2.216,1.853,4.4,2.8,6.618v1.059c-.352.31-.656.765-1.059.9-2.618.879-5.257,1.689-7.965,2.369l1.027-.7c-.633-.961-1.281-1.827-1.8-2.766-.654-1.181-1.48-.431-2.144-.164-.244.1-.334.919-.265,1.377.13.919.418,1.819.641,2.727l-.529.191c-.41-.7-.871-1.387-1.223-2.118-.67-1.4-1.588-.3-2.382-.265-.858.045-.564.68-.458,1.189.1.461.159.927.238,1.39l-.31.082-.649-2.465c-.977-.032-.757.529-.794,1.181A3.357,3.357,0,0,1,62,43.483c-.228.244-1.1-.114-1.676-.2.622-.156,1.408-.119,1.324-1.324-1.255,1.085-.929-.691-1.853-.765.2.77.379,1.453.556,2.136-1.464-.778-1.5-2.081-1.281-3.417H52.88c-.842,3.338-1.639,3.56-4.2,1.141L42.6,44.923l.05-.048-2.433,1.358.04-.048c-1.742.728-1.834.977-.979,2.573.32.6.625,1.2.937,1.8l-.336.22L37.59,47.387l-.479.225v2.049c-1.384-1.178-1.369-1.152-3.264-.087a8.306,8.306,0,0,1-1.641.482c-.551.161-1.093.331-1.408.426l-1.5-.59a8.843,8.843,0,0,0-.421,1.384c-.058.429.1.882.053,1.324-.071.744-.222,1.48-.355,2.316l1.776-.23c.037.132.077.265.116.394a37.91,37.91,0,0,1-3.878,1.686c-4.024,1.268-8.076,2.451-12.137,3.592a1.5,1.5,0,0,1-1.324-.529A10.258,10.258,0,0,1,11.912,57.1Q6.168,35.388.476,13.657A1.639,1.639,0,0,0,0,12.792M50.254,7.373h-.029l.6-.63-.024.042.921-1.022-1.559-.508,5.559-.889c-.455.749-.794,1.324-1.144,1.893l.037-.019-1.138-.024-.4-.265-.413.307.053-.048-.312.312.048-.048-.315.31.048-.045-.312.31L51.924,7l-.3.429a3.469,3.469,0,0,0-.712.754,12.691,12.691,0,0,0-.559,1.57L51.9,9.607a1.035,1.035,0,0,0,.18.064,4.405,4.405,0,0,0,1.228.2,5.638,5.638,0,0,0,1.249-.479h1.811l.265.024.331-.291-.048.029h.429l.114-.312.045.042-.061-.408a.953.953,0,0,0,.156-.154l.773-.214.41-.307-.048.053.31-.437.9-.9.553.026-.024-.026H60.9l-.034-.034c-.024.236-.05.471-.074.709V7.151l.111.424-.265.265-.188.069.188.175.246.241.307.307,2.118-.59c-.116.408-.45.924-.31,1.2.593,1.212-.029,1.424-1.032,1.588-3.476.564-6.944,1.178-10.414,1.776l-11.581,2a21.908,21.908,0,0,1,5.588,9.344c.291-.58.633-1.257.969-1.938.638-1.284,1.236-2.589,1.922-3.846.556-1.017,1.22-1.975,1.834-2.96l.156.175c-.4,1.567-.794,3.134-1.159,4.54-.167.016-.551-.064-.749.093a3.563,3.563,0,0,0-1.08,3.913c.437,1.244.969,2.462,1.3,3.732.381,1.459,1.03,2.165,2.66,1.729a14.87,14.87,0,0,1,2.867-.214v-.341L53.3,28.2l.966-1.059a6.292,6.292,0,0,0,5.683.68c-2.443,2.057-4.717,3.751-8.225,3.852l1.387,1.588c-.482,0-.982.024-1.482,0-1.893-.1-2.269.058-2.8,1.8a1.644,1.644,0,0,1-1.768,1.324c.143-.357.265-.633.363-.916s.161-.572.244-.868c-2.009-.289-2.118-.281-2.69,1.512a1.787,1.787,0,0,1-1.493,1.324c-5.154,1.324-10.295,2.721-15.438,4.1-.373.1-.736.244-1.1.368a5.136,5.136,0,0,0,2.806.249c6.748-2.089,13.808-3.113,20.314-6.02.347-.154.9.2,1.3.1,2.682-.68,5.35-1.414,8.018-2.147,2.457-.675,4.958-1.234,7.341-2.118,1.231-.453,1.654-.085,2.028.9q.508,1.342,1.022,2.682L67.913,32.9c-.281,1.432.871,2.79-.421,4.341l-2.3-4.026c-6.883,1.853-14.03,3.751-21.151,5.668-.408.109-1,.191-1.157.476-1.514,2.811-4.1,4.273-6.861,5.464-1.027.442-2.136.622-2.335,1.977,0,.029-.156.037-.294.066.106-.987-.431-1.167-1.271-1.08-.958.1-1.93.106-2.893.164a1.435,1.435,0,0,0-.355.119l.45.662c-.9.283-.985,1.149-.249,2.666,1.7-.461,3.441-.874,5.151-1.414A16.34,16.34,0,0,0,39.1,45.847c2.565-1.837,5.461-3.2,8.177-4.839a6.138,6.138,0,0,0,1.5-1.535c.5-.63.855-1.31,1.89-.927a8.306,8.306,0,0,0,2.684.643c2.382.029,4.765-.114,7.126-.175a19.648,19.648,0,0,0,3.627-.1,45.888,45.888,0,0,0,5.278-1.673c.3-.106.482-.529.717-.815.876,1.167,1.811,2.3,2.6,3.521.434.672.794.929,1.588.606a3.489,3.489,0,0,0,2.057-3.087c0-.2.265-.389.357-.6.172-.368.307-.752.463-1.128.1-.265.175-.694.331-.728,1.167-.249.731-.94.482-1.588-1.059-2.695-2.163-5.371-3.163-8.087A1.707,1.707,0,0,0,73.043,24a1.078,1.078,0,0,0,.529-1.665c-.389-.709-.688-1.469-1.027-2.205l-.762-1.909c-.754-1.909-1.554-3.8-2.247-5.731-.349-.969-.794-1.678-1.935-1.588l.024.042.913-1.464L65.451,5.4l.993-.585c-.328-.543-.622-1.038-1.011-1.686l-.529.921-.688-.794-.683,1.141-.482.013H62.7l-.265.265h.04a.206.206,0,0,1-.236.013l-.278-.026h-.447a1.881,1.881,0,0,0-.116.217l.037.021c-.365-1.488-1.339-.882-2.208-.641-.069-.842-.529-1.138-1.324-.94-1,.244-1.387-.222-1.366-1.159.119.124.214.312.357.368,1.038.392,2.218.13,3.211,1.011.379.334,1.533-.2,2.29-.339a8.609,8.609,0,0,1,0-1.265c.143-.879-.04-1.2-1.059-.99-1.361.281-2.769.32-4.145.543-.249.04-.434.458-.651.7-.164-.116-.336-.336-.5-.328-1.527.071-3.063.111-4.58.294Q36.584,3.924,21.67,5.766c-2.292.281-4.582.59-6.869.876.22,2.131.22,2.131-2.528,2.615-.371,1.141.386,1.146,1.173,1.324l-1.983.191-.148.3,1.588.717.019-.029-.214.159.032.429-.434-.026v-.026l-.7.7.045-.013v.569c-.037.034-.071.069-.106.106h-.577l.019-.034-.7.709.04-.026c0,.14.016.283.026.426-.09.087-.177.177-.265.265l-.421-.026v-.019l-1.194.871,1.345.2.106,1.159,1.461-.736c.9.815,1.5-.214,2.242-.363l.283.244.41-.026q.691-.529,1.377-1.08v.037l-.1-.551.529.1h-.034c.225-.217.453-.431.675-.654v.034l-.1-.545.265-.265.281-.05c1.5-.31,2-1.649,3.243-2.671l-1.567-.082a14.243,14.243,0,0,1,9.212-1.7c.2.026.357.376.529.574l-1.448.506h-.111c-.381-.1-.794-.352-1.138-.265a5.448,5.448,0,0,0-1.324.7c.506-.609.021-.683-.379-.569a4.452,4.452,0,0,0-1.083.664c-.453.037-1.059-.1-1.324.14a29.715,29.715,0,0,0-2.213,2.4c-.1.116-.2.236-.3.355a.474.474,0,0,0-.1.082.164.164,0,0,0,.019.077l.04-.193.331.2.167.529c.646,1.535.643,1.535,2.118.794a1.63,1.63,0,0,1,.349-.093H22.5l.069-.026.069-.021c.5,0,1,.019,1.493-.026a8.672,8.672,0,0,0,1.109-.246l.024.021c.135-.1.265-.2.408-.291l.249-.265.265-.265.265-.265.265-.265.439.066h-.032l.974-.969v.032l-.064-.455.265-.265.3-.405.029.037.9-.945H29.5l.617.058h-.029l.7-.654v.034l-.2-.529c.733.289,1.477-1.04,2.208,0L32.775,9.1a.212.212,0,0,1-.2.135l.037-.042-.844.823.048-.045c.238,1.834-1.361,2.629-2.263,3.817l.289.336,1.8-1.257h-.019c.974.913,1.792.471,2.57-.3.6,1.144,1.234.087,1.853.026H36.2l.341-.3-.042.04.307-.307-.045.034.426.019-.024-.019.41-.291.265-.265.434.061H38.23l.736-.667v.032l-.053-.469.265-.265.474.077h-.026l.5-.048.244.241.159.286-.265.265-.686.736.717.05.236-.236.026-.021.151-.016c.386.111.794.368,1.152.3a4.634,4.634,0,0,0,1.242-.683c.209.161.479.5.619.455a21.292,21.292,0,0,0,1.975-.858h-.032l.439-.3-.053.037.439.019-.029-.021.4-.283.445.058h-.034c.331-.31.659-.617.985-.929v.034c-.026-.164-.056-.331-.082-.5l.265-.265.5.093h-.029l.908-1-.034.019-.032-.437ZM28.616,13.66l.048-.18a.81.81,0,0,1-.019.212l-.177.061c.026,0,.064.019.077,0a.46.46,0,0,0,.071-.093ZM9.644,13.4l.416-.286.265-.265c.2-.191.405-.384.606-.58V12.3l-.4-.514a1.587,1.587,0,0,1-.161.016l.156-1.194c-.794.093-1.5.228-2.224.249-.818.024-1.641-.053-2.465-.09,1.789-.148,3.621-.1,5.183-1.249l-1.194-.22,3.907-1.35.479.3c.1-.169.334-.418.286-.5-.209-.349-.553-.953-.749-.916-1.215.225-2.716-.341-3.457,1.085-.286-.236-.514-.577-.794-.617-2.3-.339-3.823,1.157-3.627,3.515-.964-.037-.715.357-.418.942A1.265,1.265,0,0,1,5.363,12.9c-.143.175-.731.064-1.088-.032a9.408,9.408,0,0,1-1.353-.627,11.362,11.362,0,0,0,.156,1.588c.5,1.962,1.077,3.9,1.527,5.877.222.982.59,1.429,1.615,1.014.1-.04.265.077.7.222l-1.752.641c.132.529.244.985.368,1.443q1.906,7.081,3.82,14.157c.193.712.119,1.734,1.414,1.324.074-.021.281.392.487.691l-1.324.214c1.533,5.413,3.039,10.729,4.426,15.618,1.324-.019,2.555-.389,3.322.048s1.152,1.7,1.816,2.78c1.459-.384,3.3-.823,5.1-1.379a1.314,1.314,0,0,0,.619-1.059c-.034-1.268-.323-2.533-.3-3.8.026-1.339-.741-2.086-1.572-2.928a27.3,27.3,0,0,1-2.052-2.607c1.914-.469,1.824-.458,2,1.038a7.348,7.348,0,0,0,.905,2.02l.291-.18V45.2a7.6,7.6,0,0,0-6.758-.855c-3.558,1.12-2.957,1.244-3.915-2.4a1.186,1.186,0,0,1,.032-.381,17.29,17.29,0,0,1,.929,2.1c.143.307.617.72.866.675,1.448-.265,2.877-.651,4.617-1.059-1.276-.934-2.3-1.6-3.232-2.382-2.541-2.118-4.783-4.437-5.429-7.9-.331-1.768-.934-3.486-1.324-5.244-.339-1.5-1.136-2.912-.328-4.593.431-.9.241-2.094.347-3.343l-1.218.22.212,1.991-.514.04-.18-1.938a.384.384,0,0,1-.222.061C7.2,19.907,6.165,17.782,6.3,15.78c.087-1.308,1.207-.982,2.009-1.141.119-.024.22-.138.328-.209l-.034.021c.86.1,1.146-.323,1.014-1.122v.037ZM48.8,10.3a.2.2,0,0,1,.019.024l-.265.037ZM24.354,19.1l-.265-.079a12.408,12.408,0,0,0-2.232,1.964c-2.417,3.441-1.816,8.206,1.557,11.544,4.683,4.627,11.555,3.341,13.236-1.879a17.113,17.113,0,0,0,.487-4.106c-.447-3.722-2.888-6.088-5.991-7.854A11.723,11.723,0,0,0,28.528,18C27.049,17.959,25.463,17.739,24.354,19.1ZM12.209,51.75c-.048,1.853.919,4.839,1.6,5.056-.2-1.125-.328-2.285-.641-3.394a6.9,6.9,0,0,0-.99-1.639,14.67,14.67,0,0,0-.2-2.351c-.678-2.78-1.4-5.546-2.189-8.3a7.116,7.116,0,0,0-1.083-1.665,4.067,4.067,0,0,0,.3-1.784C7.706,32.606,6.3,27.56,4.91,22.5a4.606,4.606,0,0,0-.349-.731l-.373.032a8.119,8.119,0,0,0-.164,1.969c.312,1.771.7,3.534,1.157,5.271C6.173,32.8,7.229,36.526,8.27,40.264a1.742,1.742,0,0,0,.265.4,6.2,6.2,0,0,1,.831,1.361c.18.564.066,1.218.222,1.792.614,2.25,1.271,4.5,1.948,6.716a6.687,6.687,0,0,0,.672,1.215Zm13.9,3.762.246.349c1.231-.14,1.657-.794,1.445-2.059a34.9,34.9,0,0,1-.315-3.534,1.1,1.1,0,0,1,.185-.762c.474-.492.794-3.264.246-3.513a7.125,7.125,0,0,0-2.512-.4,1.3,1.3,0,0,0-.376.964c.281,1.257.67,2.491,1.032,3.778h1.324c-.622.566-.972.882-1.355,1.234.506,1.03-.479,2.6,1.1,3.357ZM19.555,41.055l.265.529L32.9,37.971a2.692,2.692,0,0,0-1.694-.469c-3.507.829-7,1.726-10.477,2.66C20.291,40.282,19.944,40.748,19.555,41.055ZM3.349,21.9l.67-.019A7.853,7.853,0,0,0,4.1,19.767c-.559-2.332-1.236-4.633-1.872-6.946l-.556.119C1.2,16.1,2.936,18.893,3.349,21.9Zm42.712,3.208v7.47c2.279-.341,2.541-.688,1.853-2.78C47.366,28.161,46.648,26.575,46.061,25.112ZM48.79,40.2A23.875,23.875,0,0,0,50.8,41.789a2.121,2.121,0,0,0,.794-.956c.151-.781-.842-2.089-1.429-1.922-.413.13-.715.654-1.369,1.292Zm7.65-10.213c-2.194-1.006-4.061-.416-4.235,1.228ZM2.144,8.551A1.432,1.432,0,0,0,3.288,10.52c.185.042.752-.529.728-.794C3.923,8.665,3.2,8.384,2.144,8.551ZM16.367,59.008c.363-.794.794-1.292.67-1.559-.2-.476-.733-.813-1.128-1.21-.23.289-.707.656-.646.85A11.211,11.211,0,0,0,16.367,59.008ZM63.222.911l1.419,1.853c.842-.461.725-1.077.265-1.66C64.514.572,64.019.035,63.23.911ZM17.471,58.55a1.758,1.758,0,0,0,.3-2.547,1.181,1.181,0,0,0-1.853-.368C17.4,56.054,17.94,56.946,17.471,58.55ZM49.6,31.608l.678.135c.087-.566.185-1.133.228-1.7a3.857,3.857,0,0,0-.672-.159Q49.711,30.745,49.6,31.608ZM3.5,7.447l1.467,3.018C5.03,9.935,5.289,9.34,5.1,9A8.221,8.221,0,0,0,3.5,7.447ZM79.37,38.7l.323.114a3.554,3.554,0,0,0,.064-1.324c-.135-.379-.572-.649-.876-.966l-.3.265Z" transform="translate(0 -0.004)" fill="#fff"/>
        <path id="Path_1624" data-name="Path 1624" d="M154.3,169.538c1,.042,1.991.135,2.983.109,1.059-.026,2.118-.169,3.222-.124l-4.235.979a5.844,5.844,0,0,1,.36,2,2.758,2.758,0,0,1-1.059,1.755,2.268,2.268,0,0,1-1.935-.127,3.307,3.307,0,0,1-1.665-3.33l-.04.048c1.072.019,2.277.265,2.433-1.358Zm1.2,3.386-.3-.3c-.373,0-.829.132-1.1-.034-.312-.191-.463-.646-.683-.987l-.429.2,1.133,2.488Z" transform="translate(-111.712 -124.624)" fill="#fff"/>
        <path id="Path_1625" data-name="Path 1625" d="M206.953,162.052c.715-1.075.159-3.362-.953-4.5l2.044-.728-.024-.228-.794-.167c.744-.588,1.31-.7,1.62.3a25.882,25.882,0,0,1,.688,2.549c.188.911.6,1.189,1.482.778a11.245,11.245,0,0,1,1.607-.476c.058.191.119.379.177.569Z" transform="translate(-151.468 -114.693)" fill="#fff"/>
        <path id="Path_1626" data-name="Path 1626" d="M168.167,172.66c.431,1.138.9,2.266,1.265,3.423a.923.923,0,0,1-.453.776c-1.387.484-2.8.889-4.5,1.408.2-.545.233-.81.379-.961s.4-.151.6-.228c.974-.376,2.3-.5,2.8-1.212.365-.529-.357-1.8-.577-2.75-.024-.1.085-.23.13-.347Z" transform="translate(-120.939 -126.955)" fill="#fff"/>
        <path id="Path_1627" data-name="Path 1627" d="M191.4,175.046l-4.106,1.207c-.037-1.207.694-1.7,3.158-2.163.328-.061.733.286,1.1.442Z" transform="translate(-137.715 -128.002)" fill="#fff"/>
        <path id="Path_1628" data-name="Path 1628" d="M234.16,165.076l3.664-1.146.191.529-3.582,1.242C234.332,165.492,234.247,165.285,234.16,165.076Z" transform="translate(-172.174 -120.536)" fill="#fff"/>
        <path id="Path_1629" data-name="Path 1629" d="M147.9,192.634l3.605-1.324A2.831,2.831,0,0,1,147.9,192.634Z" transform="translate(-108.748 -140.668)" fill="#fff"/>
        <path id="Path_1630" data-name="Path 1630" d="M100.959,81.744l-.569.858A9.327,9.327,0,0,0,97.8,72.492c-2.888-2.732-6.292-3.526-10.311-1.2.455-.6.675-.889.9-1.178l.283.082a8.969,8.969,0,0,1,2.337-.7c1.48-.032,2.962.18,4.445.289,3.1,1.779,5.543,4.132,5.991,7.854A17.1,17.1,0,0,1,100.959,81.744Z" transform="translate(-64.33 -51.102)" fill="#fff"/>
        <path id="Path_1631" data-name="Path 1631" d="M265.212,61.665c-1.337-2.224-2.573-4.479-2.433-7.375l2.2,3.836.762,1.911c.042.508.082,1.017.122,1.512Z" transform="translate(-193.21 -39.92)" fill="#fff"/>
        <path id="Path_1632" data-name="Path 1632" d="M231.514,106.607c.908-.14,1.819-.251,2.716-.431s1.752-.429,2.629-.646c.164.193.328.389.5.582a8.47,8.47,0,0,0-.863.188c-1,.312-1.988.672-3,.95-.265.071-.582-.146-.874-.14-.394,0-1.04-.016-1.138.188-.585,1.215-1.549.879-2.459.831l-.151-.339,2.682-1.22Z" transform="translate(-168.284 -77.596)" fill="#fff"/>
        <path id="Path_1633" data-name="Path 1633" d="M212.556,66.66c.5-3.56-.927-6.541-5.276-6.8,1.533-.686,3-.3,4.347,1.157S213.842,65.127,212.556,66.66Z" transform="translate(-152.41 -43.771)" fill="#fff"/>
        <path id="Path_1634" data-name="Path 1634" d="M231.25,116.885c1.782-.434,3.441-1.588,5.44-.916C235.732,116.842,234.36,117.086,231.25,116.885Z" transform="translate(-170.034 -85.12)" fill="#fff"/>
        <path id="Path_1635" data-name="Path 1635" d="M249.619,40.914c.265.765-.053,1.128-.794,1.384-.172.058-1.527-.265-.082,1.167l-.72-.265a4.109,4.109,0,0,1-.445-.837c-.021-.071.365-.225.516-.386.336-.357.625-.768.982-1.1.087-.085.363.034.553.064Z" transform="translate(-182.039 -30.035)" fill="#fff"/>
        <path id="Path_1636" data-name="Path 1636" d="M259.517,73.36v2.716C258.125,74.5,258.1,73.9,259.517,73.36Z" transform="translate(-190.045 -53.942)" fill="#fff"/>
        <path id="Path_1637" data-name="Path 1637" d="M236.044,104.842h-1.03l-.034-.177,4.476-1.485.114.318L236,104.879Z" transform="translate(-172.777 -75.868)" fill="#fff"/>
        <path id="Path_1638" data-name="Path 1638" d="M274,89l.556.405.887,1.49-.357.289.474,1.162-.331.13Q274.6,90.742,274,89Z" transform="translate(-201.468 -65.441)" fill="#fff"/>
        <path id="Path_1639" data-name="Path 1639" d="M54.545,182.663l1.088-1.382-.114-.167-.977.529-.265-.871c-.31.482-.508.794-.866,1.337-.461-.635-1.305-1.5-1.178-1.678a10.024,10.024,0,0,1,1.991-1.734,7.7,7.7,0,0,0,.715.776c.209.169.529.447.688.381a1.255,1.255,0,0,0,.633-.709c.135-.453,0-1,.188-1.419a1.988,1.988,0,0,1,.916-.953c.167-.077.622.323.866.585a13.586,13.586,0,0,1,.911,1.2l-3.4,1.652c.135.291.529.765.413.95a12.772,12.772,0,0,1-1.379,1.713Z" transform="translate(-38.398 -129.973)" fill="#fff"/>
        <path id="Path_1640" data-name="Path 1640" d="M58.8,173.34c1.167,0,1.448,1.035.757,2.867Z" transform="translate(-43.235 -127.455)" fill="#fff"/>
        <path id="Path_1641" data-name="Path 1641" d="M76.42,206.5c-1.546,1.3-3.2,1-4.67-.667C73.036,207.1,74.527,207.283,76.42,206.5Z" transform="translate(-52.757 -151.345)" fill="#fff"/>
        <path id="Path_1642" data-name="Path 1642" d="M181.375,8.718l-6.353.776-.032-.265L181.3,8.17Z" transform="translate(-128.667 -6.008)" fill="#fff"/>
        <path id="Path_1643" data-name="Path 1643" d="M90.694,84.55c-.492,2.737-.977,5.146,1.572,7.2C89.763,90.779,89,87.118,90.694,84.55Z" transform="translate(-66.018 -62.169)" fill="#fff"/>
        <path id="Path_1644" data-name="Path 1644" d="M109.533,83.154l.559,1.678c-1.1-2.668-2.854-4.339-5.871-4.543l2.631.148Z" transform="translate(-76.631 -59.037)" fill="#fff"/>
        <path id="Path_1645" data-name="Path 1645" d="M116.842,83.176,114.16,80.46c.2-.045.447-.188.609-.124a5.223,5.223,0,0,1,3.055,5.9Z" transform="translate(-83.94 -59.059)" fill="#fff"/>
        <path id="Path_1646" data-name="Path 1646" d="M245.831,130.39l1.639,2.42-1.059,1-.821-3.232Z" transform="translate(-180.578 -95.875)" fill="#fff"/>
        <path id="Path_1647" data-name="Path 1647" d="M240.92,137.817c.09-.956.156-1.641.22-2.327C241.576,136.207,242.765,136.962,240.92,137.817Z" transform="translate(-177.145 -99.625)" fill="#fff"/>
      </g>
    </g>
    <g id="Layer_2-2" data-name="Layer 2" transform="translate(-6361.399 -9183.338)">
      <g id="Layer_1-2" data-name="Layer 1" transform="translate(0 0)">
        <path id="Path_1499" data-name="Path 1499" d="M71.906,20.2c-.056.538-.124,1.069-.161,1.606a24.282,24.282,0,0,1-1.854,8.125c-1.328,3-3.089,5.666-6.432,6.741a.575.575,0,0,0-.3.365c-.154.618-.29,1.192-.4,1.8-.2,1.149-.192,1.149-1.285,1.322-.031,0-.049.08-.136.216a9.471,9.471,0,0,1,1.8.259,1.99,1.99,0,0,1,1.112.809,2.935,2.935,0,0,1,.173,1.588,1.413,1.413,0,0,1-2.28,1.013c-.185-.105-.47,0-.711,0v.222l.247.117c.192.1.383.21.568.315-.148.179-.3.352-.457.531s-.272.235-.278.352v3.089a5.5,5.5,0,0,1,.908.1c.161.049.4.216.408.34V51.7a.309.309,0,0,1-.154.229c-.519.136-.4.556-.4.9q-.037,4.325-.049,8.6c0,1.378-.074,1.125,1.124,1.192.266,0,.741.13.748.229.037.451.093,1.2-.13,1.31-.618.321-.531.859-.618,1.322a3.244,3.244,0,0,1-2.811,2.768A3.162,3.162,0,0,1,57.176,66.4c-.13-.241-.266-.482-.482-.859a3.249,3.249,0,0,1-3.318,1.526c0,.389-.037.618-.056.933-.519-.451-.853-.42-1.044-.049-.21-.42-.321-1.069-.7-1.365a2.808,2.808,0,0,0-2.861-.655,3.2,3.2,0,0,1-.945.173c-1.186.1-1.47-.216-1.273-1.384l-.1-.161-3.089.717a2.471,2.471,0,0,1,0,.822c-.124.278-.346.686-.562.711a1.9,1.9,0,0,0-1.551,1.285,2.051,2.051,0,0,1-.544.692,2.03,2.03,0,0,0-.618,2.113,5.66,5.66,0,0,1,.142,1A25.461,25.461,0,0,1,40,74.564a4.653,4.653,0,0,1-.482,1.137c.043.13.2.358.167.556-.154.84-.371,1.668-.562,2.5-.148.618-.278,1.236-.47,1.854-.13.426-.4.816-.525,1.236-.476,1.656-.785,3.373-1.409,4.943A28.912,28.912,0,0,1,32,94.032c-2.243,2.793-4.69,5.419-6.438,8.582-.618,1.094-.7,1.18-1.773,1.032l-.389-.062a.84.84,0,0,1,.049-.2c1.433-2.132,2.793-4.325,4.325-6.376,1.718-2.323,3.664-4.479,5.369-6.8a17.392,17.392,0,0,0,3.565-8.588,3.188,3.188,0,0,0-.062-.871c-.117-.568-.309-1.131-.408-1.705-.216-1.3-.451-2.595-.581-3.9a38.75,38.75,0,0,1-.216-4.059c0-1.291.167-2.576.259-3.892-.581-.074-1-.111-1.409-.179a6.8,6.8,0,0,1-1.236-.259c-.229-.08-.581-.365-.562-.513.148-1.026-.519-1.18-1.267-1.285-.3-.037-.587-.1-.877-.136a1.9,1.9,0,0,1-1.9-1.959c0-.284-.062-.568-.105-1-.3.26-.476.414-.655.581-1.613,1.489-3.244,2.972-4.832,4.486a8.649,8.649,0,0,0-.933,1.236c-.136-.321-.649-.433-1.044-.043.29-2.651.575-5.264.853-7.878l-.192-.111c-.173.124-.4.21-.507.377-.235.358-.371.779-.618,1.137q-2.132,3.157-4.325,6.308a6.623,6.623,0,0,1-.655.766,12.673,12.673,0,0,0-1.236,1.335c-1.328,1.934-2.589,3.917-3.923,5.845a4.232,4.232,0,0,1-1.124.846c-.3.21-.7.346-.89.618-2.255,3.4-4.479,6.8-6.71,10.219L.142,89.726C0,87.971,0,86.253,0,84.536a2.286,2.286,0,0,1,.334-1.094c1.353-2.125,2.756-4.214,4.109-6.339.618-.976,1.576-1.8,1.236-3.219-.093-.377-.087-.618-.457-.828a3.707,3.707,0,0,1-1.44-4.714,3.736,3.736,0,0,1,4.325-1.625,2.014,2.014,0,0,0,1.335,0c.921-.216,1.075-1.013,1.5-1.662,1.637-2.521,3.361-4.992,5.054-7.482.068-.1.173-.253.142-.315-.439-.84.266-1.279.655-1.779a2.317,2.317,0,0,0,.544-1.742,5.931,5.931,0,0,1,1.724-4.795,1.576,1.576,0,0,1,1.5-.618,12.176,12.176,0,0,0,1.724,0c-.352-3.948-.7-7.828-1.038-11.511l1.038-.111a5.9,5.9,0,0,0,.661,1.2c2.057,2.3,4.177,4.547,6.179,6.871.531.618,1.149.476,1.736.5.2,0,.408-.525.618-.809.037-.056.093-.1.161-.179.062.272.111.507.167.741a20.482,20.482,0,0,0,.087-2.6,96.857,96.857,0,0,0-.531-11.591,1.575,1.575,0,0,1,1.279-1.786,1.668,1.668,0,0,0,.488-.142,1.471,1.471,0,0,0,.272-.408c-.148-.043-.315-.148-.451-.117-.4.111-.8.266-1.2.414-.117-1.384,1.384-1.174,1.854-1.915l-.173-.266-1.736.692a4.893,4.893,0,0,1,.284-.735,1.827,1.827,0,0,1,1.9-.982c-.148-.247-.29-.482-.445-.488-.816-.049-1.267.5-1.637,1.236.056-1.279.383-2.23,1.854-2.379-.809-.84-1.124,0-1.6.358a13.436,13.436,0,0,1,0-1.854,4.911,4.911,0,0,0,.278-1.909,6.827,6.827,0,0,1,.513-2.817,4.782,4.782,0,0,1,.68-1.131l.148.111a.949.949,0,0,1-.074.352l.951-.618.068.13-.179.4a3.343,3.343,0,0,1,3.361-.167,1.316,1.316,0,0,0,.884.105c.488-.185.976,0,1.489-.173s1.236.247,1.854.309.884.216,1.019.766c0,.074.235.1.482.192.124.834.334,1.854.414,2.854.124,1.446.154,2.9.216,4.325.08,1.854.2,3.769.2,5.647,0,.884-.309,1.761-.34,2.644-.08,2.91-.074,5.826-.154,8.743a6.428,6.428,0,0,0,1.236,3.139,7.613,7.613,0,0,0,.723-.846c1.854-1.934,3.781-3.837,5.647-5.783.661-.692,1.65-1.174,1.594-2.391.334.618.686.661,1.236.037-.859,8.106-2.329,15.99-1.155,23.96l1.5.476-.426-.47c1.05.3,1.959.618,2.373,1.557.3.68.723.667,1.3.544,0-.185.049-.352.049-.519V53.106c0-.482.284-1.106-.476-1.359-.068,0-.074-.266-.074-.408V50.152c0-1.335,0-1.335,1.335-1.545V45.432l-.667-.581.729-.816a1.923,1.923,0,0,1-.976-2,1.551,1.551,0,0,1,1.514-1.711c-.278-.167-.352-.247-.432-.247-.853-.043-1.143-.618-1.186-1.341-.068-1.019-.105-2.045-.161-3.163-1.7.093-2.712-1.168-3.707-2.422a17.09,17.09,0,0,1-1.711-2.675,28.644,28.644,0,0,1-2.589-17.732,19.66,19.66,0,0,1,3.108-8.366,6.162,6.162,0,0,1,2.774-2.564c.976-.383,1.94-.809,2.9-1.236a6.568,6.568,0,0,1,5.394,0,10.077,10.077,0,0,1,4.325,3.911,23.808,23.808,0,0,1,3.546,10.275A33.1,33.1,0,0,1,71.906,20.2Zm-38.19,3.4ZM23.478,47.39c0,.321.062.618.08.958.087,1.477.482,1.854,1.989,1.9.544,0,1.087,0,1.631.031a3.089,3.089,0,0,1,.748.241c.3.111.618.247.884.365l.494.2,1.1.457-.259-2.564-1.279-.167c.056-.686.136-1.359.148-2.039a1.514,1.514,0,0,0-.21-.884c-.809-1.057-1.643-2.1-2.527-3.089-.766-.859-1.625-1.631-2.416-2.471-.4-.432-.735-.933-1.155-1.47C22.959,41.749,23.213,44.567,23.478,47.39Zm26.877-5.437c-.964,1.3-1.934,2.533-2.867,3.862a1.65,1.65,0,0,0-.241.914c0,.859.062,1.718.105,2.644l-1.5.087v1.9c.575.037,1.162.062,1.742.111,1.18.1,2.366.192,3.546.334.154,0,.334.284.4.476a4.225,4.225,0,0,1,.086.914c.4-.778.327-1.094-.093-1.532a.828.828,0,0,1-.142-.618q.358-3.707.748-7.414l.426-4.325-.179-.056Q51.368,40.612,50.355,41.953ZM34.291,44.542a1.39,1.39,0,0,0,.222,1.18,3.089,3.089,0,0,1,.321,2.255,18.01,18.01,0,0,0,.062,3.46c0,.179.383.451.618.47.735.056,1.477,0,2.218,0,.556,0,.463-.42.476-.741.08-2.836.161-5.678.216-8.514V37.566c-1.433,2.385-2.811,4.659-4.109,6.976Zm4.405-8.65h1.279a.513.513,0,0,1,.371.167c.21.3.365.618.562.958s.42.618.729,1.057V37.4c-.087-1.236-.179-2.416-.259-3.621a.618.618,0,0,0-.717-.661l-5.925.062c-.587,0-.828.3-.809.89.062,2.391.111,4.782.161,7.173v1.773ZM25.388,54.137a6.135,6.135,0,0,1-.3.76c-.507.877-1.032,1.742-1.538,2.62a1.681,1.681,0,0,0-.259.618c-.29,2.428-.562,4.856-.834,7.285a2.4,2.4,0,0,0,.068.389c1.359-1.576,2.638-3.089,3.923-4.547.5-.575,1.019-1.137,1.514-1.718a.723.723,0,0,0,.192-.426c-.1-1.674-.216-3.343-.34-5.147ZM40.476,32.661c.686,0,.89-.266.754-.89a4.98,4.98,0,0,0-.272-1.143c-.124-.266-.426-.618-.667-.618-1.922-.087-3.843-.111-5.765-.124-.55,0-.741.334-.748.877,0,1.823-.037,1.854,1.81,1.854h2.144v.031C38.647,32.655,39.543,32.624,40.476,32.661Zm-.229,9.354c-.062,3.009-.154,6.018-.21,9.027,0,.284-.222.754.346.809a.766.766,0,0,0,.927-.618,13.488,13.488,0,0,0,.383-4.325,18.406,18.406,0,0,1,0-3.825c.222-2.508.136-2.471-1.236-5.171h-.241C40.253,39.3,40.278,40.668,40.247,42.015ZM38.1,53.847a2.96,2.96,0,0,1-.618.037c-.161,0-.3-.154-.463-.185-1.477-.3-2.076.148-2.156,1.656-.043.859-.049,1.718-.037,2.576,0,.457.185.816.735.809h2.546Zm11.739-.538v3.367c0,1.1,0,2.175.086,3.25.074.964.618,1.4,1.322,1.069a.84.84,0,0,0,.451-.575c-.08-2.36-.21-4.72-.327-7.179ZM32.666,62.917c-.272-.618-.562-1.372-.914-2.088-.068-.148-.352-.2-.544-.278-.315-.117-.618-.21-1.013-.334a1.316,1.316,0,0,0-.772,1.681,1.854,1.854,0,0,1,.031.371c.105,1.625.278,1.773,1.928,1.656l-.105-.185Zm12.858.8c.29-.161.661-.445.711-.723a24.806,24.806,0,0,0,.235-2.6h-1.44l-1.353,2.669c.568.494,1.069,1.069,1.847.655Zm-9.008,6.827a.711.711,0,0,0,.859.7,8.335,8.335,0,0,0,.877,0c.3-.056.816-.179.834-.327.049-.389.241-.84-.383-1.162a5.06,5.06,0,0,1-1.236-1.347,8.417,8.417,0,0,1-.618-.884l-.315.037C36.5,68.583,36.453,69.559,36.515,70.548Zm4.7-12.783c0-1.106-.068-2.218-.043-3.324,0-.828-.365-.964-1.106-.741v5C41.118,58.7,41.211,58.7,41.217,57.764Zm6.049-12.617c.995-1.446,2.07-2.842,2.768-3.794l-4.325,4.115a.995.995,0,0,0,1.557-.321Zm-1.409,8.3v3.021h.908l.259-3.021ZM28.866,54.687c.086,1.019.086,1.019,1.236.871,0-.3.049-.618.068-.927.086-1.347.08-1.347-1.4-1.162.031.451.062.84.093,1.236Zm15.15-6.179a16.974,16.974,0,0,1,0-1.773V45.191h-.2c0,.222-.049.445-.056.661v4.8a2.471,2.471,0,0,0,.284.741l.414-.117c-.167-.921-.34-1.847-.439-2.737Zm.47,11.362c.074-.173-.235-.55-.439-.779-.117-.13-.365-.148-.47-.192l-.618,3.837.1.056C43.546,61.823,44.065,60.866,44.486,59.871ZM27.952,61.286c.2-.192.222-.562.327-.846l-.241-.13q-1.236,1.5-2.533,2.99l.1.093C26.389,62.695,27.186,62.021,27.952,61.286ZM35.366,60l-.488.21v.154c.272,0,.544-.068.816-.087a2.162,2.162,0,0,1,.488,0c.2.037.389.1.581.148a2.774,2.774,0,0,0,0-.785c0-.068-.371-.056-.568-.062h-1.3Zm8.3-1.65h.086V53.779H43.67Zm15.9-5.635H59.5v4.825h.068ZM37.942,60.841v-.124H35v.124ZM33.574,22.392a1.328,1.328,0,0,0,.358-.21c-.117-.142-.284-.426-.334-.408a9.676,9.676,0,0,0-1,.525l.142.235C33.018,22.491,33.3,22.46,33.574,22.392Zm6.08-1.236v-.544l.439.259.08-.068-.673-.723-.1.544-.4-.309v.927h.117l.093-.525ZM34.8,18.487c-.259.439-1.236-.3-1.094.686l1.106-.2.161.309.136-.062Zm3.973.834-.433-.278v.828h.136l.124-.42.451.334.049-.859h-.185Zm5.48,34.2h-.105v1.742h.105ZM40.222,21.583h-.13l-.117.439-.377-.309v.9h.124l.043-.5.457.365Zm3.6,9.212-.9.488.723.618Z" transform="translate(0 -0.002)" fill="#fff"/>
      </g>
    </g>
    <g id="Layer_2-3" data-name="Layer 2" transform="translate(-6186.191 -9209.779)">
      <g id="Layer_1-3" data-name="Layer 1">
        <path id="Path_1087" data-name="Path 1087" d="M3.444,2.16c.395.321.785.646,1.186.959.042.033.182.063.344.154a2.128,2.128,0,0,1,.617.515v.058L7.622,5.632l.316.03a.746.746,0,0,0,0-.31C7.6,4.633,7.246,3.913,6.9,3.2A1.506,1.506,0,0,1,6.7,2.576c.462.9.925,1.8,1.366,2.679Q8.386,2.636,8.7,0l.183.017c-.051.389-.117.776-.154,1.166q-.154,2.007-.3,4.014a1.123,1.123,0,0,0,.125.383A1.509,1.509,0,0,0,8.9,5.293c.409-.646.8-1.3,1.233-1.939C9.8,4.184,9.177,4.9,8.874,5.739l.133.094L12.783,3l.082.1L9.25,6.017l.076.144,2.268-.772.034.086L10,6.066a1.835,1.835,0,0,0-.385.157,1.344,1.344,0,0,0-.239.275,1,1,0,0,0,.308.135q2.667.144,5.333.271a3.744,3.744,0,0,1,.982.1H10.509c.771.337,1.478.639,2.178.94l-.039.084c-.385-.157-.771-.321-1.158-.472-.561-.219-1.122-.443-1.7-.632a1.371,1.371,0,0,0-.516.045,2.359,2.359,0,0,0,.247.371c1.019,1.084,2.046,2.16,3.069,3.242a2.086,2.086,0,0,1,.154.261L9.179,7.33l-.137.1L10.3,10.212l-.1.037L8.92,7.533a.462.462,0,0,0-.331.062.426.426,0,0,0-.125.338c0,.337-.2,2.715-.479,6.061l-.1-.009c.173-3.388.3-5.635.338-5.855a.493.493,0,0,0,0-.262,1.612,1.612,0,0,0-.154-.275c-.085.068-.207.12-.248.206C7.465,8.532,7.133,9.272,6.783,10a19.523,19.523,0,0,1-1.03,1.958q1.03-2.237,2.041-4.476L7.67,7.4c-1.387,1.389-2.536,3.023-4.1,3.864L7.594,7.146c-.031-.052-.062-.105-.094-.157L3.3,8.358l-.032-.082,4.081-1.4c-.009-.045-.017-.089-.025-.135-2.484-.186-4.995.4-7.32-.1.478.009,1.162.016,2,0l.453-.009c1.115-.026,1.989-.073,2.575-.144a17.075,17.075,0,0,0,2.507-.144c0-.076.011-.144.015-.226L2.522,4.506l.028-.079,4.816,1.49.035-.06L3.365,2.236Z" fill="#fff"/>
      </g>
    </g>
    <g id="Layer_2-4" data-name="Layer 2" transform="translate(-6260.243 -9162.87)">
      <g id="Layer_1-4" data-name="Layer 1">
        <path id="Path_1088" data-name="Path 1088" d="M35.022,8.161c-1.107-.3-2.213-.607-3.323-.9-.677-.177-1.364-.316-2.045-.479a1.06,1.06,0,0,0-1.261,1.19,3.511,3.511,0,0,0,.469.982,7.056,7.056,0,0,0,.543.7l-.151.127c-.385-.466-.788-.919-1.152-1.4a1.246,1.246,0,0,0-2.111.13c-.428.864-.818,1.743-1.231,2.612-.117.247-.257.485-.385.727l-.172-.077c.336-.76.677-1.516,1.008-2.28.208-.482.385-.976.607-1.451a.59.59,0,0,0-.232-.847,1.116,1.116,0,0,0-.758-.091,11.173,11.173,0,0,0-1.3.512l-.107-.224a4.627,4.627,0,0,1,.855-.439c1.248-.331,1.25-.958.358-1.853-.1-.1-.247-.161-.348-.348a2.393,2.393,0,0,1,.489.128.589.589,0,0,0,.9-.329,1.09,1.09,0,0,0-.088-.781,14.892,14.892,0,0,0-.855-1.355l.165-.125c.177.217.351.435.53.648.509.607.9,1.352,1.938,1.149.368-.071.6-.164.745-.5.385-.9.77-1.811,1.169-2.708.147-.3.325-.583.483-.875l.177.078a4.489,4.489,0,0,1-.158.586c-.419,1.006-.876,2-1.268,3.016-.333.868-.067,1.174.835.924a19.234,19.234,0,0,0,2-.8l.52-.215.231.259a4.133,4.133,0,0,0-.419.115c-.673.255-1.354.492-2.008.787-.257.117-.584.336-.646.57a.8.8,0,0,0,.527,1.055c.527.171,1,.324,1.509.466,1.2.341,2.4.673,3.6,1.013a3.517,3.517,0,0,1,.395.167ZM28.261,6.745a4.92,4.92,0,0,0,.285-1.1,1.246,1.246,0,0,0-1.14-1.311c-.9-.044-1.616.249-1.821.928-.229.761.2,1.318.463,1.934.011.027.114.016.171.021l.115-.529.517.906c.955-.143.5-.922.713-1.474Z" transform="translate(-20.082)" fill="#fff"/>
        <path id="Path_1089" data-name="Path 1089" d="M3.514,24.238,0,23.026l.105-.3,3.513,1.211Z" transform="translate(0 -19.491)" fill="#fff"/>
      </g>
    </g>
    <g id="MUSIC_ICON_" data-name="MUSIC ICON " transform="translate(-6251.139 -9184.067)">
      <g id="Layer_2-5" data-name="Layer 2" transform="matrix(0.788, -0.616, 0.616, 0.788, 0, 2.796)">
        <g id="Layer_1-5" data-name="Layer 1" transform="translate(0 0)">
          <path id="Path_1101" data-name="Path 1101" d="M1.276,1.391C1.844.943,2.377.508,3.042,0l1.5,1.8c-.822.665-1.584,1.33-2.419,1.887a.81.81,0,0,1-.9-.314.653.653,0,0,1,0-.786c.23-.242.7-.085.955.1a1.052,1.052,0,0,1,.278.327l.847-.665L2.377,1.052c-.4.29-.786.544-1.125.835a.955.955,0,0,1-.8.3.556.556,0,0,1-.363-.314A.629.629,0,0,1,.26,1.04a.6.6,0,0,1,.822.278Z" fill="#fff"/>
        </g>
      </g>
    </g>
    <g id="Layer_2-6" data-name="Layer 2" transform="translate(-6136.955 -9189.027)">
      <g id="Layer_1-6" data-name="Layer 1">
        <path id="Path_1087-2" data-name="Path 1087" d="M2.2,1.378c.252.2.5.413.756.612.027.021.116.04.219.1a1.358,1.358,0,0,1,.393.329v.037l1.3,1.14.2.019a.476.476,0,0,0,0-.2C4.85,2.956,4.624,2.5,4.4,2.042a.961.961,0,0,1-.124-.4c.3.575.59,1.15.872,1.71q.2-1.671.405-3.353l.117.011c-.032.248-.075.5-.1.744q-.1,1.281-.189,2.561a.716.716,0,0,0,.08.244.963.963,0,0,0,.216-.184c.261-.413.51-.832.787-1.238-.216.53-.611.984-.8,1.522l.085.06,2.41-1.806.052.061L5.9,3.839l.048.092L7.4,3.439l.022.055-1.036.377a1.171,1.171,0,0,0-.246.1.857.857,0,0,0-.152.175.638.638,0,0,0,.2.086q1.7.092,3.4.173a2.389,2.389,0,0,1,.627.066H6.706c.492.215.943.408,1.39.6l-.025.053c-.246-.1-.492-.2-.739-.3-.358-.14-.716-.283-1.082-.4a.875.875,0,0,0-.33.028,1.505,1.505,0,0,0,.157.237c.65.692,1.305,1.378,1.959,2.069a1.331,1.331,0,0,1,.1.166L5.857,4.677l-.088.063.806,1.776-.061.024L5.692,4.807a.3.3,0,0,0-.212.04.272.272,0,0,0-.08.216c0,.215-.125,1.733-.306,3.868l-.066-.006c.11-2.162.19-3.6.215-3.736a.315.315,0,0,0,0-.167,1.029,1.029,0,0,0-.1-.175c-.054.043-.132.076-.158.131-.224.468-.436.94-.659,1.407a12.458,12.458,0,0,1-.657,1.249q.657-1.428,1.3-2.856l-.08-.058A12.971,12.971,0,0,1,2.275,7.185L4.846,4.56c-.02-.033-.039-.067-.06-.1L2.1,5.333l-.021-.052,2.6-.894c-.006-.028-.011-.057-.016-.086C3.086,4.182,1.483,4.553,0,4.237c.3.006.742.01,1.279,0l.289-.006c.711-.017,1.269-.047,1.643-.092a10.9,10.9,0,0,0,1.6-.092c0-.049.007-.092.01-.144L1.609,2.876l.018-.051L4.7,3.776l.023-.039L2.147,1.427Z" fill="#fff"/>
      </g>
    </g>
    <path id="music-f-svgrepo-com" d="M1.816,2.81V.228A.228.228,0,0,1,2.044,0h.006a.228.228,0,0,1,.228.228V3.44a1.105,1.105,0,0,1-.885,1.072A1.059,1.059,0,0,1,.029,3.949a1.059,1.059,0,0,1,.86-1.2,1.3,1.3,0,0,1,.928.063Z" transform="translate(-6213.917 -9169.018) rotate(40)" fill="#fff"/>
    <g id="music-fill-svgrepo-com" transform="matrix(0.966, 0.259, -0.259, 0.966, -6215.135, -9204.965)">
      <path id="Path_1125" data-name="Path 1125" d="M0,0H8.384V8.384H0Z" fill="none"/>
      <path id="Path_1126" data-name="Path 1126" d="M2.1,3.68V0H4.891V1.048h-2.1V4.891a1.4,1.4,0,1,1-.7-1.21Z" transform="translate(2.096 1.048)" fill="#fff"/>
    </g>
    <g id="music-note-svgrepo-com" transform="translate(-6242.367 -9202.782)">
      <path id="Path_1127" data-name="Path 1127" d="M5.747,11.7a.8.8,0,0,1-.873.7A.8.8,0,0,1,4,11.7a.8.8,0,0,1,.873-.7A.8.8,0,0,1,5.747,11.7Z" transform="translate(-4 -7.584)" fill="#fff"/>
      <path id="Path_1128" data-name="Path 1128" d="M8.349,3V6.493H8V3Z" transform="translate(-6.603 -2.378)" fill="#fff" fill-rule="evenodd"/>
      <path id="Path_1129" data-name="Path 1129" d="M8,1.779a.349.349,0,0,1,.281-.342l1.048-.21a.349.349,0,0,1,.418.342v.622L8,2.541Z" transform="translate(-6.603 -1.221)" fill="#fff"/>
    </g>
    <path id="music-svgrepo-com_1_" data-name="music-svgrepo-com (1)" d="M7.638.024l-5.2,1.534a.52.52,0,0,0-.364.5V6.3a2.257,2.257,0,0,0-.52-.064C.7,6.235,0,6.7,0,7.274S.7,8.313,1.559,8.313s1.559-.465,1.559-1.039V3.48L7.275,2.262v3a2.247,2.247,0,0,0-.52-.064C5.894,5.2,5.2,5.661,5.2,6.235s.7,1.039,1.559,1.039,1.559-.465,1.559-1.039V.519a.52.52,0,0,0-.676-.5Z" transform="matrix(0.883, -0.469, 0.469, 0.883, -6282.239, -9168.065)" fill="#fff"/>
    <g id="_-Product-Icons" data-name="ðŸ”-Product-Icons" transform="translate(-6271.005 -9192.563)">
      <g id="ic_fluent_music_24_filled" transform="translate(0 0)">
        <path id="_-Color" data-name="ðŸŽ¨-Color" d="M5.969,2.262a.262.262,0,0,1,.354-.245l2.228.836a1.135,1.135,0,0,1,.737,1.063V5.057a.262.262,0,0,1-.354.245L6.493,4.387V7.414a.263.263,0,0,1-.006.056c0,.039.006.079.006.119a1.6,1.6,0,0,1-1.747,1.4A1.6,1.6,0,0,1,3,7.589a1.6,1.6,0,0,1,1.747-1.4,2,2,0,0,1,1.223.4Z" transform="translate(-3 -1.999)" fill="#fff"/>
      </g>
    </g>
    <g id="_-Product-Icons-2" data-name="ðŸ”-Product-Icons" transform="matrix(0.891, -0.454, 0.454, 0.891, -6164.27, -9188.386)">
      <g id="ic_fluent_music_24_filled-2" data-name="ic_fluent_music_24_filled" transform="translate(0 0)">
        <path id="_-Color-2" data-name="ðŸŽ¨-Color" d="M2.969.262A.262.262,0,0,1,3.323.017L5.552.852a1.135,1.135,0,0,1,.737,1.063V3.058a.262.262,0,0,1-.354.245L3.493,2.387V5.415a.263.263,0,0,1-.006.056c0,.039.006.079.006.119a1.6,1.6,0,0,1-1.747,1.4A1.6,1.6,0,0,1,0,5.59a1.6,1.6,0,0,1,1.747-1.4,2,2,0,0,1,1.223.4Z" fill="#fff"/>
      </g>
    </g>
    <path id="Path_1658" data-name="Path 1658" d="M283.375,265.357c1.5,2.89-.75,8.546-4.374,11.087a11.128,11.128,0,0,1-14.883-16.273c3.27-3.979,9.436-5.14,13.659-2.51-2.442-.937-4.9-1.609-7.514-.76a1.25,1.25,0,0,0,.646,1.422,10.052,10.052,0,0,0,1.724.995,13.268,13.268,0,0,1,4.833,3.458A7.364,7.364,0,0,0,283.375,265.357Zm-.151,3.812c-.849-.089-1.593-.109-2.317-.25a26.755,26.755,0,0,1-3.39-.807,9.973,9.973,0,0,1-2.786-1.307,4.348,4.348,0,0,0-2.375-.953,7.056,7.056,0,0,1-5.14-2.718,3.979,3.979,0,0,0-2.854-1.562c-.521-.047-.932.026-1.109.521-.422,1.166-.823,2.343-1.177,3.531-.172.573.156.859.708,1.094a19.721,19.721,0,0,1,6.088,3.807,14.961,14.961,0,0,0,9.165,4.343c1.791.177,3.124-.333,3.874-1.989.4-.864.792-1.739,1.135-2.6A4.991,4.991,0,0,0,283.224,269.169Zm-4.093,6.551a1.718,1.718,0,0,0-.333-.135,23.07,23.07,0,0,1-10.248-3.6c-1.927-1.26-4.067-2.083-6.067-3.156-.078-.042-.219.026-.328.042.3,4.072,3.291,7.254,7.119,8.67,3.442,1.255,7.9.281,9.858-1.817Z" transform="translate(-6439.742 -9427.902)" fill="#fff" stroke="#fff" stroke-width="1"/>
    <path id="Path_1659" data-name="Path 1659" d="M196.705,210.065c.233.125.482.228.7.374a2.268,2.268,0,0,0,1.861.386,15.73,15.73,0,0,1,2.55-.15l1.072-.029c.166,0,.366-.087.486-.021,1.1.606,1.79-.141,2.546-.723a1.109,1.109,0,0,0,.415-1.371,10.724,10.724,0,0,1-.187-2.351c-.025-.449-.137-.731-.669-.789-1.026-.12-1.312-.756-.8-1.661.083-.141.187-.266.332-.465-.885-.64-.274-1.312-.129-2.043.2-1.055,1.134-.831,1.811-1.2l-.415-.627-.856.469a2.013,2.013,0,0,1-.062-.444,1.246,1.246,0,0,0-1.117-1.42c-.527-.046-.752.357-.968.727s-.415.806-.677,1.312a1.994,1.994,0,0,1-.66-1.379c-.042-1.072-.473-1.366-1.582-1.15.058.12.083.274.166.328a1.5,1.5,0,0,1,.76,1.574c-.025.365.382.76.586,1.13a10.859,10.859,0,0,1-1.7,1.018c-.752.287-.253,1.317-1.026,1.545-.27-1.483-.91-1.815-2.139-1a7.086,7.086,0,0,1,.665.652c.083.1.062.282.087.415-.145.021-.316.1-.415.058a2.443,2.443,0,0,1-1.117-2.363,1.275,1.275,0,0,0-.1-1.03c-.478.025-.635.415-.831.748a7.061,7.061,0,0,0-.851,6.006,5.852,5.852,0,0,1-.461-1.246,7.7,7.7,0,0,1,.714-4.282l-.831.091c.15-.611.444-1.013.989-.959a.6.6,0,0,0,.635-.32c.345-.473.831-.831.922-1.5.042-.291.253-.465.669-.37a1.794,1.794,0,0,0,.993-.249A7.47,7.47,0,1,1,197.689,211a5.585,5.585,0,0,1-.984-.935Zm9.474-6.724c-.112-.336-.212-.627-.32-.947a.681.681,0,0,0-.415.93c.046.174.37.345.594.382a1.927,1.927,0,0,0,1.57-.249C207.159,202.344,207.084,202.335,206.179,203.34Z" transform="translate(-6427.505 -9385.272)" fill="#fff" stroke="#fff" stroke-width="1"/>
    <path id="Path_1660" data-name="Path 1660" d="M220.4,305.187c.238.21.472.419.7.618.028.021.108.042.206.1a1.264,1.264,0,0,1,.37.332v.035l1.226,1.156.189.017a.545.545,0,0,0,0-.2c-.2-.465-.416-.926-.625-1.4a1.048,1.048,0,0,1-.119-.4c.279.58.555,1.16.824,1.726q.189-1.687.381-3.385h.112c-.031.252-.073.5-.091.751q-.1,1.3-.178,2.585a.744.744,0,0,0,.073.248.947.947,0,0,0,.206-.182c.245-.419.479-.842.741-1.251-.206.534-.576.992-.758,1.537l.08.059,2.267-1.824.052.059-2.176,1.88.045.094,1.366-.5.021.056-.978.381a1.068,1.068,0,0,0-.234.1,1.046,1.046,0,0,0-.143.178.574.574,0,0,0,.189.087c1.069.063,2.138.119,3.21.175a2.141,2.141,0,0,1,.59.066h-3.308l1.31.608-.024.052c-.231-.1-.461-.206-.7-.3-.349-.14-.674-.286-1.02-.409a.806.806,0,0,0-.311.028,1.676,1.676,0,0,0,.147.245c.615.7,1.233,1.4,1.848,2.1a1.216,1.216,0,0,1,.094.168l-2.148-2.267-.084.063.762,1.792-.059.024-.776-1.747a.255.255,0,0,0-.2.042.279.279,0,0,0-.073.217c0,.217-.119,1.747-.29,3.906h-.063c.1-2.183.182-3.633.2-3.773a.325.325,0,0,0,0-.168.933.933,0,0,0-.087-.178c-.052.045-.126.077-.15.133-.21.472-.409.95-.618,1.422a13.149,13.149,0,0,1-.618,1.261q.608-1.439,1.223-2.882l-.073-.059a12.746,12.746,0,0,1-2.47,2.491l2.424-2.652-.056-.1-2.519.884-.021-.052,2.445-.9v-.087c-1.5-.119-3.008.255-4.405-.063H219.8c.671-.017,1.195-.049,1.548-.091a9.867,9.867,0,0,0,1.509-.091v-.147l-3.025-1.048.017-.052,2.9.961.021-.038-2.445-2.334Z" transform="translate(-6421.594 -9461.285)" fill="#fff"/>
    <g id="Group_1038" data-name="Group 1038" transform="translate(-6117.494 -9193.654)">
      <path id="Path_1503" data-name="Path 1503" d="M77.1,254.056c-.14.333-.263.669-.411.99s-.349.616-.53.936c-.945-.891-1.824-1.75-2.735-2.575a13.263,13.263,0,0,1-2.875-3.7,5.512,5.512,0,0,1-.567-2.054c-.086-1.023.546-1.466,1.507-1.1a16.586,16.586,0,0,1,2.132,1.014c1.811,1,3.627,1.988,5.405,3.048a69.264,69.264,0,0,1,9.619,7.266q3.672,3.13,7.319,6.284c.5.411.961.9,1.479,1.3a3.287,3.287,0,0,0,.863.3c-.152.431.2.756.554,1.121,1.643,1.672,3.249,3.339,4.822,5.06a11.3,11.3,0,0,1,1.232,1.885,2.669,2.669,0,0,1,.308.821c.366,1.676-.723,2.8-2.345,2.284a15.984,15.984,0,0,1-3.36-1.61,21.008,21.008,0,0,1-4.185-3.421c-.337-.349-.711-.657-1.166-1.072l1.286-.953c-.444.76-.452.821.168,1.277a26.172,26.172,0,0,0,5,3.06,2.262,2.262,0,0,0,.821.037,2.575,2.575,0,0,0-.156-.9c-.214-.353-.6-.6-.821-.949a19.3,19.3,0,0,0-3.426-3.2.55.55,0,0,0-.793-.037c-.2.164-.386.341-.583.513.148-.214.3-.411.444-.637a.575.575,0,0,0-.131-.793c-.193-.177-.378-.366-.575-.534-2.464-2.107-4.929-4.235-7.393-6.3-2.67-2.218-5.381-4.387-8.075-6.572-.435-.349-.887-.678-1.351-.982-.624-.411-.674-.386-1.355.144.411-.682.411-.735-.127-1.093-.686-.444-1.4-.846-2.119-1.232a2.933,2.933,0,0,0-.821-.1,10.2,10.2,0,0,0,1.742,2.662C76.345,254.807,76.555,254.766,77.1,254.056Z" transform="translate(-69.971 -246.427)" fill="#fff" stroke="#fff" stroke-width="1"/>
      <path id="Path_1504" data-name="Path 1504" d="M138.353,274.153a9.189,9.189,0,0,1,.07,3.635,13.579,13.579,0,0,1-1.015,3.6c-.189-.16-.374-.324-.559-.489a9.467,9.467,0,0,0,1.138-3.347c.411-3.187-.994-5.808-.789-5.882A5.392,5.392,0,0,1,138.353,274.153Z" transform="translate(-109.381 -261.3)" fill="#fff" stroke="#fff" stroke-width="1"/>
      <path id="Path_1505" data-name="Path 1505" d="M100.432,253.567c.205-.021.411-.033.669-.037a7.165,7.165,0,0,1,1.5.16,17.023,17.023,0,0,0-1.824.131,15.8,15.8,0,0,0-4.062.916,13.772,13.772,0,0,0-2.128,1.039l-.288-.209a15.61,15.61,0,0,1,2.2-1.047A15.316,15.316,0,0,1,100.432,253.567Z" transform="translate(-84.307 -250.613)" fill="#fff" stroke="#fff" stroke-width="1"/>
      <path id="Path_1506" data-name="Path 1506" d="M113.921,304.462l1.232-.821.55-.111a12.494,12.494,0,0,1-6.37,3.413,12.1,12.1,0,0,1-4.3.045l-.653-.821a9.069,9.069,0,0,0,3.939.567A12.014,12.014,0,0,0,113.921,304.462Z" transform="translate(-90.247 -280.076)" fill="#fff" stroke="#fff" stroke-width="1"/>
      <path id="Path_1616" data-name="Path 1616" d="M130.044,265.8c-.094.025-.411-1.528-1.273-3.393a12.2,12.2,0,0,0-1.6-2.752,12.733,12.733,0,0,0-2.21-2.111,20.6,20.6,0,0,0-2.354-1.643,10.771,10.771,0,0,1,5.27,3.787,16.354,16.354,0,0,1,1.844,4.107c.045.168.074.3.1.411A5.75,5.75,0,0,1,130.044,265.8Z" transform="translate(-100.989 -252.008)" fill="#fff" stroke="#fff" stroke-width="1"/>
      <path id="Path_1618" data-name="Path 1618" d="M7.434,9.9c-.094.025-.411-1.528-1.273-3.393a12.2,12.2,0,0,0-1.6-2.752,12.732,12.732,0,0,0-2.21-2.111A20.6,20.6,0,0,0,0,0,10.771,10.771,0,0,1,5.27,3.788,16.355,16.355,0,0,1,7.114,7.9c.045.168.074.3.1.411A5.75,5.75,0,0,1,7.434,9.9Z" transform="translate(13.322 26.435) rotate(175)" fill="#fff" stroke="#fff" stroke-width="1"/>
    </g>
    <path id="Path_1661" data-name="Path 1661" d="M220.4,305.187c.238.21.472.419.7.618.028.021.108.042.206.1a1.264,1.264,0,0,1,.37.332v.035l1.226,1.156.189.017a.545.545,0,0,0,0-.2c-.2-.465-.416-.926-.625-1.4a1.048,1.048,0,0,1-.119-.4c.279.58.555,1.16.824,1.726q.189-1.687.381-3.385h.112c-.031.252-.073.5-.091.751q-.1,1.3-.178,2.585a.744.744,0,0,0,.073.248.947.947,0,0,0,.206-.182c.245-.419.479-.842.741-1.251-.206.534-.576.992-.758,1.537l.08.059,2.267-1.824.052.059-2.176,1.88.045.094,1.366-.5.021.056-.978.381a1.068,1.068,0,0,0-.234.1,1.046,1.046,0,0,0-.143.178.574.574,0,0,0,.189.087c1.069.063,2.138.119,3.21.175a2.141,2.141,0,0,1,.59.066h-3.308l1.31.608-.024.052c-.231-.1-.461-.206-.7-.3-.349-.14-.674-.286-1.02-.409a.806.806,0,0,0-.311.028,1.676,1.676,0,0,0,.147.245c.615.7,1.233,1.4,1.848,2.1a1.216,1.216,0,0,1,.094.168l-2.148-2.267-.084.063.762,1.792-.059.024-.776-1.747a.255.255,0,0,0-.2.042.279.279,0,0,0-.073.217c0,.217-.119,1.747-.29,3.906h-.063c.1-2.183.182-3.633.2-3.773a.325.325,0,0,0,0-.168.933.933,0,0,0-.087-.178c-.052.045-.126.077-.15.133-.21.472-.409.95-.618,1.422a13.149,13.149,0,0,1-.618,1.261q.608-1.439,1.223-2.882l-.073-.059a12.746,12.746,0,0,1-2.47,2.491l2.424-2.652-.056-.1-2.519.884-.021-.052,2.445-.9v-.087c-1.5-.119-3.008.255-4.405-.063H219.8c.671-.017,1.195-.049,1.548-.091a9.867,9.867,0,0,0,1.509-.091v-.147l-3.025-1.048.017-.052,2.9.961.021-.038-2.445-2.334Z" transform="translate(-6508.845 -9484.725)" fill="#fff"/>
    <path id="Path_1662" data-name="Path 1662" d="M219.43,304.532l.371.328c.015.011.058.022.109.054a.672.672,0,0,1,.2.176v.019l.651.614.1.009a.289.289,0,0,0,0-.106c-.108-.247-.221-.492-.332-.742a.557.557,0,0,1-.063-.213c.148.308.3.616.438.917q.1-.9.2-1.8h.059c-.017.134-.039.265-.048.4q-.052.688-.095,1.373a.394.394,0,0,0,.039.132.5.5,0,0,0,.109-.1c.13-.223.254-.447.393-.664-.109.284-.306.527-.4.816l.043.032,1.2-.969.028.032-1.156,1,.024.05.726-.263.011.03-.52.2a.567.567,0,0,0-.124.052.558.558,0,0,0-.076.095.3.3,0,0,0,.1.046c.568.033,1.136.063,1.705.093a1.139,1.139,0,0,1,.314.035h-1.757l.7.323-.013.028c-.122-.054-.245-.109-.371-.161-.186-.074-.358-.152-.542-.217a.43.43,0,0,0-.165.015.89.89,0,0,0,.078.13l.982,1.113a.646.646,0,0,1,.05.089l-1.141-1.2-.045.033.4.952-.032.013-.412-.928a.135.135,0,0,0-.106.022.148.148,0,0,0-.039.115c0,.115-.063.928-.154,2.075h-.033c.056-1.16.1-1.93.108-2a.172.172,0,0,0,0-.089.5.5,0,0,0-.046-.095c-.028.024-.067.041-.08.07-.111.251-.217.5-.328.755a6.994,6.994,0,0,1-.328.67q.323-.765.649-1.531l-.039-.032a6.769,6.769,0,0,1-1.312,1.323l1.288-1.408-.03-.054-1.338.469-.011-.028,1.3-.479V306.1a17.157,17.157,0,0,1-2.34-.033h.783c.356-.009.635-.026.822-.048a5.243,5.243,0,0,0,.8-.048v-.078l-1.607-.557.009-.028,1.54.51.011-.02-1.3-1.24Z" transform="translate(-6495.879 -9461.278)" fill="#fff"/>
    <path id="music-f-svgrepo-com-2" data-name="music-f-svgrepo-com" d="M1.816,2.81V.228A.228.228,0,0,1,2.044,0h.006a.228.228,0,0,1,.228.228V3.44a1.105,1.105,0,0,1-.885,1.072A1.059,1.059,0,0,1,.029,3.949a1.059,1.059,0,0,1,.86-1.2,1.3,1.3,0,0,1,.928.063Z" transform="matrix(0.966, -0.259, 0.259, 0.966, -6200.149, -9186.11)" fill="#fff"/>
    <g id="MUSIC_ICON_2" data-name="MUSIC ICON " transform="translate(-6131.012 -9116.896)">
      <g id="Layer_2-7" data-name="Layer 2" transform="matrix(0.788, -0.616, 0.616, 0.788, 0, 2.796)">
        <g id="Layer_1-7" data-name="Layer 1" transform="translate(0 0)">
          <path id="Path_1101-2" data-name="Path 1101" d="M1.276,1.391C1.844.943,2.377.508,3.042,0l1.5,1.8c-.822.665-1.584,1.33-2.419,1.887a.81.81,0,0,1-.9-.314.653.653,0,0,1,0-.786c.23-.242.7-.085.955.1a1.052,1.052,0,0,1,.278.327l.847-.665L2.377,1.052c-.4.29-.786.544-1.125.835a.955.955,0,0,1-.8.3.556.556,0,0,1-.363-.314A.629.629,0,0,1,.26,1.04a.6.6,0,0,1,.822.278Z" transform="translate(0 0)" fill="#fff"/>
        </g>
      </g>
    </g>
    <g id="music-fill-svgrepo-com-2" data-name="music-fill-svgrepo-com" transform="matrix(0.966, 0.259, -0.259, 0.966, -6053.983, -9146.545)">
      <path id="Path_1125-2" data-name="Path 1125" d="M0,0H8.384V8.384H0Z" transform="translate(0 0)" fill="none"/>
      <path id="Path_1126-2" data-name="Path 1126" d="M2.1,3.68V0H4.891V1.048h-2.1V4.891a1.4,1.4,0,1,1-.7-1.21Z" transform="translate(2.096 1.048)" fill="#fff"/>
    </g>
    <g id="music-note-svgrepo-com-2" data-name="music-note-svgrepo-com" transform="translate(-6108.162 -9151.321)">
      <path id="Path_1127-2" data-name="Path 1127" d="M5.747,11.7a.8.8,0,0,1-.873.7A.8.8,0,0,1,4,11.7a.8.8,0,0,1,.873-.7A.8.8,0,0,1,5.747,11.7Z" transform="translate(-4 -7.584)" fill="#fff"/>
      <path id="Path_1128-2" data-name="Path 1128" d="M8.349,3V6.493H8V3Z" transform="translate(-6.603 -2.378)" fill="#fff" fill-rule="evenodd"/>
      <path id="Path_1129-2" data-name="Path 1129" d="M8,1.779a.349.349,0,0,1,.281-.342l1.048-.21a.349.349,0,0,1,.418.342v.622L8,2.541Z" transform="translate(-6.603 -1.221)" fill="#fff"/>
    </g>
    <g id="_-Product-Icons-3" data-name="ðŸ”-Product-Icons" transform="matrix(0.891, -0.454, 0.454, 0.891, -6047.375, -9170.685)">
      <g id="ic_fluent_music_24_filled-3" data-name="ic_fluent_music_24_filled" transform="translate(0 0)">
        <path id="_-Color-3" data-name="ðŸŽ¨-Color" d="M2.969.262A.262.262,0,0,1,3.323.017L5.552.852a1.135,1.135,0,0,1,.737,1.063V3.058a.262.262,0,0,1-.354.245L3.493,2.387V5.415a.263.263,0,0,1-.006.056c0,.039.006.079.006.119a1.6,1.6,0,0,1-1.747,1.4A1.6,1.6,0,0,1,0,5.59a1.6,1.6,0,0,1,1.747-1.4,2,2,0,0,1,1.223.4Z" fill="#fff"/>
      </g>
    </g>
    <path id="Path_1663" data-name="Path 1663" d="M220.4,305.187c.238.21.472.419.7.618.028.021.108.042.206.1a1.264,1.264,0,0,1,.37.332v.035l1.226,1.156.189.017a.545.545,0,0,0,0-.2c-.2-.465-.416-.926-.625-1.4a1.048,1.048,0,0,1-.119-.4c.279.58.555,1.16.824,1.726q.189-1.687.381-3.385h.112c-.031.252-.073.5-.091.751q-.1,1.3-.178,2.585a.744.744,0,0,0,.073.248.947.947,0,0,0,.206-.182c.245-.419.479-.842.741-1.251-.206.534-.576.992-.758,1.537l.08.059,2.267-1.824.052.059-2.176,1.88.045.094,1.366-.5.021.056-.978.381a1.068,1.068,0,0,0-.234.1,1.046,1.046,0,0,0-.143.178.574.574,0,0,0,.189.087c1.069.063,2.138.119,3.21.175a2.141,2.141,0,0,1,.59.066h-3.308l1.31.608-.024.052c-.231-.1-.461-.206-.7-.3-.349-.14-.674-.286-1.02-.409a.806.806,0,0,0-.311.028,1.676,1.676,0,0,0,.147.245c.615.7,1.233,1.4,1.848,2.1a1.216,1.216,0,0,1,.094.168l-2.148-2.267-.084.063.762,1.792-.059.024-.776-1.747a.255.255,0,0,0-.2.042.279.279,0,0,0-.073.217c0,.217-.119,1.747-.29,3.906h-.063c.1-2.183.182-3.633.2-3.773a.325.325,0,0,0,0-.168.933.933,0,0,0-.087-.178c-.052.045-.126.077-.15.133-.21.472-.409.95-.618,1.422a13.149,13.149,0,0,1-.618,1.261q.608-1.439,1.223-2.882l-.073-.059a12.746,12.746,0,0,1-2.47,2.491l2.424-2.652-.056-.1-2.519.884-.021-.052,2.445-.9v-.087c-1.5-.119-3.008.255-4.405-.063H219.8c.671-.017,1.195-.049,1.548-.091a9.867,9.867,0,0,0,1.509-.091v-.147l-3.025-1.048.017-.052,2.9.961.021-.038-2.445-2.334Z" transform="translate(-6288.384 -9471.546)" fill="#fff"/>
    <path id="musical-note-svgrepo-com" d="M3.136,2.175A1.277,1.277,0,0,0,3.817.745,1.074,1.074,0,0,0,2.76,0a.983.983,0,0,0-.71.28.84.84,0,0,0-.244.6L1.812,2.6c-.429.374-.875.769-1.1.963A1.813,1.813,0,0,0,0,4.879,1.572,1.572,0,0,0,.428,6.111a1.829,1.829,0,0,0,1.4.423v.24a.7.7,0,0,1-.023.2.707.707,0,0,1-.59.527.558.558,0,0,1-.558-.558.268.268,0,1,0-.536,0A1.1,1.1,0,0,0,1.216,8.035a1.23,1.23,0,0,0,1.1-.91,1.208,1.208,0,0,0,.045-.351l0-.425a1.283,1.283,0,0,0,.895-1.189,1.213,1.213,0,0,0-.9-1.171l0-1.145C2.748,2.5,3.072,2.219,3.136,2.175ZM2.431.657A.447.447,0,0,1,2.758.537.538.538,0,0,1,3.3.9c.082.277-.092.593-.456.825-.055.035-.248.2-.5.414l0-1.256A.3.3,0,0,1,2.431.657ZM.808,5.732A1.052,1.052,0,0,1,.54,4.917a1.276,1.276,0,0,1,.507-.932l.017-.014.751-.661,0,.657A1.1,1.1,0,0,0,.89,5.086a.268.268,0,1,0,.536,0,.557.557,0,0,1,.393-.567L1.825,6A1.345,1.345,0,0,1,.808,5.732Zm1.914-.573a.7.7,0,0,1-.361.594l0-1.191A.673.673,0,0,1,2.721,5.159Z" transform="translate(-6150.62 -9141.9) rotate(-30)" fill="#fff"/>
    <path id="musical-note-svgrepo-com-2" data-name="musical-note-svgrepo-com" d="M3.136,2.175A1.277,1.277,0,0,0,3.817.745,1.074,1.074,0,0,0,2.76,0a.983.983,0,0,0-.71.28.84.84,0,0,0-.244.6L1.812,2.6c-.429.374-.875.769-1.1.963A1.813,1.813,0,0,0,0,4.879,1.572,1.572,0,0,0,.428,6.111a1.829,1.829,0,0,0,1.4.423v.24a.7.7,0,0,1-.023.2.707.707,0,0,1-.59.527.558.558,0,0,1-.558-.558.268.268,0,1,0-.536,0A1.1,1.1,0,0,0,1.216,8.035a1.23,1.23,0,0,0,1.1-.91,1.208,1.208,0,0,0,.045-.351l0-.425a1.283,1.283,0,0,0,.895-1.189,1.213,1.213,0,0,0-.9-1.171l0-1.145C2.748,2.5,3.072,2.219,3.136,2.175ZM2.431.657A.447.447,0,0,1,2.758.537.538.538,0,0,1,3.3.9c.082.277-.092.593-.456.825-.055.035-.248.2-.5.414l0-1.256A.3.3,0,0,1,2.431.657ZM.808,5.732A1.052,1.052,0,0,1,.54,4.917a1.276,1.276,0,0,1,.507-.932l.017-.014.751-.661,0,.657A1.1,1.1,0,0,0,.89,5.086a.268.268,0,1,0,.536,0,.557.557,0,0,1,.393-.567L1.825,6A1.345,1.345,0,0,1,.808,5.732Zm1.914-.573a.7.7,0,0,1-.361.594l0-1.191A.673.673,0,0,1,2.721,5.159Z" transform="translate(-6020.928 -9159.466) rotate(-30)" fill="#fff"/>
    <path id="music-f-svgrepo-com-3" data-name="music-f-svgrepo-com" d="M1.816,2.81V.228A.228.228,0,0,1,2.044,0h.006a.228.228,0,0,1,.228.228V3.44a1.105,1.105,0,0,1-.885,1.072A1.059,1.059,0,0,1,.029,3.949a1.059,1.059,0,0,1,.86-1.2,1.3,1.3,0,0,1,.928.063Z" transform="matrix(0.966, -0.259, 0.259, 0.966, -6135.815, -9162.674)" fill="#fff"/>
    <g id="Layer_2-8" data-name="Layer 2" transform="translate(-6150.62 -9209.779)">
      <g id="Layer_1-8" data-name="Layer 1">
        <path id="Path_1088-2" data-name="Path 1088" d="M23.44,4.08c.554-.151,1.107-.3,1.662-.452.338-.088.682-.158,1.023-.239a.53.53,0,0,1,.631.6,1.755,1.755,0,0,1-.234.491,3.527,3.527,0,0,1-.271.349l.076.063c.192-.233.394-.46.576-.7a.623.623,0,0,1,1.055.065c.214.432.409.871.616,1.306.058.123.128.242.192.363l.086-.038c-.168-.38-.338-.758-.5-1.14-.1-.241-.192-.488-.3-.725a.3.3,0,0,1,.116-.423.558.558,0,0,1,.379-.046,5.587,5.587,0,0,1,.65.256l.053-.112a2.314,2.314,0,0,0-.428-.219c-.624-.165-.625-.479-.179-.926.051-.051.123-.081.174-.174a1.2,1.2,0,0,0-.244.064.3.3,0,0,1-.451-.165.545.545,0,0,1,.044-.39,7.446,7.446,0,0,1,.428-.678L28.5,1.142c-.088.108-.175.217-.265.324-.254.3-.452.676-.969.574-.184-.036-.3-.082-.373-.249C26.7,1.339,26.51.886,26.311.438,26.238.285,26.148.146,26.069,0l-.088.039a2.244,2.244,0,0,0,.079.293c.21.5.438,1,.634,1.508.167.434.033.587-.418.462a9.618,9.618,0,0,1-1-.4l-.26-.108-.115.13a2.067,2.067,0,0,1,.21.058c.336.128.677.246,1,.393.128.058.292.168.323.285a.4.4,0,0,1-.264.527c-.264.086-.5.162-.755.233-.6.17-1.2.336-1.8.507a1.759,1.759,0,0,0-.2.083Zm3.381-.708a2.46,2.46,0,0,1-.143-.552.623.623,0,0,1,.57-.656c.45-.022.808.125.911.464.115.381-.1.659-.232.967-.006.014-.057.008-.086.011l-.058-.264-.259.453c-.477-.071-.252-.461-.356-.737Z" transform="translate(-23.42)" fill="#fff"/>
        <path id="Path_1089-2" data-name="Path 1089" d="M.052,23.484l1.757-.606-.053-.148L0,23.336Z" transform="translate(5.681 -21.11)" fill="#fff"/>
      </g>
    </g>
    <path id="music-svgrepo-com_1_2" data-name="music-svgrepo-com (1)" d="M7.638.024l-5.2,1.534a.52.52,0,0,0-.364.5V6.3a2.257,2.257,0,0,0-.52-.064C.7,6.235,0,6.7,0,7.274S.7,8.313,1.559,8.313s1.559-.465,1.559-1.039V3.48L7.275,2.262v3a2.247,2.247,0,0,0-.52-.064C5.894,5.2,5.2,5.661,5.2,6.235s.7,1.039,1.559,1.039,1.559-.465,1.559-1.039V.519a.52.52,0,0,0-.676-.5Z" transform="matrix(0.914, -0.407, 0.407, 0.914, -6099.834, -9124.449)" fill="#fff"/>
    <path id="music-f-svgrepo-com-4" data-name="music-f-svgrepo-com" d="M1.816,2.81V.228A.228.228,0,0,1,2.044,0h.006a.228.228,0,0,1,.228.228V3.44a1.105,1.105,0,0,1-.885,1.072A1.059,1.059,0,0,1,.029,3.949a1.059,1.059,0,0,1,.86-1.2,1.3,1.3,0,0,1,.928.063Z" transform="matrix(0.966, -0.259, 0.259, 0.966, -6086.501, -9097.188)" fill="#fff"/>
    <g id="Layer_2-9" data-name="Layer 2" transform="translate(-6019.129 -9190.483)">
      <g id="Layer_1-9" data-name="Layer 1">
        <path id="Path_1088-3" data-name="Path 1088" d="M23.44,4.08c.554-.151,1.107-.3,1.662-.452.338-.088.682-.158,1.023-.239a.53.53,0,0,1,.631.6,1.755,1.755,0,0,1-.234.491,3.527,3.527,0,0,1-.271.349l.076.063c.192-.233.394-.46.576-.7a.623.623,0,0,1,1.055.065c.214.432.409.871.616,1.306.058.123.128.242.192.363l.086-.038c-.168-.38-.338-.758-.5-1.14-.1-.241-.192-.488-.3-.725a.3.3,0,0,1,.116-.423.558.558,0,0,1,.379-.046,5.587,5.587,0,0,1,.65.256l.053-.112a2.314,2.314,0,0,0-.428-.219c-.624-.165-.625-.479-.179-.926.051-.051.123-.081.174-.174a1.2,1.2,0,0,0-.244.064.3.3,0,0,1-.451-.165.545.545,0,0,1,.044-.39,7.446,7.446,0,0,1,.428-.678L28.5,1.142c-.088.108-.175.217-.265.324-.254.3-.452.676-.969.574-.184-.036-.3-.082-.373-.249C26.7,1.339,26.51.886,26.311.438,26.238.285,26.148.146,26.069,0l-.088.039a2.244,2.244,0,0,0,.079.293c.21.5.438,1,.634,1.508.167.434.033.587-.418.462a9.618,9.618,0,0,1-1-.4l-.26-.108-.115.13a2.067,2.067,0,0,1,.21.058c.336.128.677.246,1,.393.128.058.292.168.323.285a.4.4,0,0,1-.264.527c-.264.086-.5.162-.755.233-.6.17-1.2.336-1.8.507a1.759,1.759,0,0,0-.2.083Zm3.381-.708a2.46,2.46,0,0,1-.143-.552.623.623,0,0,1,.57-.656c.45-.022.808.125.911.464.115.381-.1.659-.232.967-.006.014-.057.008-.086.011l-.058-.264-.259.453c-.477-.071-.252-.461-.356-.737Z" transform="translate(-23.42)" fill="#fff"/>
        <path id="Path_1089-3" data-name="Path 1089" d="M.052,23.484l1.757-.606-.053-.148L0,23.336Z" transform="translate(5.681 -21.11)" fill="#fff"/>
      </g>
    </g>
    <path id="Path_1664" data-name="Path 1664" d="M219.43,304.532l.371.328c.015.011.058.022.109.054a.672.672,0,0,1,.2.176v.019l.651.614.1.009a.289.289,0,0,0,0-.106c-.108-.247-.221-.492-.332-.742a.557.557,0,0,1-.063-.213c.148.308.3.616.438.917q.1-.9.2-1.8h.059c-.017.134-.039.265-.048.4q-.052.688-.095,1.373a.394.394,0,0,0,.039.132.5.5,0,0,0,.109-.1c.13-.223.254-.447.393-.664-.109.284-.306.527-.4.816l.043.032,1.2-.969.028.032-1.156,1,.024.05.726-.263.011.03-.52.2a.567.567,0,0,0-.124.052.558.558,0,0,0-.076.095.3.3,0,0,0,.1.046c.568.033,1.136.063,1.705.093a1.139,1.139,0,0,1,.314.035h-1.757l.7.323-.013.028c-.122-.054-.245-.109-.371-.161-.186-.074-.358-.152-.542-.217a.43.43,0,0,0-.165.015.89.89,0,0,0,.078.13l.982,1.113a.646.646,0,0,1,.05.089l-1.141-1.2-.045.033.4.952-.032.013-.412-.928a.135.135,0,0,0-.106.022.148.148,0,0,0-.039.115c0,.115-.063.928-.154,2.075h-.033c.056-1.16.1-1.93.108-2a.172.172,0,0,0,0-.089.5.5,0,0,0-.046-.095c-.028.024-.067.041-.08.07-.111.251-.217.5-.328.755a6.994,6.994,0,0,1-.328.67q.323-.765.649-1.531l-.039-.032a6.769,6.769,0,0,1-1.312,1.323l1.288-1.408-.03-.054-1.338.469-.011-.028,1.3-.479V306.1a17.157,17.157,0,0,1-2.34-.033h.783c.356-.009.635-.026.822-.048a5.243,5.243,0,0,0,.8-.048v-.078l-1.607-.557.009-.028,1.54.51.011-.02-1.3-1.24Z" transform="translate(-6298.232 -9444.872)" fill="#fff"/>
    <path id="Path_1665" data-name="Path 1665" d="M219.43,304.532l.371.328c.015.011.058.022.109.054a.672.672,0,0,1,.2.176v.019l.651.614.1.009a.289.289,0,0,0,0-.106c-.108-.247-.221-.492-.332-.742a.557.557,0,0,1-.063-.213c.148.308.3.616.438.917q.1-.9.2-1.8h.059c-.017.134-.039.265-.048.4q-.052.688-.095,1.373a.394.394,0,0,0,.039.132.5.5,0,0,0,.109-.1c.13-.223.254-.447.393-.664-.109.284-.306.527-.4.816l.043.032,1.2-.969.028.032-1.156,1,.024.05.726-.263.011.03-.52.2a.567.567,0,0,0-.124.052.558.558,0,0,0-.076.095.3.3,0,0,0,.1.046c.568.033,1.136.063,1.705.093a1.139,1.139,0,0,1,.314.035h-1.757l.7.323-.013.028c-.122-.054-.245-.109-.371-.161-.186-.074-.358-.152-.542-.217a.43.43,0,0,0-.165.015.89.89,0,0,0,.078.13l.982,1.113a.646.646,0,0,1,.05.089l-1.141-1.2-.045.033.4.952-.032.013-.412-.928a.135.135,0,0,0-.106.022.148.148,0,0,0-.039.115c0,.115-.063.928-.154,2.075h-.033c.056-1.16.1-1.93.108-2a.172.172,0,0,0,0-.089.5.5,0,0,0-.046-.095c-.028.024-.067.041-.08.07-.111.251-.217.5-.328.755a6.994,6.994,0,0,1-.328.67q.323-.765.649-1.531l-.039-.032a6.769,6.769,0,0,1-1.312,1.323l1.288-1.408-.03-.054-1.338.469-.011-.028,1.3-.479V306.1a17.157,17.157,0,0,1-2.34-.033h.783c.356-.009.635-.026.822-.048a5.243,5.243,0,0,0,.8-.048v-.078l-1.607-.557.009-.028,1.54.51.011-.02-1.3-1.24Z" transform="translate(-6305.693 -9379.388)" fill="#fff"/>
    <g id="Layer_2-10" data-name="Layer 2" transform="translate(-6120.812 -9084.021)">
      <g id="Layer_1-10" data-name="Layer 1">
        <path id="Path_1088-4" data-name="Path 1088" d="M23.44,4.08c.554-.151,1.107-.3,1.662-.452.338-.088.682-.158,1.023-.239a.53.53,0,0,1,.631.6,1.755,1.755,0,0,1-.234.491,3.527,3.527,0,0,1-.271.349l.076.063c.192-.233.394-.46.576-.7a.623.623,0,0,1,1.055.065c.214.432.409.871.616,1.306.058.123.128.242.192.363l.086-.038c-.168-.38-.338-.758-.5-1.14-.1-.241-.192-.488-.3-.725a.3.3,0,0,1,.116-.423.558.558,0,0,1,.379-.046,5.587,5.587,0,0,1,.65.256l.053-.112a2.314,2.314,0,0,0-.428-.219c-.624-.165-.625-.479-.179-.926.051-.051.123-.081.174-.174a1.2,1.2,0,0,0-.244.064.3.3,0,0,1-.451-.165.545.545,0,0,1,.044-.39,7.446,7.446,0,0,1,.428-.678L28.5,1.142c-.088.108-.175.217-.265.324-.254.3-.452.676-.969.574-.184-.036-.3-.082-.373-.249C26.7,1.339,26.51.886,26.311.438,26.238.285,26.148.146,26.069,0l-.088.039a2.244,2.244,0,0,0,.079.293c.21.5.438,1,.634,1.508.167.434.033.587-.418.462a9.618,9.618,0,0,1-1-.4l-.26-.108-.115.13a2.067,2.067,0,0,1,.21.058c.336.128.677.246,1,.393.128.058.292.168.323.285a.4.4,0,0,1-.264.527c-.264.086-.5.162-.755.233-.6.17-1.2.336-1.8.507a1.759,1.759,0,0,0-.2.083Zm3.381-.708a2.46,2.46,0,0,1-.143-.552.623.623,0,0,1,.57-.656c.45-.022.808.125.911.464.115.381-.1.659-.232.967-.006.014-.057.008-.086.011l-.058-.264-.259.453c-.477-.071-.252-.461-.356-.737Z" transform="translate(-23.42)" fill="#fff"/>
        <path id="Path_1089-4" data-name="Path 1089" d="M.052,23.484l1.757-.606-.053-.148L0,23.336Z" transform="translate(5.681 -21.11)" fill="#fff"/>
      </g>
    </g>
    <g id="_-Product-Icons-4" data-name="ðŸ”-Product-Icons" transform="matrix(0.891, -0.454, 0.454, 0.891, -6074.017, -9058.462)">
      <g id="ic_fluent_music_24_filled-4" data-name="ic_fluent_music_24_filled" transform="translate(0 0)">
        <path id="_-Color-4" data-name="ðŸŽ¨-Color" d="M2.969.262A.262.262,0,0,1,3.323.017L5.552.852a1.135,1.135,0,0,1,.737,1.063V3.058a.262.262,0,0,1-.354.245L3.493,2.387V5.415a.263.263,0,0,1-.006.056c0,.039.006.079.006.119a1.6,1.6,0,0,1-1.747,1.4A1.6,1.6,0,0,1,0,5.59a1.6,1.6,0,0,1,1.747-1.4,2,2,0,0,1,1.223.4Z" fill="#fff"/>
      </g>
    </g>
    <g id="Layer_2-11" data-name="Layer 2" transform="translate(-6036.854 -9063.773)">
      <g id="Layer_1-11" data-name="Layer 1">
        <path id="Path_1087-3" data-name="Path 1087" d="M3.444,2.16c.395.321.785.646,1.186.959.042.033.182.063.344.154a2.128,2.128,0,0,1,.617.515v.058L7.622,5.632l.316.03a.746.746,0,0,0,0-.31C7.6,4.633,7.246,3.913,6.9,3.2A1.506,1.506,0,0,1,6.7,2.576c.462.9.925,1.8,1.366,2.679Q8.386,2.636,8.7,0l.183.017c-.051.389-.117.776-.154,1.166q-.154,2.007-.3,4.014a1.123,1.123,0,0,0,.125.383A1.509,1.509,0,0,0,8.9,5.293c.409-.646.8-1.3,1.233-1.939C9.8,4.184,9.177,4.9,8.874,5.739l.133.094L12.783,3l.082.1L9.25,6.017l.076.144,2.268-.772.034.086L10,6.066a1.835,1.835,0,0,0-.385.157,1.344,1.344,0,0,0-.239.275,1,1,0,0,0,.308.135q2.667.144,5.333.271a3.744,3.744,0,0,1,.982.1H10.509c.771.337,1.478.639,2.178.94l-.039.084c-.385-.157-.771-.321-1.158-.472-.561-.219-1.122-.443-1.7-.632a1.371,1.371,0,0,0-.516.045,2.359,2.359,0,0,0,.247.371c1.019,1.084,2.046,2.16,3.069,3.242a2.086,2.086,0,0,1,.154.261L9.179,7.33l-.137.1L10.3,10.212l-.1.037L8.92,7.533a.462.462,0,0,0-.331.062.426.426,0,0,0-.125.338c0,.337-.2,2.715-.479,6.061l-.1-.009c.173-3.388.3-5.635.338-5.855a.493.493,0,0,0,0-.262,1.612,1.612,0,0,0-.154-.275c-.085.068-.207.12-.248.206C7.465,8.532,7.133,9.272,6.783,10a19.523,19.523,0,0,1-1.03,1.958q1.03-2.237,2.041-4.476L7.67,7.4c-1.387,1.389-2.536,3.023-4.1,3.864L7.594,7.146c-.031-.052-.062-.105-.094-.157L3.3,8.358l-.032-.082,4.081-1.4c-.009-.045-.017-.089-.025-.135-2.484-.186-4.995.4-7.32-.1.478.009,1.162.016,2,0l.453-.009c1.115-.026,1.989-.073,2.575-.144a17.075,17.075,0,0,0,2.507-.144c0-.076.011-.144.015-.226L2.522,4.506l.028-.079,4.816,1.49.035-.06L3.365,2.236Z" fill="#fff"/>
      </g>
    </g>
  </g>
</svg>
